SplineFontDB: 3.0
FontName: Jost-Medium
FullName: Jost* 500 Medium
FamilyName: Jost* Medium
Weight: Medium
Copyright: This typeface is licensed under the SIL open font license.
UComments: "2018-6-8: Created with FontForge (http://fontforge.org)"
Version: 003.400
ItalicAngle: 0
UnderlinePosition: -100
UnderlineWidth: 50
Ascent: 800
Descent: 200
InvalidEm: 0
LayerCount: 2
Layer: 0 0 "Back" 1
Layer: 1 0 "Fore" 0
XUID: [1021 69 1495626776 15290027]
FSType: 0
OS2Version: 0
OS2_WeightWidthSlopeOnly: 0
OS2_UseTypoMetrics: 0
CreationTime: 1528475722
ModificationTime: 1577663593
PfmFamily: 17
TTFWeight: 500
TTFWidth: 5
LineGap: 100
VLineGap: 0
OS2TypoAscent: 825
OS2TypoAOffset: 0
OS2TypoDescent: -225
OS2TypoDOffset: 0
OS2TypoLinegap: 100
OS2WinAscent: 900
OS2WinAOffset: 0
OS2WinDescent: 300
OS2WinDOffset: 0
HheadAscent: 1030
HheadAOffset: 0
HheadDescent: -350
HheadDOffset: 0
OS2CapHeight: 700
OS2XHeight: 460
OS2Vendor: 'PfEd'
Lookup: 1 0 0 "alt a" { "alt a"  } ['ss01' ('DFLT' <'dflt' > 'latn' <'dflt' > ) ]
Lookup: 1 0 0 "Tabular Numbers lookup" { "Tabular Numbers lookup"  } ['tnum' ('DFLT' <'dflt' > 'grek' <'dflt' > 'latn' <'dflt' > ) ]
Lookup: 258 0 0 "Lets get our kern on" { "kernin like nobodys business" [150,0,0] } ['kern' ('DFLT' <'dflt' > 'latn' <'dflt' > ) ]
MarkAttachClasses: 1
DEI: 91125
KernClass2: 16 14 "kernin like nobodys business"
 43 slash seven V W Wcircumflex uni040E uni0423
 175 quotedbl quotesingle asterisk grave dieresis ordfeminine macron degree acute ordmasculine circumflex breve dotaccent ring tilde quoteleft quoteright quotedblleft quotedblright
 25 nine question F P uni0420
 131 A L backslash Agrave Aacute Acircumflex Atilde Adieresis Aring Amacron Abreve Aogonek Lacute uni013B Lslash uni0410 uni0414 uni041C
 58 three eight B C germandbls uni0411 uni0412 uni0417 uni0421
 29 K X Z uni0416 uni041A uni0425

StartChar: H
Encoding: 72 72 0
Width: 743
VWidth: 0
Flags: HMW
LayerCount: 2
Fore
SplineSet
125 321 m 1
 125 430 l 1
 625 430 l 1
 625 321 l 1
 125 321 l 1
548 700 m 1
 666 700 l 1
 666 0 l 1
 548 0 l 1
 548 700 l 1
78 700 m 1
 196 700 l 1
 196 0 l 1
 78 0 l 1
 78 700 l 1
EndSplineSet
EndChar

StartChar: O
Encoding: 79 79 1
Width: 802
VWidth: 0
Flags: HMW
LayerCount: 2
Fore
SplineSet
163 350 m 0
 163 206 262 101 401 101 c 0
 540 101 639 206 639 350 c 0
 639 494 542 599 401 599 c 0
 262 599 163 494 163 350 c 0
38 350 m 0
 38 559 193 712 401 712 c 0
 610 712 765 559 765 350 c 0
 765 141 611 -15 401 -15 c 0
 191 -15 38 141 38 350 c 0
EndSplineSet
EndChar

StartChar: I
Encoding: 73 73 2
Width: 275
VWidth: 0
Flags: HMW
LayerCount: 2
Fore
SplineSet
78 700 m 1
 197 700 l 1
 197 0 l 1
 78 0 l 1
 78 700 l 1
EndSplineSet
EndChar

StartChar: C
Encoding: 67 67 3
Width: 691
VWidth: 0
Flags: HMW
LayerCount: 2
Fore
SplineSet
166 350 m 0
 166 201 277 103 405 103 c 0
 504 103 576 146 624 203 c 1
 624 62 l 1
 566 14 503 -12 401 -12 c 0
 195 -12 38 137 38 350 c 0
 38 563 195 712 401 712 c 0
 503 712 566 686 624 638 c 1
 624 497 l 1
 576 554 504 597 405 597 c 0
 277 597 166 499 166 350 c 0
EndSplineSet
EndChar

StartChar: E
Encoding: 69 69 4
Width: 571
VWidth: 0
Flags: HMW
LayerCount: 2
Fore
SplineSet
151 0 m 1
 151 104 l 1
 504 104 l 1
 504 0 l 1
 151 0 l 1
151 596 m 1
 151 700 l 1
 504 700 l 1
 504 596 l 1
 151 596 l 1
151 324 m 1
 151 426 l 1
 484 426 l 1
 484 324 l 1
 151 324 l 1
78 700 m 1
 194 700 l 1
 194 0 l 1
 78 0 l 1
 78 700 l 1
EndSplineSet
EndChar

StartChar: F
Encoding: 70 70 6
Width: 521
VWidth: 0
Flags: HMW
LayerCount: 2
Fore
SplineSet
151 594 m 1
 151 700 l 1
 464 700 l 1
 464 594 l 1
 151 594 l 1
151 316 m 1
 151 419 l 1
 454 419 l 1
 454 316 l 1
 151 316 l 1
78 700 m 1
 194 700 l 1
 194 0 l 1
 78 0 l 1
 78 700 l 1
EndSplineSet
EndChar

StartChar: G
Encoding: 71 71 7
Width: 790
VWidth: 0
Flags: HMW
LayerCount: 2
Fore
SplineSet
411 266 m 1
 411 366 l 1
 748 366 l 1
 753 161 628 -15 404 -15 c 0
 192 -15 38 136 38 350 c 0
 38 564 194 712 406 712 c 0
 543 712 645 654 707 557 c 1
 611 492 l 1
 572 558 503 603 406 603 c 0
 270 603 162 503 162 350 c 0
 162 197 268 95 406 95 c 0
 531 95 603 171 626 266 c 1
 411 266 l 1
EndSplineSet
EndChar

StartChar: T
Encoding: 84 84 8
Width: 503
VWidth: 0
Flags: HMW
LayerCount: 2
Fore
SplineSet
8 591 m 1
 8 700 l 1
 496 700 l 1
 496 591 l 1
 311 591 l 1
 311 0 l 1
 192 0 l 1
 192 591 l 1
 8 591 l 1
EndSplineSet
EndChar

StartChar: L
Encoding: 76 76 9
Width: 481
VWidth: 0
Flags: HMW
LayerCount: 2
Fore
SplineSet
78 700 m 1
 196 700 l 1
 196 106 l 1
 474 106 l 1
 474 0 l 1
 78 0 l 1
 78 700 l 1
EndSplineSet
EndChar

StartChar: D
Encoding: 68 68 10
Width: 701
VWidth: 0
Flags: HMW
LayerCount: 2
Fore
SplineSet
78 700 m 1
 199 700 l 1
 199 0 l 1
 78 0 l 1
 78 700 l 1
304 0 m 2
 151 0 l 1
 151 111 l 1
 301 111 l 2
 439 111 543 192 543 350 c 0
 543 508 439 589 301 589 c 2
 151 589 l 1
 151 700 l 1
 304 700 l 2
 518 700 664 561 664 350 c 0
 664 139 518 0 304 0 c 2
EndSplineSet
EndChar

StartChar: Q
Encoding: 81 81 11
Width: 819
VWidth: 0
Flags: HMW
LayerCount: 2
Fore
SplineSet
163 350 m 0
 163 201 268 96 407 96 c 0
 546 96 647 198 647 342 c 0
 647 486 548 599 403 599 c 0
 264 599 163 494 163 350 c 0
38 350 m 0
 38 559 195 712 403 712 c 0
 612 712 765 559 765 350 c 0
 765 141 613 -15 403 -15 c 0
 193 -15 38 141 38 350 c 0
370 300 m 1
 506 300 l 1
 821 -5 l 1
 683 -5 l 1
 370 300 l 1
EndSplineSet
EndChar

StartChar: A
Encoding: 65 65 12
Width: 690
VWidth: 0
Flags: HMW
LayerCount: 2
Fore
SplineSet
162 180 m 1
 185 280 l 1
 509 280 l 1
 532 180 l 1
 162 180 l 1
345 502 m 1
 235 245 l 1
 233 219 l 1
 136 0 l 1
 3 0 l 1
 345 739 l 1
 687 0 l 1
 554 0 l 1
 459 213 l 1
 456 242 l 1
 345 502 l 1
EndSplineSet
EndChar

StartChar: R
Encoding: 82 82 13
Width: 594
VWidth: 0
Flags: HMW
LayerCount: 2
Fore
SplineSet
223 334 m 1
 350 334 l 1
 588 0 l 1
 445 0 l 1
 223 334 l 1
78 700 m 1
 196 700 l 1
 196 0 l 1
 78 0 l 1
 78 700 l 1
148 597 m 1
 148 700 l 1
 294 700 l 2
 447 700 546 613 546 482 c 0
 546 351 447 265 294 265 c 2
 148 265 l 1
 148 363 l 1
 289 363 l 2
 370 363 424 405 424 480 c 0
 424 555 370 597 289 597 c 2
 148 597 l 1
EndSplineSet
EndChar

StartChar: V
Encoding: 86 86 14
Width: 690
VWidth: 0
Flags: HMW
LayerCount: 2
Fore
SplineSet
345 208 m 1
 551 700 l 1
 687 700 l 1
 345 -39 l 1
 3 700 l 1
 139 700 l 1
 345 208 l 1
EndSplineSet
EndChar

StartChar: M
Encoding: 77 77 15
Width: 842
VWidth: 0
Flags: HMW
LayerCount: 2
Fore
SplineSet
208 426 m 1
 160 0 l 1
 38 0 l 1
 134 735 l 1
 421 260 l 1
 709 735 l 1
 805 0 l 1
 683 0 l 1
 635 426 l 1
 421 65 l 1
 208 426 l 1
EndSplineSet
EndChar

StartChar: W
Encoding: 87 87 16
Width: 1020
VWidth: 0
Flags: HMW
LayerCount: 2
Fore
SplineSet
711 231 m 1
 875 700 l 1
 1012 700 l 1
 726 -37 l 1
 510 457 l 1
 294 -37 l 1
 8 700 l 1
 145 700 l 1
 311 231 l 1
 510 735 l 1
 711 231 l 1
EndSplineSet
EndChar

StartChar: N
Encoding: 78 78 17
Width: 782
VWidth: 0
Flags: HMW
LayerCount: 2
Fore
SplineSet
589 700 m 1
 705 700 l 1
 705 -35 l 1
 194 470 l 1
 194 0 l 1
 78 0 l 1
 78 735 l 1
 589 230 l 1
 589 700 l 1
EndSplineSet
EndChar

StartChar: a
Encoding: 97 97 18
Width: 504
VWidth: 0
Flags: HMW
LayerCount: 2
Fore
SplineSet
137 143 m 0
 137 97 173 71 223 71 c 0
 287 71 341 112 341 182 c 1
 357 122 l 1
 357 34 269 -10 189 -10 c 0
 102 -10 28 43 28 137 c 0
 28 226 94 283 208 283 c 0
 300 283 355 246 374 225 c 1
 374 170 l 1
 333 199 286 212 234 212 c 0
 166 212 137 186 137 143 c 0
103 340 m 1
 59 416 l 1
 101 441 167 471 253 471 c 0
 366 471 447 419 447 328 c 2
 447 0 l 1
 341 0 l 1
 341 307 l 2
 341 363 300 383 243 383 c 0
 177 383 123 354 103 340 c 1
EndSplineSet
Substitution2: "alt a" a.alt
EndChar

StartChar: X
Encoding: 88 88 19
Width: 607
VWidth: 0
Flags: HMW
LayerCount: 2
Fore
SplineSet
441 700 m 1
 585 700 l 1
 373 364 l 1
 600 0 l 1
 456 0 l 1
 306 269 l 1
 151 0 l 1
 8 0 l 1
 240 364 l 1
 33 700 l 1
 176 700 l 1
 307 463 l 1
 441 700 l 1
EndSplineSet
EndChar

StartChar: K
Encoding: 75 75 20
Width: 619
VWidth: 0
Flags: HMW
LayerCount: 2
Fore
SplineSet
78 700 m 1
 199 700 l 1
 199 0 l 1
 78 0 l 1
 78 700 l 1
459 700 m 1
 601 700 l 1
 306 372 l 1
 616 0 l 1
 471 0 l 1
 163 369 l 1
 459 700 l 1
EndSplineSet
EndChar

StartChar: Y
Encoding: 89 89 21
Width: 600
VWidth: 0
Flags: HMW
LayerCount: 2
Fore
SplineSet
463 700 m 1
 598 700 l 1
 361 295 l 1
 361 0 l 1
 240 0 l 1
 240 294 l 1
 3 700 l 1
 138 700 l 1
 300 400 l 1
 463 700 l 1
EndSplineSet
EndChar

StartChar: B
Encoding: 66 66 22
Width: 600
VWidth: 0
Flags: HMW
LayerCount: 2
Fore
SplineSet
168 361 m 1
 168 419 l 1
 281 419 l 2
 346 419 392 453 392 511 c 0
 392 569 346 603 281 603 c 2
 196 603 l 1
 196 97 l 1
 294 97 l 2
 374 97 432 136 432 214 c 0
 432 290 374 327 294 327 c 2
 168 327 l 1
 168 392 l 1
 301 392 l 2
 436 392 553 336 553 202 c 0
 553 63 448 0 301 0 c 2
 78 0 l 1
 78 700 l 1
 289 700 l 2
 422 700 513 643 513 524 c 0
 513 420 422 361 289 361 c 2
 168 361 l 1
EndSplineSet
EndChar

StartChar: Z
Encoding: 90 90 23
Width: 575
VWidth: 0
Flags: HMW
LayerCount: 2
Fore
SplineSet
44 591 m 1
 44 700 l 1
 557 700 l 1
 205 106 l 1
 531 106 l 1
 531 0 l 1
 13 0 l 1
 364 591 l 1
 44 591 l 1
EndSplineSet
EndChar

StartChar: o
Encoding: 111 111 24
Width: 563
VWidth: 0
Flags: HMW
LayerCount: 2
Fore
SplineSet
34 230 m 0
 34 371 141 470 282 470 c 0
 423 470 530 371 530 230 c 0
 530 89 423 -10 282 -10 c 0
 141 -10 34 89 34 230 c 0
145 230 m 0
 145 144 204 85 282 85 c 0
 360 85 419 144 419 230 c 0
 419 316 360 375 282 375 c 0
 204 375 145 316 145 230 c 0
EndSplineSet
EndChar

StartChar: J
Encoding: 74 74 25
Width: 276
VWidth: 0
Flags: HMW
LayerCount: 2
Fore
SplineSet
-69 -88 m 1
 -53 -109 -23 -122 11 -122 c 0
 41 -122 78 -100 78 -36 c 2
 78 700 l 1
 199 700 l 1
 199 -58 l 2
 199 -177 121 -228 15 -228 c 0
 -48 -228 -107 -197 -132 -175 c 1
 -69 -88 l 1
EndSplineSet
EndChar

StartChar: t
Encoding: 116 116 26
Width: 271
VWidth: 0
Flags: HMW
LayerCount: 2
Fore
SplineSet
5 460 m 1
 266 460 l 1
 266 365 l 1
 5 365 l 1
 5 460 l 1
82 620 m 1
 189 620 l 1
 189 0 l 1
 82 0 l 1
 82 620 l 1
EndSplineSet
EndChar

StartChar: d
Encoding: 100 100 27
Width: 588
VWidth: 0
Flags: HMW
LayerCount: 2
Fore
SplineSet
415 780 m 1
 524 780 l 1
 524 0 l 1
 415 0 l 1
 415 780 l 1
34 230 m 0
 34 381 138 470 258 470 c 0
 373 470 454 379 454 230 c 0
 454 81 373 -10 258 -10 c 0
 138 -10 34 79 34 230 c 0
146 230 m 0
 146 138 209 84 284 84 c 0
 346 84 415 136 415 230 c 0
 415 324 346 376 284 376 c 0
 209 376 146 322 146 230 c 0
EndSplineSet
EndChar

StartChar: l
Encoding: 108 108 28
Width: 246
VWidth: 0
Flags: HMW
LayerCount: 2
Fore
SplineSet
69 780 m 1
 177 780 l 1
 177 0 l 1
 69 0 l 1
 69 780 l 1
EndSplineSet
EndChar

StartChar: i
Encoding: 105 105 29
Width: 266
VWidth: 0
Flags: HMW
LayerCount: 2
Fore
SplineSet
65 643 m 0
 65 680 95 709 133 709 c 0
 171 709 201 680 201 643 c 0
 201 606 171 577 133 577 c 0
 95 577 65 606 65 643 c 0
80 460 m 1
 186 460 l 1
 186 0 l 1
 80 0 l 1
 80 460 l 1
EndSplineSet
EndChar

StartChar: r
Encoding: 114 114 30
Width: 370
VWidth: 0
Flags: HMW
LayerCount: 2
Fore
SplineSet
176 460 m 1
 176 0 l 1
 69 0 l 1
 69 460 l 1
 176 460 l 1
313 344 m 1
 293 360 278 369 252 369 c 0
 198 369 176 325 176 259 c 1
 140 280 l 1
 140 389 211 470 281 470 c 0
 314 470 345 460 366 436 c 1
 313 344 l 1
EndSplineSet
EndChar

StartChar: c
Encoding: 99 99 31
Width: 484
VWidth: 0
Flags: HMW
LayerCount: 2
Fore
SplineSet
141 230 m 0
 141 143 203 83 284 83 c 0
 350 83 411 116 434 161 c 1
 434 42 l 1
 402 9 344 -10 279 -10 c 0
 136 -10 30 89 30 230 c 0
 30 371 136 470 279 470 c 0
 344 470 402 450 434 419 c 1
 434 299 l 1
 411 344 348 377 284 377 c 0
 203 377 141 315 141 230 c 0
EndSplineSet
EndChar

StartChar: b
Encoding: 98 98 32
Width: 588
VWidth: 0
Flags: HMW
LayerCount: 2
Fore
SplineSet
174 780 m 1
 174 0 l 1
 65 0 l 1
 65 780 l 1
 174 780 l 1
555 230 m 0
 555 79 451 -10 331 -10 c 0
 216 -10 135 81 135 230 c 0
 135 379 216 470 331 470 c 0
 451 470 555 381 555 230 c 0
443 230 m 0
 443 322 380 376 305 376 c 0
 243 376 174 324 174 230 c 0
 174 136 243 84 305 84 c 0
 380 84 443 138 443 230 c 0
EndSplineSet
EndChar

StartChar: p
Encoding: 112 112 33
Width: 588
VWidth: 0
Flags: HMW
LayerCount: 2
Fore
SplineSet
174 -220 m 1
 65 -220 l 1
 65 460 l 1
 174 460 l 1
 174 -220 l 1
555 230 m 0
 555 76 451 -12 331 -12 c 0
 214 -12 138 81 138 230 c 0
 138 379 214 472 331 472 c 0
 451 472 555 384 555 230 c 0
443 230 m 0
 443 322 380 374 305 374 c 0
 243 374 174 324 174 230 c 0
 174 136 243 86 305 86 c 0
 380 86 443 138 443 230 c 0
EndSplineSet
EndChar

StartChar: q
Encoding: 113 113 34
Width: 588
VWidth: 0
Flags: HMW
LayerCount: 2
Fore
SplineSet
415 -220 m 1
 415 460 l 1
 524 460 l 1
 524 -220 l 1
 415 -220 l 1
34 230 m 0
 34 384 138 472 258 472 c 0
 375 472 451 379 451 230 c 0
 451 81 375 -12 258 -12 c 0
 138 -12 34 76 34 230 c 0
146 230 m 0
 146 138 209 86 284 86 c 0
 346 86 415 136 415 230 c 0
 415 324 346 374 284 374 c 0
 209 374 146 322 146 230 c 0
EndSplineSet
EndChar

StartChar: h
Encoding: 104 104 35
Width: 542
VWidth: 0
Flags: HMW
LayerCount: 2
Fore
SplineSet
177 780 m 1
 177 0 l 1
 69 0 l 1
 69 780 l 1
 177 780 l 1
365 280 m 2
 365 347 339 383 280 383 c 0
 219 383 177 341 177 280 c 1
 151 280 l 1
 151 389 213 473 316 473 c 0
 419 473 474 412 474 295 c 2
 474 0 l 1
 365 0 l 1
 365 280 l 2
EndSplineSet
EndChar

StartChar: n
Encoding: 110 110 36
Width: 545
VWidth: 0
Flags: HMW
LayerCount: 2
Fore
SplineSet
365 280 m 2
 365 347 338 383 280 383 c 0
 219 383 177 342 177 280 c 2
 177 0 l 1
 69 0 l 1
 69 460 l 1
 177 460 l 1
 177 389 l 1
 206 443 253 470 316 470 c 0
 420 470 476 403 476 292 c 2
 476 0 l 1
 365 0 l 1
 365 280 l 2
EndSplineSet
EndChar

StartChar: m
Encoding: 109 109 37
Width: 796
VWidth: 0
Flags: HMW
LayerCount: 2
Fore
SplineSet
727 292 m 2
 727 0 l 1
 619 0 l 1
 619 280 l 2
 619 349 595 383 543 383 c 0
 487 383 451 346 451 280 c 2
 451 0 l 1
 342 0 l 1
 342 280 l 2
 342 349 318 383 266 383 c 0
 210 383 175 346 175 280 c 2
 175 0 l 1
 69 0 l 1
 69 460 l 1
 175 460 l 1
 175 393 l 1
 202 444 245 470 304 470 c 0
 371 470 417 441 437 388 c 1
 469 441 519 470 581 470 c 0
 680 470 727 405 727 292 c 2
EndSplineSet
EndChar

StartChar: k
Encoding: 107 107 38
Width: 494
VWidth: 0
Flags: HMW
LayerCount: 2
Fore
SplineSet
65 780 m 1
 171 780 l 1
 171 0 l 1
 65 0 l 1
 65 780 l 1
340 460 m 1
 472 460 l 1
 274 270 l 1
 492 0 l 1
 361 0 l 1
 142 270 l 1
 340 460 l 1
EndSplineSet
EndChar

StartChar: u
Encoding: 117 117 39
Width: 545
VWidth: 0
Flags: HMW
LayerCount: 2
Fore
SplineSet
180 180 m 2
 180 115 207 77 265 77 c 0
 326 77 368 118 368 180 c 2
 368 460 l 1
 476 460 l 1
 476 0 l 1
 368 0 l 1
 368 71 l 1
 339 18 293 -10 229 -10 c 0
 126 -10 69 58 69 168 c 2
 69 460 l 1
 180 460 l 1
 180 180 l 2
EndSplineSet
EndChar

StartChar: e
Encoding: 101 101 40
Width: 538
VWidth: 0
Flags: HMW
LayerCount: 2
Fore
SplineSet
269 -10 m 0
 127 -10 34 86 34 230 c 0
 34 375 128 470 274 470 c 0
 419 470 504 382 504 235 c 0
 504 223 503 210 503 205 c 1
 98 205 l 1
 98 280 l 1
 410 280 l 1
 376 234 l 1
 381 242 387 258 387 267 c 0
 387 340 341 388 273 388 c 0
 191 388 145 334 144 234 c 0
 143 136 190 79 274 79 c 0
 332 79 376 102 406 152 c 1
 500 115 l 1
 452 32 375 -10 269 -10 c 0
EndSplineSet
EndChar

StartChar: g
Encoding: 103 103 41
Width: 586
VWidth: 0
Flags: HMW
LayerCount: 2
Fore
SplineSet
43 -31 m 1
 151 -31 l 1
 153 -93 202 -140 280 -140 c 0
 348 -140 415 -94 415 10 c 2
 415 460 l 1
 521 460 l 1
 521 10 l 2
 521 -157 408 -234 283 -234 c 0
 133 -234 47 -151 43 -31 c 1
34 232 m 0
 34 383 138 470 258 470 c 0
 373 470 454 381 454 232 c 0
 454 83 373 -5 258 -5 c 0
 138 -5 34 81 34 232 c 0
146 232 m 0
 146 140 209 89 284 89 c 0
 346 89 415 138 415 232 c 0
 415 326 346 376 284 376 c 0
 209 376 146 324 146 232 c 0
EndSplineSet
EndChar

StartChar: f
Encoding: 102 102 42
Width: 309
VWidth: 0
Flags: HMW
LayerCount: 2
Fore
SplineSet
31 460 m 1
 295 460 l 1
 295 365 l 1
 31 365 l 1
 31 460 l 1
284 664 m 1
 270 685 252 690 235 690 c 0
 205 690 187 667 187 609 c 2
 187 0 l 1
 81 0 l 1
 81 630 l 2
 81 737 134 792 230 792 c 0
 283 792 317 768 334 748 c 1
 284 664 l 1
EndSplineSet
EndChar

StartChar: s
Encoding: 115 115 43
Width: 424
VWidth: 0
Flags: HMW
LayerCount: 2
Fore
SplineSet
90 151 m 1
 135 102 179 75 226 75 c 0
 265 75 288 94 288 124 c 0
 288 164 246 183 185 205 c 0
 122 228 54 261 54 345 c 0
 54 428 127 470 212 470 c 0
 287 470 352 435 390 389 c 1
 330 325 l 1
 300 360 254 386 209 386 c 0
 178 386 156 372 156 347 c 0
 156 312 199 296 256 274 c 0
 332 243 397 213 397 130 c 0
 397 43 333 -14 233 -14 c 0
 138 -14 67 35 27 88 c 1
 90 151 l 1
EndSplineSet
EndChar

StartChar: y
Encoding: 121 121 44
Width: 472
VWidth: 0
Flags: HMW
LayerCount: 2
Fore
SplineSet
476 460 m 1
 176 -220 l 1
 61 -220 l 1
 182 54 l 1
 -4 460 l 1
 120 460 l 1
 267 96 l 1
 216 99 l 1
 360 460 l 1
 476 460 l 1
EndSplineSet
EndChar

StartChar: w
Encoding: 119 119 45
Width: 712
VWidth: 0
Flags: HMW
LayerCount: 2
Fore
SplineSet
-0 460 m 1
 117 460 l 1
 225 187 l 1
 353 495 l 1
 487 185 l 1
 595 460 l 1
 713 460 l 1
 497 -33 l 1
 353 278 l 1
 215 -33 l 1
 -0 460 l 1
EndSplineSet
EndChar

StartChar: v
Encoding: 118 118 46
Width: 474
VWidth: 0
Flags: HMW
LayerCount: 2
Fore
SplineSet
-1 460 m 1
 118 460 l 1
 238 163 l 1
 358 460 l 1
 476 460 l 1
 238 -43 l 1
 -1 460 l 1
EndSplineSet
EndChar

StartChar: x
Encoding: 120 120 47
Width: 464
VWidth: 0
Flags: HMW
LayerCount: 2
Fore
SplineSet
334 460 m 1
 455 460 l 1
 290 237 l 1
 465 0 l 1
 344 0 l 1
 234 158 l 1
 124 0 l 1
 0 0 l 1
 176 237 l 1
 10 460 l 1
 134 460 l 1
 234 316 l 1
 334 460 l 1
EndSplineSet
EndChar

StartChar: z
Encoding: 122 122 48
Width: 484
VWidth: 0
Flags: HMW
LayerCount: 2
Fore
SplineSet
282 360 m 1
 50 360 l 1
 50 460 l 1
 470 460 l 1
 207 100 l 1
 445 100 l 1
 445 0 l 1
 15 0 l 1
 282 360 l 1
EndSplineSet
EndChar

StartChar: j
Encoding: 106 106 49
Width: 258
VWidth: 0
Flags: HMW
LayerCount: 2
Fore
SplineSet
55 643 m 0
 55 680 85 708 123 708 c 0
 161 708 190 680 190 643 c 0
 190 606 161 578 123 578 c 0
 85 578 55 606 55 643 c 0
-23 -99 m 1
 -12 -115 3 -125 24 -125 c 0
 57 -125 72 -101 72 -44 c 2
 72 460 l 1
 179 460 l 1
 179 -65 l 2
 179 -166 125 -228 29 -228 c 0
 -22 -228 -53 -208 -74 -183 c 1
 -23 -99 l 1
EndSplineSet
EndChar

StartChar: P
Encoding: 80 80 50
Width: 578
VWidth: 0
Flags: HMW
LayerCount: 2
Fore
SplineSet
78 700 m 1
 196 700 l 1
 196 0 l 1
 78 0 l 1
 78 700 l 1
148 596 m 1
 148 700 l 1
 289 700 l 2
 442 700 540 616 540 482 c 0
 540 348 442 265 289 265 c 2
 148 265 l 1
 148 369 l 1
 289 369 l 2
 370 369 424 407 424 482 c 0
 424 557 370 596 289 596 c 2
 148 596 l 1
EndSplineSet
EndChar

StartChar: U
Encoding: 85 85 51
Width: 656
VWidth: 0
Flags: HMW
LayerCount: 2
Fore
SplineSet
73 700 m 1
 191 700 l 1
 191 235 l 2
 191 149 238 91 328 91 c 0
 418 91 465 149 465 235 c 2
 465 700 l 1
 583 700 l 1
 583 230 l 2
 583 76 478 -18 328 -18 c 0
 178 -18 73 76 73 230 c 2
 73 700 l 1
EndSplineSet
EndChar

StartChar: S
Encoding: 83 83 52
Width: 578
VWidth: 0
Flags: HMW
LayerCount: 2
Fore
SplineSet
124 226 m 1
 169 145 225 91 304 91 c 0
 369 91 412 128 412 184 c 0
 412 261 351 286 263 319 c 0
 193 344 77 393 77 524 c 0
 77 636 171 712 297 712 c 0
 421 712 496 636 532 563 c 1
 436 509 l 1
 407 560 366 607 295 607 c 0
 230 607 200 571 200 532 c 0
 200 477 246 443 359 404 c 0
 443 375 537 316 537 194 c 0
 537 64 423 -15 304 -15 c 0
 181 -15 81 67 36 164 c 1
 124 226 l 1
EndSplineSet
EndChar

StartChar: at
Encoding: 64 64 53
Width: 770
VWidth: 0
Flags: HMW
LayerCount: 2
Fore
SplineSet
286 320 m 0
 286 269 308 239 353 239 c 0
 397 239 453 277 453 368 c 0
 453 420 423 449 382 449 c 0
 333 449 286 396 286 320 c 0
192 315 m 0
 192 454 287 530 370 530 c 0
 450 530 493 451 493 370 c 0
 493 231 418 158 328 158 c 0
 252 158 192 216 192 315 c 0
29 320 m 0
 29 541 189 715 415 715 c 0
 629 715 741 551 741 390 c 0
 741 213 640 148 557 148 c 0
 494 148 448 202 458 268 c 1
 449 280 l 1
 480 520 l 1
 572 520 l 1
 537 297 l 2
 536 290 535 278 535 270 c 0
 535 246 540 226 568 226 c 0
 596 226 655 266 655 390 c 0
 655 521 575 636 415 636 c 0
 232 636 115 501 115 320 c 0
 115 162 210 63 370 63 c 0
 440 63 501 74 564 111 c 1
 600 41 l 1
 540 6 474 -16 365 -16 c 0
 146 -16 29 121 29 320 c 0
EndSplineSet
EndChar

StartChar: period
Encoding: 46 46 54
Width: 308
VWidth: 0
Flags: HMW
LayerCount: 2
Fore
SplineSet
84 51 m 0
 84 89 114 121 154 121 c 0
 194 121 225 89 225 51 c 0
 225 13 194 -19 154 -19 c 0
 114 -19 84 13 84 51 c 0
EndSplineSet
EndChar

StartChar: comma
Encoding: 44 44 55
Width: 314
VWidth: 0
Flags: HMW
LayerCount: 2
Fore
SplineSet
137 110 m 1
 246 79 l 1
 129 -171 l 1
 49 -149 l 1
 137 110 l 1
EndSplineSet
EndChar

StartChar: colon
Encoding: 58 58 56
Width: 308
VWidth: 0
Flags: HMW
LayerCount: 2
Fore
SplineSet
84 51 m 0
 84 89 114 121 154 121 c 0
 194 121 225 89 225 51 c 0
 225 13 194 -19 154 -19 c 0
 114 -19 84 13 84 51 c 0
84 429 m 0
 84 467 114 499 154 499 c 0
 194 499 225 467 225 429 c 0
 225 391 194 359 154 359 c 0
 114 359 84 391 84 429 c 0
EndSplineSet
EndChar

StartChar: semicolon
Encoding: 59 59 57
Width: 355
VWidth: 0
Flags: HMW
LayerCount: 2
Fore
SplineSet
123 426 m 0
 123 464 153 496 193 496 c 0
 233 496 264 464 264 426 c 0
 264 388 233 356 193 356 c 0
 153 356 123 388 123 426 c 0
146 110 m 1
 254 79 l 1
 138 -171 l 1
 58 -149 l 1
 146 110 l 1
EndSplineSet
EndChar

StartChar: quotedbl
Encoding: 34 34 58
Width: 486
VWidth: 0
Flags: HMW
LayerCount: 2
Fore
SplineSet
120 700 m 1
 241 700 l 1
 145 392 l 1
 72 392 l 1
 120 700 l 1
312 700 m 1
 434 700 l 1
 337 392 l 1
 265 392 l 1
 312 700 l 1
EndSplineSet
EndChar

StartChar: exclam
Encoding: 33 33 59
Width: 317
VWidth: 0
Flags: HMW
LayerCount: 2
Fore
SplineSet
91 700 m 1
 226 700 l 1
 201 212 l 1
 116 212 l 1
 91 700 l 1
88 49 m 0
 88 87 119 116 159 116 c 0
 199 116 229 87 229 49 c 0
 229 11 199 -19 159 -19 c 0
 119 -19 88 11 88 49 c 0
EndSplineSet
EndChar

StartChar: quotesingle
Encoding: 39 39 60
Width: 293
VWidth: 0
Flags: HMW
LayerCount: 2
Fore
SplineSet
120 700 m 1
 241 700 l 1
 145 392 l 1
 72 392 l 1
 120 700 l 1
EndSplineSet
EndChar

StartChar: numbersign
Encoding: 35 35 61
Width: 629
VWidth: 0
Flags: HMW
LayerCount: 2
Fore
SplineSet
75 429 m 1
 75 516 l 1
 595 516 l 1
 595 429 l 1
 449 429 l 0
 429 431 l 0
 232 431 l 0
 213 429 l 0
 75 429 l 1
35 189 m 1
 35 276 l 1
 170 276 l 0
 192 274 l 0
 404 274 l 0
 428 276 l 0
 555 276 l 1
 555 189 l 1
 35 189 l 1
463 700 m 1
 560 700 l 1
 390 0 l 1
 293 0 l 1
 347 226 l 0
 355 248 l 0
 407 460 l 0
 409 482 l 0
 463 700 l 1
240 700 m 1
 338 700 l 1
 285 484 l 0
 277 462 l 0
 225 247 l 0
 223 226 l 0
 168 0 l 1
 70 0 l 1
 240 700 l 1
EndSplineSet
EndChar

StartChar: hyphen
Encoding: 45 45 62
Width: 214
VWidth: 0
Flags: HMW
LayerCount: 2
Fore
SplineSet
5 189 m 1
 5 286 l 1
 210 286 l 1
 210 189 l 1
 5 189 l 1
EndSplineSet
EndChar

StartChar: dollar
Encoding: 36 36 63
Width: 596
VWidth: 0
Flags: HMW
LayerCount: 2
Fore
SplineSet
260 818 m 1
 354 818 l 1
 352 656 l 1
 263 656 l 1
 260 818 l 1
263 54 m 1
 351 54 l 1
 354 -112 l 1
 260 -112 l 1
 263 54 l 1
444 504 m 1
 414 562 374 611 307 611 c 0
 237 611 207 580 207 529 c 0
 207 460 283 435 368 403 c 0
 450 373 545 317 545 192 c 0
 545 68 459 -10 310 -10 c 0
 190 -10 90 70 46 177 c 1
 137 236 l 1
 181 145 233 92 315 92 c 0
 387 92 421 127 421 187 c 0
 421 263 346 294 265 324 c 0
 195 349 84 401 84 532 c 0
 84 630 178 710 304 710 c 0
 429 710 502 634 536 561 c 1
 444 504 l 1
EndSplineSet
EndChar

StartChar: bar
Encoding: 124 124 64
Width: 305
VWidth: 0
Flags: HMW
LayerCount: 2
Fore
SplineSet
100 785 m 1
 206 785 l 1
 206 -215 l 1
 100 -215 l 1
 100 785 l 1
EndSplineSet
EndChar

StartChar: zero
Encoding: 48 48 65
Width: 624
VWidth: 0
Flags: HMW
LayerCount: 2
Fore
SplineSet
156 350 m 0
 156 199 216 95 312 95 c 0
 408 95 469 199 469 350 c 0
 469 501 408 605 312 605 c 0
 216 605 156 501 156 350 c 0
40 350 m 0
 40 567 150 711 312 711 c 0
 476 711 585 567 585 350 c 0
 585 133 476 -11 312 -11 c 0
 150 -11 40 133 40 350 c 0
EndSplineSet
Substitution2: "Tabular Numbers lookup" uniFF10
EndChar

StartChar: one
Encoding: 49 49 66
Width: 473
VWidth: 0
Flags: HMW
LayerCount: 2
Fore
SplineSet
75 536 m 1
 75 648 l 1
 354 711 l 1
 354 0 l 1
 237 0 l 1
 237 581 l 1
 75 536 l 1
EndSplineSet
Substitution2: "Tabular Numbers lookup" uniFF11
EndChar

StartChar: two
Encoding: 50 50 67
Width: 603
VWidth: 0
Flags: HMW
LayerCount: 2
Fore
SplineSet
20 0 m 1
 343 341 l 2
 393 394 423 440 423 496 c 0
 423 551 381 606 304 606 c 0
 224 606 175 546 175 452 c 1
 58 452 l 1
 58 601 146 712 306 712 c 0
 468 712 545 595 545 502 c 0
 545 429 506 359 449 305 c 2
 251 110 l 1
 554 110 l 1
 554 0 l 1
 20 0 l 1
EndSplineSet
Substitution2: "Tabular Numbers lookup" uniFF12
EndChar

StartChar: four
Encoding: 52 52 68
Width: 629
VWidth: 0
Flags: HMW
LayerCount: 2
Fore
SplineSet
18 134 m 1
 413 700 l 1
 484 700 l 1
 484 0 l 1
 363 0 l 1
 363 176 l 1
 370 187 l 1
 370 489 l 1
 191 227 l 1
 434 227 l 1
 451 236 l 1
 594 236 l 1
 594 134 l 1
 18 134 l 1
EndSplineSet
Substitution2: "Tabular Numbers lookup" uniFF14
EndChar

StartChar: slash
Encoding: 47 47 69
Width: 552
VWidth: 0
Flags: HMW
LayerCount: 2
Fore
SplineSet
431 700 m 1
 538 700 l 1
 124 -150 l 1
 15 -150 l 1
 431 700 l 1
EndSplineSet
EndChar

StartChar: backslash
Encoding: 92 92 70
Width: 527
VWidth: 0
Flags: HMW
LayerCount: 2
Fore
SplineSet
15 700 m 1
 125 700 l 1
 512 0 l 1
 403 0 l 1
 15 700 l 1
EndSplineSet
EndChar

StartChar: eight
Encoding: 56 56 71
Width: 578
VWidth: 0
Flags: HMW
LayerCount: 2
Fore
SplineSet
79 531 m 0
 79 638 171 712 289 712 c 0
 407 712 500 638 500 531 c 0
 500 414 404 350 289 350 c 0
 174 350 79 414 79 531 c 0
191 519 m 0
 191 461 235 420 289 420 c 0
 343 420 387 461 387 519 c 0
 387 577 346 619 289 619 c 0
 232 619 191 577 191 519 c 0
54 190 m 0
 54 327 174 392 289 392 c 0
 404 392 525 327 525 190 c 0
 525 73 419 -12 289 -12 c 0
 159 -12 54 73 54 190 c 0
170 206 m 0
 170 130 227 87 289 87 c 0
 351 87 409 130 409 206 c 0
 409 272 351 324 289 324 c 0
 227 324 170 272 170 206 c 0
EndSplineSet
Substitution2: "Tabular Numbers lookup" uniFF18
EndChar

StartChar: nine
Encoding: 57 57 72
Width: 613
VWidth: 0
Flags: HMW
LayerCount: 2
Fore
SplineSet
448 464 m 0
 448 550 388 609 307 609 c 0
 226 609 165 550 165 464 c 0
 165 378 226 317 307 317 c 0
 388 317 448 378 448 464 c 0
282 1 m 1
 132 1 l 1
 354 276 l 1
 372 279 l 1
 341 245 308 237 261 237 c 0
 151 237 50 330 50 464 c 0
 50 619 163 712 307 712 c 0
 451 712 564 619 564 464 c 0
 564 399 539 344 504 299 c 2
 282 1 l 1
EndSplineSet
Substitution2: "Tabular Numbers lookup" uniFF19
EndChar

StartChar: three
Encoding: 51 51 73
Width: 576
VWidth: 0
Flags: HMW
LayerCount: 2
Fore
SplineSet
262 343 m 1
 262 406 l 1
 347 406 398 456 398 516 c 0
 398 572 366 611 303 611 c 0
 243 611 196 570 196 514 c 1
 85 514 l 1
 85 629 173 711 302 711 c 0
 437 711 517 625 517 522 c 0
 517 414 409 343 262 343 c 1
297 -12 m 0
 148 -12 55 85 55 200 c 1
 174 200 l 1
 174 133 228 90 299 90 c 0
 370 90 418 130 418 200 c 0
 418 275 357 317 262 317 c 1
 262 385 l 1
 417 385 537 327 537 187 c 0
 537 67 441 -12 297 -12 c 0
EndSplineSet
Substitution2: "Tabular Numbers lookup" uniFF13
EndChar

StartChar: five
Encoding: 53 53 74
Width: 596
VWidth: 0
Flags: HMW
LayerCount: 2
Fore
SplineSet
556 228 m 0
 556 67 432 -11 297 -11 c 0
 168 -11 89 45 35 113 c 1
 104 198 l 1
 145 143 214 99 281 99 c 0
 375 99 430 150 430 235 c 0
 430 320 362 370 281 370 c 0
 219 370 166 359 95 315 c 1
 190 700 l 1
 550 700 l 1
 550 596 l 1
 279 596 l 1
 235 436 l 1
 270 453 307 461 346 461 c 0
 462 461 556 369 556 228 c 0
EndSplineSet
Substitution2: "Tabular Numbers lookup" uniFF15
EndChar

StartChar: six
Encoding: 54 54 75
Width: 613
VWidth: 0
Flags: HMW
LayerCount: 2
Fore
SplineSet
165 236 m 0
 165 150 226 91 307 91 c 0
 388 91 448 150 448 236 c 0
 448 322 388 383 307 383 c 0
 226 383 165 322 165 236 c 0
331 699 m 1
 481 699 l 1
 259 424 l 1
 242 421 l 1
 273 455 306 463 353 463 c 0
 463 463 564 370 564 236 c 0
 564 81 451 -12 307 -12 c 0
 163 -12 50 81 50 236 c 0
 50 301 74 356 109 401 c 2
 331 699 l 1
EndSplineSet
Substitution2: "Tabular Numbers lookup" uniFF16
EndChar

StartChar: seven
Encoding: 55 55 76
Width: 556
VWidth: 0
Flags: HMW
LayerCount: 2
Fore
SplineSet
30 589 m 1
 30 700 l 1
 552 700 l 1
 216 0 l 1
 90 0 l 1
 377 589 l 1
 30 589 l 1
EndSplineSet
Substitution2: "Tabular Numbers lookup" uniFF17
EndChar

StartChar: plus
Encoding: 43 43 77
Width: 638
VWidth: 0
Flags: HMW
LayerCount: 2
Fore
SplineSet
65 207 m 1
 65 314 l 1
 574 314 l 1
 574 207 l 1
 65 207 l 1
263 516 m 1
 376 516 l 1
 376 5 l 1
 263 5 l 1
 263 516 l 1
EndSplineSet
EndChar

StartChar: equal
Encoding: 61 61 78
Width: 619
VWidth: 0
Flags: HMW
LayerCount: 2
Fore
SplineSet
61 118 m 1
 61 215 l 1
 558 215 l 1
 558 118 l 1
 61 118 l 1
61 290 m 1
 61 387 l 1
 558 387 l 1
 558 290 l 1
 61 290 l 1
EndSplineSet
EndChar

StartChar: percent
Encoding: 37 37 79
Width: 818
VWidth: 0
Flags: HMW
LayerCount: 2
Fore
SplineSet
30 544 m 0
 30 638 101 714 201 714 c 0
 301 714 371 638 371 544 c 0
 371 450 301 374 201 374 c 0
 101 374 30 450 30 544 c 0
122 544 m 0
 122 499 153 460 201 460 c 0
 249 460 278 499 278 544 c 0
 278 589 249 627 201 627 c 0
 153 627 122 589 122 544 c 0
448 156 m 0
 448 250 518 326 618 326 c 0
 718 326 788 250 788 156 c 0
 788 62 718 -14 618 -14 c 0
 518 -14 448 62 448 156 c 0
540 156 m 0
 540 111 570 73 618 73 c 0
 666 73 696 111 696 156 c 0
 696 201 666 240 618 240 c 0
 570 240 540 201 540 156 c 0
598 700 m 1
 706 700 l 1
 220 0 l 1
 113 0 l 1
 598 700 l 1
EndSplineSet
EndChar

StartChar: ampersand
Encoding: 38 38 80
Width: 705
VWidth: 0
Flags: HMW
LayerCount: 2
Fore
SplineSet
223 379 m 2
 184 422 121 476 121 551 c 0
 121 643 196 713 310 713 c 0
 425 713 491 636 491 552 c 0
 491 475 435 423 334 360 c 0
 262 316 155 285 155 193 c 0
 155 128 209 84 284 84 c 0
 406 84 515 198 604 326 c 1
 682 271 l 1
 584 136 460 -11 273 -11 c 0
 150 -11 40 64 40 185 c 0
 40 337 200 382 269 418 c 0
 344 458 387 504 387 546 c 0
 387 589 358 622 309 622 c 0
 258 622 230 590 230 547 c 0
 230 503 271 466 317 415 c 2
 687 0 l 1
 560 0 l 1
 223 379 l 2
EndSplineSet
EndChar

StartChar: question
Encoding: 63 63 81
Width: 585
VWidth: 0
Flags: HMW
LayerCount: 2
Fore
SplineSet
418 500 m 0
 418 575 367 617 285 617 c 0
 220 617 168 585 135 533 c 1
 55 591 l 1
 111 666 176 714 295 714 c 0
 422 714 527 627 527 500 c 0
 527 382 424 299 315 288 c 1
 308 182 l 1
 224 182 l 1
 204 359 l 1
 232 359 l 2
 352 359 418 434 418 500 c 0
197 48 m 0
 197 84 228 114 268 114 c 0
 308 114 338 84 338 48 c 0
 338 12 308 -19 268 -19 c 0
 228 -19 197 12 197 48 c 0
EndSplineSet
EndChar

StartChar: parenleft
Encoding: 40 40 82
Width: 322
VWidth: 0
Flags: HMW
LayerCount: 2
Fore
SplineSet
199 780 m 1
 299 780 l 1
 229 630 195 460 195 290 c 0
 195 120 229 -50 299 -200 c 1
 199 -200 l 1
 119 -50 81 120 81 290 c 0
 81 460 119 630 199 780 c 1
EndSplineSet
EndChar

StartChar: parenright
Encoding: 41 41 83
Width: 322
VWidth: 0
Flags: HMW
LayerCount: 2
Fore
SplineSet
124 -200 m 1
 24 -200 l 1
 94 -50 128 120 128 290 c 0
 128 460 94 630 24 780 c 1
 124 780 l 1
 204 630 241 460 241 290 c 0
 241 120 204 -50 124 -200 c 1
EndSplineSet
EndChar

StartChar: asterisk
Encoding: 42 42 84
Width: 592
VWidth: 0
Flags: HMW
LayerCount: 2
Fore
SplineSet
482 601 m 1
 512 508 l 1
 306 460 l 1
 286 517 l 1
 482 601 l 1
460 347 m 1
 380 289 l 1
 272 471 l 1
 320 506 l 1
 460 347 l 1
212 289 m 1
 132 347 l 1
 272 506 l 1
 320 471 l 1
 212 289 l 1
80 508 m 1
 110 601 l 1
 306 517 l 1
 286 460 l 1
 80 508 l 1
247 700 m 1
 345 700 l 1
 326 489 l 1
 266 489 l 1
 247 700 l 1
EndSplineSet
EndChar

StartChar: less
Encoding: 60 60 85
Width: 640
VWidth: 0
Flags: HMW
LayerCount: 2
Fore
SplineSet
231 264 m 1
 575 116 l 1
 575 9 l 1
 65 226 l 1
 65 294 l 1
 575 511 l 1
 575 404 l 1
 231 264 l 1
EndSplineSet
EndChar

StartChar: greater
Encoding: 62 62 86
Width: 640
VWidth: 0
Flags: HMW
LayerCount: 2
Fore
SplineSet
409 256 m 1
 65 404 l 1
 65 511 l 1
 575 294 l 1
 575 226 l 1
 65 9 l 1
 65 116 l 1
 409 256 l 1
EndSplineSet
EndChar

StartChar: bracketleft
Encoding: 91 91 87
Width: 324
VWidth: 0
Flags: HMW
LayerCount: 2
Fore
SplineSet
204 683 m 1
 204 -123 l 1
 305 -123 l 1
 305 -220 l 1
 96 -220 l 1
 96 780 l 1
 305 780 l 1
 305 683 l 1
 204 683 l 1
EndSplineSet
EndChar

StartChar: bracketright
Encoding: 93 93 88
Width: 324
VWidth: 0
Flags: HMW
LayerCount: 2
Fore
SplineSet
121 -123 m 1
 121 683 l 1
 20 683 l 1
 20 780 l 1
 229 780 l 1
 229 -220 l 1
 20 -220 l 1
 20 -123 l 1
 121 -123 l 1
EndSplineSet
EndChar

StartChar: asciicircum
Encoding: 94 94 89
Width: 510
VWidth: 0
Flags: HMW
LayerCount: 2
Fore
SplineSet
255 605 m 1
 157 455 l 1
 55 455 l 1
 225 710 l 1
 285 710 l 1
 455 455 l 1
 353 455 l 1
 255 605 l 1
EndSplineSet
EndChar

StartChar: underscore
Encoding: 95 95 90
Width: 512
VWidth: 0
Flags: HMW
LayerCount: 2
Fore
SplineSet
0 -141 m 1
 0 -70 l 1
 512 -70 l 1
 512 -141 l 1
 0 -141 l 1
EndSplineSet
EndChar

StartChar: grave
Encoding: 96 96 91
Width: 375
VWidth: 0
Flags: HMW
LayerCount: 2
Fore
SplineSet
66 658 m 1
 158 702 l 1
 308 542 l 1
 246 508 l 1
 66 658 l 1
EndSplineSet
EndChar

StartChar: braceleft
Encoding: 123 123 92
Width: 345
VWidth: 0
Flags: HMW
LayerCount: 2
Fore
SplineSet
213 640 m 2
 213 490 l 2
 213 401 208 280 87 280 c 1
 87 300 l 1
 208 300 213 179 213 90 c 2
 213 -60 l 2
 213 -86 231 -110 261 -110 c 2
 296 -110 l 1
 296 -200 l 1
 223 -200 l 2
 164 -200 98 -159 98 -60 c 2
 98 140 l 2
 98 216 80 240 45 250 c 1
 45 330 l 1
 80 340 98 364 98 440 c 2
 98 640 l 2
 98 739 164 780 223 780 c 2
 296 780 l 1
 296 690 l 1
 261 690 l 2
 231 690 213 666 213 640 c 2
EndSplineSet
EndChar

StartChar: braceright
Encoding: 125 125 93
Width: 345
VWidth: 0
Flags: HMW
LayerCount: 2
Fore
SplineSet
140 -60 m 2
 140 90 l 2
 140 179 144 300 265 300 c 1
 265 280 l 1
 144 280 140 401 140 490 c 2
 140 640 l 2
 140 666 122 690 92 690 c 2
 57 690 l 1
 57 780 l 1
 129 780 l 2
 188 780 255 739 255 640 c 2
 255 440 l 2
 255 364 273 340 308 330 c 1
 308 250 l 1
 273 240 255 216 255 140 c 2
 255 -60 l 2
 255 -159 188 -200 129 -200 c 2
 57 -200 l 1
 57 -110 l 1
 92 -110 l 2
 122 -110 140 -86 140 -60 c 2
EndSplineSet
EndChar

StartChar: asciitilde
Encoding: 126 126 94
Width: 575
VWidth: 0
Flags: HMW
LayerCount: 2
Fore
SplineSet
148 171 m 1
 56 176 l 1
 54 183 53 191 53 200 c 0
 53 226 59 254 79 280 c 0
 105 315 142 335 194 335 c 0
 235 335 274 318 318 286 c 0
 348 264 372 253 390 253 c 0
 416 253 428 270 428 298 c 0
 428 307 427 318 423 328 c 1
 518 323 l 1
 520 315 522 305 522 295 c 0
 522 270 517 239 498 214 c 0
 472 180 440 164 396 164 c 0
 360 164 323 181 278 213 c 0
 248 235 218 247 193 247 c 0
 159 247 143 226 143 196 c 0
 143 187 145 179 148 171 c 1
EndSplineSet
EndChar

StartChar: exclamdown
Encoding: 161 161 95
Width: 317
VWidth: 0
Flags: HMW
LayerCount: 2
Fore
SplineSet
226 -239 m 1
 91 -239 l 1
 116 249 l 1
 201 249 l 1
 226 -239 l 1
229 413 m 0
 229 375 199 345 159 345 c 0
 119 345 88 375 88 413 c 0
 88 451 119 480 159 480 c 0
 199 480 229 451 229 413 c 0
EndSplineSet
EndChar

StartChar: cent
Encoding: 162 162 96
Width: 580
VWidth: 0
Flags: HMW
LayerCount: 2
Fore
SplineSet
262 38 m 1
 345 38 l 1
 349 -112 l 1
 259 -112 l 1
 262 38 l 1
179 230 m 0
 179 142 243 83 323 83 c 0
 392 83 450 118 473 161 c 1
 473 41 l 1
 441 8 381 -10 318 -10 c 0
 175 -10 69 89 69 230 c 0
 69 371 175 470 318 470 c 0
 381 470 441 451 473 419 c 1
 473 299 l 1
 450 342 392 377 323 377 c 0
 243 377 179 316 179 230 c 0
259 578 m 1
 349 578 l 1
 345 428 l 1
 262 428 l 1
 259 578 l 1
EndSplineSet
EndChar

StartChar: sterling
Encoding: 163 163 97
Width: 592
VWidth: 0
Flags: HMW
LayerCount: 2
Fore
SplineSet
67 370 m 1
 435 370 l 1
 435 285 l 1
 67 285 l 1
 67 370 l 1
444 474 m 1
 440 539 407 606 326 606 c 0
 271 606 219 578 219 510 c 0
 219 406 313 378 313 266 c 0
 313 160 221 70 147 50 c 1
 169 104 l 1
 526 104 l 1
 526 0 l 1
 59 0 l 1
 157 102 206 171 206 264 c 0
 206 358 104 391 104 519 c 0
 104 638 199 710 323 710 c 0
 464 710 536 594 541 512 c 1
 444 474 l 1
EndSplineSet
EndChar

StartChar: currency
Encoding: 164 164 98
Width: 578
VWidth: 0
Flags: HMW
LayerCount: 2
Fore
SplineSet
31 503 m 1
 87 558 l 1
 182 461 l 1
 128 408 l 1
 31 503 l 1
87 42 m 1
 31 97 l 1
 128 192 l 1
 182 139 l 1
 87 42 l 1
451 408 m 1
 396 461 l 1
 493 558 l 1
 546 503 l 1
 451 408 l 1
396 139 m 1
 451 192 l 1
 546 97 l 1
 493 42 l 1
 396 139 l 1
52 300 m 0
 52 439 155 540 290 540 c 0
 425 540 528 439 528 300 c 0
 528 161 425 60 290 60 c 0
 155 60 52 161 52 300 c 0
155 300 m 0
 155 218 212 160 290 160 c 0
 368 160 424 218 424 300 c 0
 424 382 368 440 290 440 c 0
 212 440 155 382 155 300 c 0
EndSplineSet
EndChar

StartChar: yen
Encoding: 165 165 99
Width: 615
VWidth: 0
Flags: HMW
LayerCount: 2
Fore
SplineSet
45 280 m 1
 45 365 l 1
 566 365 l 1
 566 280 l 1
 45 280 l 1
45 130 m 1
 45 215 l 1
 566 215 l 1
 566 130 l 1
 45 130 l 1
471 700 m 1
 605 700 l 1
 369 298 l 1
 369 0 l 1
 248 0 l 1
 248 295 l 1
 10 700 l 1
 145 700 l 1
 308 400 l 1
 471 700 l 1
EndSplineSet
EndChar

StartChar: brokenbar
Encoding: 166 166 100
Width: 305
VWidth: 0
Flags: HMW
LayerCount: 2
Fore
SplineSet
100 695 m 1
 206 695 l 1
 206 445 l 1
 100 445 l 1
 100 695 l 1
206 255 m 1
 206 5 l 1
 100 5 l 1
 100 255 l 1
 206 255 l 1
EndSplineSet
EndChar

StartChar: section
Encoding: 167 167 101
Width: 475
VWidth: 0
Flags: HMW
LayerCount: 2
Fore
SplineSet
346 567 m 1
 323 602 278 620 243 620 c 0
 205 620 181 607 181 581 c 0
 181 549 236 530 288 511 c 0
 357 486 419 442 419 373 c 0
 419 272 336 236 233 236 c 1
 233 273 l 1
 278 275 314 315 314 355 c 0
 314 407 256 426 203 447 c 0
 142 471 75 506 75 585 c 0
 75 669 159 716 239 716 c 0
 315 716 391 678 413 631 c 1
 346 567 l 1
109 166 m 1
 136 112 191 80 240 80 c 0
 285 80 310 97 310 129 c 0
 310 171 263 188 209 207 c 0
 141 230 69 272 69 349 c 0
 69 433 144 480 258 480 c 1
 258 449 l 1
 206 431 174 410 174 369 c 0
 174 305 243 292 294 271 c 0
 359 244 421 202 421 130 c 0
 421 29 339 -15 240 -15 c 0
 145 -15 66 37 40 104 c 1
 109 166 l 1
EndSplineSet
EndChar

StartChar: dieresis
Encoding: 168 168 102
Width: 486
VWidth: 0
Flags: HMW
LayerCount: 2
Fore
SplineSet
284 649 m 0
 284 686 314 715 352 715 c 0
 390 715 420 686 420 649 c 0
 420 612 390 583 352 583 c 0
 314 583 284 612 284 649 c 0
66 649 m 0
 66 686 97 715 135 715 c 0
 173 715 203 686 203 649 c 0
 203 612 173 583 135 583 c 0
 97 583 66 612 66 649 c 0
EndSplineSet
EndChar

StartChar: copyright
Encoding: 169 169 103
Width: 800
VWidth: 0
Flags: HMW
LayerCount: 2
Fore
SplineSet
259 350 m 0
 259 260 322 202 403 202 c 0
 462 202 506 227 534 261 c 1
 534 177 l 1
 499 148 462 132 401 132 c 0
 277 132 182 223 182 350 c 0
 182 477 277 568 401 568 c 0
 462 568 499 552 534 523 c 1
 534 439 l 1
 506 473 462 498 403 498 c 0
 322 498 259 440 259 350 c 0
95 350 m 0
 95 172 227 40 400 40 c 0
 573 40 705 172 705 350 c 0
 705 528 573 660 400 660 c 0
 227 660 95 528 95 350 c 0
40 350 m 0
 40 559 196 710 400 710 c 0
 604 710 760 559 760 350 c 0
 760 141 604 -10 400 -10 c 0
 196 -10 40 141 40 350 c 0
EndSplineSet
EndChar

StartChar: registered
Encoding: 174 174 104
Width: 800
VWidth: 0
Flags: HMW
LayerCount: 2
Fore
SplineSet
360 345 m 1
 432 345 l 1
 569 150 l 1
 484 150 l 1
 360 345 l 1
266 570 m 1
 337 570 l 1
 337 150 l 1
 266 150 l 1
 266 570 l 1
308 509 m 1
 308 570 l 1
 396 570 l 2
 487 570 547 518 547 442 c 0
 547 363 487 312 396 312 c 2
 308 312 l 1
 308 370 l 1
 392 370 l 2
 441 370 474 395 474 440 c 0
 474 485 441 509 392 509 c 2
 308 509 l 1
95 350 m 0
 95 172 227 40 400 40 c 0
 573 40 705 172 705 350 c 0
 705 528 573 660 400 660 c 0
 227 660 95 528 95 350 c 0
40 350 m 0
 40 559 196 710 400 710 c 0
 604 710 760 559 760 350 c 0
 760 141 604 -10 400 -10 c 0
 196 -10 40 141 40 350 c 0
EndSplineSet
EndChar

StartChar: ordfeminine
Encoding: 170 170 105
Width: 250
VWidth: 0
Flags: HMW
LayerCount: 2
Fore
SplineSet
74 531 m 0
 74 511 86 497 117 497 c 0
 148 497 178 510 178 551 c 1
 186 525 l 1
 186 481 148 455 100 455 c 0
 56 455 19 482 19 530 c 0
 19 577 66 609 118 609 c 0
 158 609 186 590 194 581 c 1
 194 553 l 1
 174 568 154 575 126 575 c 0
 95 575 74 555 74 531 c 0
62 638 m 1
 40 678 l 1
 61 690 94 705 136 705 c 0
 192 705 231 679 231 633 c 2
 231 460 l 1
 178 460 l 1
 178 625 l 2
 178 647 158 660 133 660 c 0
 100 660 73 646 62 638 c 1
EndSplineSet
EndChar

StartChar: ordmasculine
Encoding: 186 186 106
Width: 278
VWidth: 0
Flags: HMW
LayerCount: 2
Fore
SplineSet
20 580 m 0
 20 651 72 700 143 700 c 0
 214 700 268 651 268 580 c 0
 268 509 214 460 143 460 c 0
 72 460 20 509 20 580 c 0
74 580 m 0
 74 537 104 508 143 508 c 0
 182 508 212 537 212 580 c 0
 212 623 182 652 143 652 c 0
 104 652 74 623 74 580 c 0
EndSplineSet
EndChar

StartChar: guillemotleft
Encoding: 171 171 107
Width: 522
VWidth: 0
Flags: HMW
LayerCount: 2
Fore
SplineSet
315 259 m 1
 465 65 l 1
 398 12 l 1
 212 255 l 1
 398 498 l 1
 465 445 l 1
 315 259 l 1
138 259 m 1
 288 65 l 1
 220 12 l 1
 35 255 l 1
 220 498 l 1
 288 445 l 1
 138 259 l 1
EndSplineSet
EndChar

StartChar: guillemotright
Encoding: 187 187 108
Width: 522
VWidth: 0
Flags: HMW
LayerCount: 2
Fore
SplineSet
208 251 m 1
 58 445 l 1
 125 498 l 1
 310 255 l 1
 125 12 l 1
 58 65 l 1
 208 251 l 1
385 251 m 1
 235 445 l 1
 302 498 l 1
 488 255 l 1
 302 12 l 1
 235 65 l 1
 385 251 l 1
EndSplineSet
EndChar

StartChar: uni00AD
Encoding: 173 173 109
Width: 210
VWidth: 0
Flags: HMW
LayerCount: 2
Fore
SplineSet
5 200 m 1
 5 275 l 1
 205 275 l 1
 205 200 l 1
 5 200 l 1
EndSplineSet
EndChar

StartChar: logicalnot
Encoding: 172 172 110
Width: 632
VWidth: 0
Flags: HMW
LayerCount: 2
Fore
SplineSet
65 289 m 1
 65 386 l 1
 567 386 l 1
 567 175 l 1
 480 175 l 1
 480 289 l 1
 65 289 l 1
EndSplineSet
EndChar

StartChar: macron
Encoding: 175 175 111
Width: 518
VWidth: 0
Flags: HMW
LayerCount: 2
Fore
SplineSet
80 589 m 1
 80 686 l 1
 439 686 l 1
 439 589 l 1
 80 589 l 1
EndSplineSet
EndChar

StartChar: degree
Encoding: 176 176 112
Width: 285
VWidth: 0
Flags: HMW
LayerCount: 2
Fore
SplineSet
19 599 m 0
 19 670 72 720 143 720 c 0
 214 720 267 670 267 599 c 0
 267 528 214 478 143 478 c 0
 72 478 19 528 19 599 c 0
72 599 m 0
 72 556 103 526 143 526 c 0
 183 526 213 556 213 599 c 0
 213 642 183 672 143 672 c 0
 103 672 72 642 72 599 c 0
EndSplineSet
EndChar

StartChar: plusminus
Encoding: 177 177 113
Width: 622
VWidth: 0
Flags: HMW
LayerCount: 2
Fore
SplineSet
65 2 m 1
 65 102 l 1
 558 102 l 1
 558 2 l 1
 65 2 l 1
65 340 m 1
 65 443 l 1
 558 443 l 1
 558 340 l 1
 65 340 l 1
255 620 m 1
 368 620 l 1
 368 162 l 1
 255 162 l 1
 255 620 l 1
EndSplineSet
EndChar

StartChar: uni00B2
Encoding: 178 178 114
Width: 370
VWidth: 0
Flags: HMW
LayerCount: 2
Fore
SplineSet
25 282 m 1
 219 487 l 2
 249 519 267 546 267 580 c 0
 267 613 245 646 199 646 c 0
 151 646 118 610 118 554 c 1
 47 554 l 1
 47 643 104 710 200 710 c 0
 297 710 340 639 340 579 c 0
 340 535 316 497 282 464 c 2
 163 348 l 1
 345 348 l 1
 345 282 l 1
 25 282 l 1
EndSplineSet
EndChar

StartChar: uni00B3
Encoding: 179 179 115
Width: 333
VWidth: 0
Flags: HMW
LayerCount: 2
Fore
SplineSet
146 485 m 1
 146 524 l 1
 197 524 228 554 228 590 c 0
 228 624 209 647 171 647 c 0
 135 647 107 622 107 588 c 1
 40 588 l 1
 40 657 94 707 171 707 c 0
 252 707 300 654 300 593 c 0
 300 529 235 485 146 485 c 1
167 272 m 0
 78 272 22 331 22 400 c 1
 93 400 l 1
 93 359 126 334 169 334 c 0
 212 334 240 358 240 400 c 0
 240 445 203 471 146 471 c 1
 146 511 l 1
 239 511 312 477 312 393 c 0
 312 321 253 272 167 272 c 0
EndSplineSet
EndChar

StartChar: acute
Encoding: 180 180 116
Width: 375
VWidth: 0
Flags: HMW
LayerCount: 2
Fore
SplineSet
308 658 m 1
 128 508 l 1
 66 542 l 1
 216 702 l 1
 308 658 l 1
EndSplineSet
EndChar

StartChar: mu
Encoding: 181 181 117
Width: 545
VWidth: 0
Flags: HMW
LayerCount: 2
Fore
SplineSet
180 460 m 1
 180 190 l 2
 180 123 206 87 265 87 c 0
 326 87 368 129 368 190 c 2
 368 460 l 1
 476 460 l 1
 476 0 l 1
 368 0 l 1
 368 58 l 1
 341 18 298 -8 248 -8 c 0
 221 -8 198 -3 175 11 c 1
 175 -320 l 1
 69 -320 l 1
 69 460 l 1
 180 460 l 1
EndSplineSet
EndChar

StartChar: paragraph
Encoding: 182 182 118
Width: 615
VWidth: 0
Flags: HMW
LayerCount: 2
Fore
SplineSet
288 270 m 1
 163 270 60 346 60 485 c 0
 60 624 163 700 288 700 c 2
 556 700 l 1
 556 -220 l 1
 460 -220 l 1
 460 624 l 1
 383 624 l 1
 383 -220 l 1
 288 -220 l 1
 288 270 l 1
EndSplineSet
EndChar

StartChar: periodcentered
Encoding: 183 183 119
Width: 308
VWidth: 0
Flags: HMW
LayerCount: 2
Fore
SplineSet
84 251 m 0
 84 289 114 321 154 321 c 0
 194 321 225 289 225 251 c 0
 225 213 194 181 154 181 c 0
 114 181 84 213 84 251 c 0
EndSplineSet
EndChar

StartChar: uni00B9
Encoding: 185 185 120
Width: 474
VWidth: 0
Flags: HMW
LayerCount: 2
Fore
SplineSet
144 595 m 1
 144 663 l 1
 312 701 l 1
 312 274 l 1
 242 274 l 1
 242 623 l 1
 144 595 l 1
EndSplineSet
EndChar

StartChar: cedilla
Encoding: 184 184 121
Width: 367
VWidth: 0
Flags: HMW
LayerCount: 2
Fore
SplineSet
191 64 m 1
 272 63 l 1
 199 -53 l 1
 205 -52 212 -52 219 -52 c 0
 255 -52 299 -79 299 -135 c 0
 299 -200 240 -235 182 -235 c 0
 137 -235 107 -225 71 -196 c 1
 110 -145 l 1
 131 -162 150 -170 174 -170 c 0
 208 -170 226 -156 226 -132 c 0
 226 -107 205 -97 172 -97 c 0
 162 -97 132 -100 105 -114 c 1
 191 64 l 1
EndSplineSet
EndChar

StartChar: questiondown
Encoding: 191 191 122
Width: 585
VWidth: 0
Flags: HMW
LayerCount: 2
Fore
SplineSet
167 200 m 0
 167 125 218 83 300 83 c 0
 365 83 417 115 450 167 c 1
 530 109 l 1
 474 34 409 -14 290 -14 c 0
 163 -14 58 73 58 200 c 0
 58 318 161 401 270 412 c 1
 277 518 l 1
 361 518 l 1
 381 341 l 1
 353 341 l 2
 233 341 167 266 167 200 c 0
388 652 m 0
 388 616 357 586 317 586 c 0
 277 586 247 616 247 652 c 0
 247 688 277 719 317 719 c 0
 357 719 388 688 388 652 c 0
EndSplineSet
EndChar

StartChar: multiply
Encoding: 215 215 123
Width: 596
VWidth: 0
Flags: HMW
LayerCount: 2
Fore
SplineSet
129 14 m 1
 57 86 l 1
 232 255 l 1
 57 424 l 1
 129 496 l 1
 298 321 l 1
 467 496 l 1
 539 424 l 1
 364 255 l 1
 539 86 l 1
 467 14 l 1
 298 189 l 1
 129 14 l 1
EndSplineSet
EndChar

StartChar: Oslash
Encoding: 216 216 124
Width: 790
VWidth: 0
Flags: HMW
LayerCount: 2
Fore
SplineSet
163 350 m 0
 163 204 262 101 401 101 c 0
 540 101 639 204 639 350 c 0
 639 496 540 599 401 599 c 0
 262 599 163 496 163 350 c 0
38 350 m 0
 38 559 192 712 401 712 c 0
 610 712 765 559 765 350 c 0
 765 141 610 -15 401 -15 c 0
 192 -15 38 141 38 350 c 0
692 752 m 1
 756 708 l 1
 107 -52 l 1
 44 -8 l 1
 692 752 l 1
EndSplineSet
EndChar

StartChar: Thorn
Encoding: 222 222 125
Width: 574
VWidth: 0
Flags: HMW
LayerCount: 2
Fore
SplineSet
80 700 m 1
 190 700 l 1
 190 0 l 1
 80 0 l 1
 80 700 l 1
146 466 m 1
 146 568 l 1
 286 568 l 2
 439 568 538 485 538 351 c 0
 538 217 439 135 286 135 c 2
 146 135 l 1
 146 236 l 1
 286 236 l 2
 371 236 427 273 427 351 c 0
 427 429 371 466 286 466 c 2
 146 466 l 1
EndSplineSet
EndChar

StartChar: divide
Encoding: 247 247 126
Width: 629
VWidth: 0
Flags: HMW
LayerCount: 2
Fore
SplineSet
243 491 m 0
 243 529 274 561 314 561 c 0
 354 561 385 529 385 491 c 0
 385 453 354 421 314 421 c 0
 274 421 243 453 243 491 c 0
243 81 m 0
 243 119 274 151 314 151 c 0
 354 151 385 119 385 81 c 0
 385 43 354 11 314 11 c 0
 274 11 243 43 243 81 c 0
46 239 m 1
 46 341 l 1
 581 341 l 1
 581 239 l 1
 46 239 l 1
EndSplineSet
EndChar

StartChar: oslash
Encoding: 248 248 127
Width: 546
VWidth: 0
Flags: HMW
LayerCount: 2
Fore
SplineSet
34 230 m 0
 34 374 142 470 282 470 c 0
 422 470 530 374 530 230 c 0
 530 86 422 -10 282 -10 c 0
 142 -10 34 86 34 230 c 0
140 230 m 0
 140 142 202 83 282 83 c 0
 362 83 424 142 424 230 c 0
 424 316 362 377 282 377 c 0
 202 377 140 316 140 230 c 0
446 502 m 1
 496 478 l 1
 106 -46 l 1
 56 -22 l 1
 446 502 l 1
EndSplineSet
EndChar

StartChar: circumflex
Encoding: 710 710 128
Width: 480
VWidth: 0
Flags: HMW
LayerCount: 2
Fore
SplineSet
240 639 m 1
 138 548 l 1
 65 600 l 1
 240 740 l 1
 415 600 l 1
 342 548 l 1
 240 639 l 1
EndSplineSet
EndChar

StartChar: ogonek
Encoding: 731 731 129
Width: 260
VWidth: 0
Flags: HMW
LayerCount: 2
Fore
SplineSet
194 -122 m 1
 227 -180 l 1
 212 -200 182 -220 134 -220 c 0
 58 -220 14 -181 14 -120 c 0
 14 -59 78 -11 148 25 c 1
 189 0 l 1
 137 -24 101 -63 101 -98 c 0
 101 -130 116 -142 144 -142 c 0
 168 -142 180 -135 194 -122 c 1
EndSplineSet
EndChar

StartChar: tilde
Encoding: 732 732 130
Width: 530
VWidth: 0
Flags: HMW
LayerCount: 2
Fore
SplineSet
90 630 m 1
 100 679 147 717 200 717 c 0
 265 717 274 668 329 668 c 0
 350 668 369 686 389 718 c 1
 445 663 l 1
 429 626 383 584 328 584 c 0
 273 584 246 634 199 634 c 0
 159 634 151 598 151 583 c 1
 90 630 l 1
EndSplineSet
EndChar

StartChar: ring
Encoding: 730 730 131
Width: 298
VWidth: 0
Flags: HMW
LayerCount: 2
Fore
SplineSet
38 779 m 0
 38 843 90 885 149 885 c 0
 208 885 260 843 260 779 c 0
 260 715 208 673 149 673 c 0
 90 673 38 715 38 779 c 0
100 779 m 0
 100 747 124 728 149 728 c 0
 174 728 198 747 198 779 c 0
 198 811 174 830 149 830 c 0
 124 830 100 811 100 779 c 0
EndSplineSet
EndChar

StartChar: dotaccent
Encoding: 729 729 132
Width: 300
VWidth: 0
Flags: HMW
LayerCount: 2
Fore
SplineSet
82 799 m 0
 82 836 112 865 150 865 c 0
 188 865 218 836 218 799 c 0
 218 762 188 733 150 733 c 0
 112 733 82 762 82 799 c 0
EndSplineSet
EndChar

StartChar: uni2010
Encoding: 8208 8208 133
Width: 214
VWidth: 0
Flags: HMW
LayerCount: 2
Fore
SplineSet
5 189 m 1
 5 286 l 1
 210 286 l 1
 210 189 l 1
 5 189 l 1
EndSplineSet
EndChar

StartChar: endash
Encoding: 8211 8211 134
Width: 757
VWidth: 0
Flags: HMW
LayerCount: 2
Fore
SplineSet
70 189 m 1
 70 286 l 1
 685 286 l 1
 685 189 l 1
 70 189 l 1
EndSplineSet
EndChar

StartChar: figuredash
Encoding: 8210 8210 135
Width: 604
VWidth: 0
Flags: HMW
LayerCount: 2
Fore
SplineSet
70 189 m 1
 70 286 l 1
 531 286 l 1
 531 189 l 1
 70 189 l 1
EndSplineSet
EndChar

StartChar: emdash
Encoding: 8212 8212 136
Width: 910
VWidth: 0
Flags: HMW
LayerCount: 2
Fore
SplineSet
70 189 m 1
 70 286 l 1
 839 286 l 1
 839 189 l 1
 70 189 l 1
EndSplineSet
EndChar

StartChar: minus
Encoding: 8722 8722 137
Width: 591
VWidth: 0
Flags: HMW
LayerCount: 2
Fore
SplineSet
65 189 m 1
 65 286 l 1
 526 286 l 1
 526 189 l 1
 65 189 l 1
EndSplineSet
EndChar

StartChar: quoteright
Encoding: 8217 8217 138
Width: 297
VWidth: 0
Flags: HMW
LayerCount: 2
Fore
SplineSet
108 700 m 1
 227 700 l 1
 126 460 l 1
 50 460 l 1
 108 700 l 1
EndSplineSet
EndChar

StartChar: quoteleft
Encoding: 8216 8216 139
Width: 297
VWidth: 0
Flags: HMW
LayerCount: 2
Fore
SplineSet
190 460 m 1
 70 460 l 1
 171 700 l 1
 247 700 l 1
 190 460 l 1
EndSplineSet
EndChar

StartChar: quotesinglbase
Encoding: 8218 8218 140
Width: 297
VWidth: 0
Flags: HMW
LayerCount: 2
Fore
SplineSet
118 80 m 1
 237 80 l 1
 136 -160 l 1
 60 -160 l 1
 118 80 l 1
EndSplineSet
EndChar

StartChar: quotedblleft
Encoding: 8220 8220 141
Width: 509
VWidth: 0
Flags: HMW
LayerCount: 2
Fore
SplineSet
190 460 m 1
 70 460 l 1
 171 700 l 1
 247 700 l 1
 190 460 l 1
403 460 m 1
 282 460 l 1
 384 700 l 1
 460 700 l 1
 403 460 l 1
EndSplineSet
EndChar

StartChar: quotedblright
Encoding: 8221 8221 142
Width: 509
VWidth: 0
Flags: HMW
LayerCount: 2
Fore
SplineSet
108 700 m 1
 227 700 l 1
 126 460 l 1
 50 460 l 1
 108 700 l 1
320 700 m 1
 440 700 l 1
 339 460 l 1
 262 460 l 1
 320 700 l 1
EndSplineSet
EndChar

StartChar: perthousand
Encoding: 8240 8240 143
Width: 1228
VWidth: 0
Flags: HMW
LayerCount: 2
Fore
SplineSet
858 156 m 0
 858 250 928 326 1028 326 c 0
 1128 326 1198 250 1198 156 c 0
 1198 62 1128 -14 1028 -14 c 0
 928 -14 858 62 858 156 c 0
950 156 m 0
 950 111 980 73 1028 73 c 0
 1076 73 1106 111 1106 156 c 0
 1106 201 1076 240 1028 240 c 0
 980 240 950 201 950 156 c 0
30 544 m 0
 30 638 101 714 201 714 c 0
 301 714 371 638 371 544 c 0
 371 450 301 374 201 374 c 0
 101 374 30 450 30 544 c 0
122 544 m 0
 122 499 153 460 201 460 c 0
 249 460 278 499 278 544 c 0
 278 589 249 627 201 627 c 0
 153 627 122 589 122 544 c 0
448 156 m 0
 448 250 518 326 618 326 c 0
 718 326 788 250 788 156 c 0
 788 62 718 -14 618 -14 c 0
 518 -14 448 62 448 156 c 0
540 156 m 0
 540 111 570 73 618 73 c 0
 666 73 696 111 696 156 c 0
 696 201 666 240 618 240 c 0
 570 240 540 201 540 156 c 0
598 700 m 1
 706 700 l 1
 220 0 l 1
 113 0 l 1
 598 700 l 1
EndSplineSet
EndChar

StartChar: guilsinglleft
Encoding: 8249 8249 144
Width: 350
VWidth: 0
Flags: HMW
LayerCount: 2
Fore
SplineSet
138 259 m 1
 288 65 l 1
 220 12 l 1
 35 255 l 1
 220 498 l 1
 288 445 l 1
 138 259 l 1
EndSplineSet
EndChar

StartChar: guilsinglright
Encoding: 8250 8250 145
Width: 350
VWidth: 0
Flags: HMW
LayerCount: 2
Fore
SplineSet
212 251 m 1
 62 445 l 1
 130 498 l 1
 315 255 l 1
 130 12 l 1
 62 65 l 1
 212 251 l 1
EndSplineSet
EndChar

StartChar: uni2031
Encoding: 8241 8241 146
Width: 1638
VWidth: 0
Flags: HMW
LayerCount: 2
Fore
SplineSet
1268 156 m 0
 1268 250 1338 326 1438 326 c 0
 1538 326 1608 250 1608 156 c 0
 1608 62 1538 -14 1438 -14 c 0
 1338 -14 1268 62 1268 156 c 0
1360 156 m 0
 1360 111 1390 73 1438 73 c 0
 1486 73 1516 111 1516 156 c 0
 1516 201 1486 240 1438 240 c 0
 1390 240 1360 201 1360 156 c 0
858 156 m 0
 858 250 928 326 1028 326 c 0
 1128 326 1198 250 1198 156 c 0
 1198 62 1128 -14 1028 -14 c 0
 928 -14 858 62 858 156 c 0
950 156 m 0
 950 111 980 73 1028 73 c 0
 1076 73 1106 111 1106 156 c 0
 1106 201 1076 240 1028 240 c 0
 980 240 950 201 950 156 c 0
30 544 m 0
 30 638 101 714 201 714 c 0
 301 714 371 638 371 544 c 0
 371 450 301 374 201 374 c 0
 101 374 30 450 30 544 c 0
122 544 m 0
 122 499 153 460 201 460 c 0
 249 460 278 499 278 544 c 0
 278 589 249 627 201 627 c 0
 153 627 122 589 122 544 c 0
448 156 m 0
 448 250 518 326 618 326 c 0
 718 326 788 250 788 156 c 0
 788 62 718 -14 618 -14 c 0
 518 -14 448 62 448 156 c 0
540 156 m 0
 540 111 570 73 618 73 c 0
 666 73 696 111 696 156 c 0
 696 201 666 240 618 240 c 0
 570 240 540 201 540 156 c 0
598 700 m 1
 706 700 l 1
 220 0 l 1
 113 0 l 1
 598 700 l 1
EndSplineSet
EndChar

StartChar: uni203D
Encoding: 8253 8253 147
Width: 585
VWidth: 0
Flags: HMW
LayerCount: 2
Fore
SplineSet
423 492 m 0
 423 573 367 617 281 617 c 0
 216 617 166 588 135 533 c 1
 55 591 l 1
 101 661 173 713 294 713 c 0
 421 713 527 627 527 500 c 0
 527 369 397 285 282 285 c 1
 244 346 l 1
 349 346 423 416 423 492 c 0
206 508 m 1
 324 508 l 1
 301 182 l 1
 229 182 l 1
 206 508 l 1
196 49 m 0
 196 87 228 116 268 116 c 0
 308 116 339 87 339 49 c 0
 339 11 308 -19 268 -19 c 0
 228 -19 196 11 196 49 c 0
EndSplineSet
EndChar

StartChar: Euro
Encoding: 8364 8364 148
Width: 610
VWidth: 0
Flags: HMW
LayerCount: 2
Fore
SplineSet
31 397 m 1
 31 459 l 1
 528 459 l 1
 528 397 l 1
 31 397 l 1
25 272 m 1
 25 335 l 1
 504 335 l 1
 504 272 l 1
 25 272 l 1
193 350 m 0
 193 192 272 90 388 90 c 0
 445 90 497 112 538 152 c 1
 538 27 l 1
 493 1 442 -14 388 -14 c 0
 206 -14 82 141 82 350 c 0
 82 559 206 714 388 714 c 0
 442 714 493 699 538 673 c 1
 538 548 l 1
 497 588 445 610 388 610 c 0
 272 610 193 508 193 350 c 0
EndSplineSet
EndChar

StartChar: fraction
Encoding: 8260 8260 149
Width: 715
VWidth: 0
Flags: HMW
LayerCount: 2
Fore
SplineSet
580 700 m 1
 667 700 l 1
 147 0 l 1
 60 0 l 1
 580 700 l 1
EndSplineSet
EndChar

StartChar: onequarter
Encoding: 188 188 150
Width: 781
VWidth: 0
Flags: HMW
LayerCount: 2
Fore
SplineSet
623 700 m 1
 701 700 l 1
 181 0 l 1
 103 0 l 1
 623 700 l 1
28 595 m 1
 28 663 l 1
 195 701 l 1
 195 274 l 1
 125 274 l 1
 125 623 l 1
 28 595 l 1
402 80 m 1
 460 137 l 1
 644 137 l 0
 654 142 l 0
 748 142 l 1
 748 80 l 1
 402 80 l 1
475 92 m 1
 402 80 l 1
 639 420 l 1
 682 420 l 1
 682 0 l 1
 609 0 l 1
 609 102 l 0
 613 108 l 0
 613 293 l 1
 475 92 l 1
EndSplineSet
EndChar

StartChar: onehalf
Encoding: 189 189 151
Width: 849
VWidth: 0
Flags: HMW
LayerCount: 2
Fore
SplineSet
623 700 m 1
 701 700 l 1
 181 0 l 1
 103 0 l 1
 623 700 l 1
28 595 m 1
 28 663 l 1
 195 701 l 1
 195 274 l 1
 125 274 l 1
 125 623 l 1
 28 595 l 1
498 2 m 1
 692 207 l 2
 722 239 740 266 740 300 c 0
 740 333 718 366 672 366 c 0
 624 366 591 330 591 274 c 1
 521 274 l 1
 521 363 577 430 673 430 c 0
 770 430 813 359 813 299 c 0
 813 255 789 217 755 184 c 2
 636 68 l 1
 818 68 l 1
 818 2 l 1
 498 2 l 1
EndSplineSet
EndChar

StartChar: threequarters
Encoding: 190 190 152
Width: 843
VWidth: 0
Flags: HMW
LayerCount: 2
Fore
SplineSet
689 700 m 1
 766 700 l 1
 246 0 l 1
 169 0 l 1
 689 700 l 1
152 485 m 1
 152 524 l 1
 203 524 235 554 235 590 c 0
 235 624 215 647 177 647 c 0
 141 647 113 622 113 588 c 1
 46 588 l 1
 46 657 100 707 177 707 c 0
 258 707 306 654 306 593 c 0
 306 529 241 485 152 485 c 1
174 272 m 0
 85 272 28 331 28 400 c 1
 100 400 l 1
 100 359 132 334 175 334 c 0
 218 334 247 358 247 400 c 0
 247 445 209 471 152 471 c 1
 152 511 l 1
 245 511 318 477 318 393 c 0
 318 321 260 272 174 272 c 0
465 80 m 1
 523 137 l 1
 707 137 l 0
 717 142 l 0
 811 142 l 1
 811 80 l 1
 465 80 l 1
538 92 m 1
 465 80 l 1
 702 420 l 1
 745 420 l 1
 745 0 l 1
 672 0 l 1
 672 102 l 0
 677 108 l 0
 677 293 l 1
 538 92 l 1
EndSplineSet
EndChar

StartChar: uni2150
Encoding: 8528 8528 153
Width: 882
VWidth: 0
Flags: HMW
LayerCount: 2
Fore
SplineSet
583 700 m 1
 671 700 l 1
 151 0 l 1
 63 0 l 1
 583 700 l 1
28 595 m 1
 28 663 l 1
 195 701 l 1
 195 274 l 1
 125 274 l 1
 125 623 l 1
 28 595 l 1
542 353 m 1
 542 420 l 1
 855 420 l 1
 653 0 l 1
 578 0 l 1
 750 353 l 1
 542 353 l 1
EndSplineSet
EndChar

StartChar: uni2151
Encoding: 8529 8529 154
Width: 824
VWidth: 0
Flags: HMW
LayerCount: 2
Fore
SplineSet
580 700 m 1
 668 700 l 1
 148 0 l 1
 60 0 l 1
 580 700 l 1
28 595 m 1
 28 663 l 1
 195 701 l 1
 195 274 l 1
 125 274 l 1
 125 623 l 1
 28 595 l 1
735 280 m 0
 735 332 698 367 650 367 c 0
 602 367 565 332 565 280 c 0
 565 228 602 192 650 192 c 0
 698 192 735 228 735 280 c 0
636 3 m 1
 545 3 l 1
 679 167 l 1
 688 169 l 1
 670 148 650 144 622 144 c 0
 556 144 496 200 496 280 c 0
 496 373 564 430 650 430 c 0
 736 430 804 373 804 280 c 0
 804 242 788 208 768 181 c 2
 636 3 l 1
EndSplineSet
EndChar

StartChar: uni2152
Encoding: 8530 8530 155
Width: 1132
VWidth: 0
Flags: HMW
LayerCount: 2
Fore
SplineSet
580 700 m 1
 668 700 l 1
 148 0 l 1
 60 0 l 1
 580 700 l 1
28 595 m 1
 28 663 l 1
 195 701 l 1
 195 274 l 1
 125 274 l 1
 125 623 l 1
 28 595 l 1
513 322 m 1
 513 390 l 1
 680 428 l 1
 680 1 l 1
 611 1 l 1
 611 350 l 1
 513 322 l 1
844 210 m 0
 844 120 881 57 938 57 c 0
 995 57 1031 120 1031 210 c 0
 1031 300 995 363 938 363 c 0
 881 363 844 300 844 210 c 0
774 210 m 0
 774 339 842 427 938 427 c 0
 1036 427 1101 339 1101 210 c 0
 1101 81 1036 -7 938 -7 c 0
 842 -7 774 81 774 210 c 0
EndSplineSet
EndChar

StartChar: onethird
Encoding: 8531 8531 156
Width: 802
VWidth: 0
Flags: HMW
LayerCount: 2
Fore
SplineSet
580 700 m 1
 668 700 l 1
 148 0 l 1
 60 0 l 1
 580 700 l 1
28 595 m 1
 28 663 l 1
 195 701 l 1
 195 274 l 1
 125 274 l 1
 125 623 l 1
 28 595 l 1
611 205 m 1
 611 244 l 1
 662 244 693 274 693 310 c 0
 693 344 674 367 636 367 c 0
 600 367 572 342 572 308 c 1
 505 308 l 1
 505 377 559 427 636 427 c 0
 717 427 764 374 764 313 c 0
 764 249 700 205 611 205 c 1
632 -8 m 0
 543 -8 487 51 487 120 c 1
 558 120 l 1
 558 79 590 54 633 54 c 0
 676 54 705 78 705 120 c 0
 705 165 668 191 611 191 c 1
 611 231 l 1
 704 231 776 197 776 113 c 0
 776 41 718 -8 632 -8 c 0
EndSplineSet
EndChar

StartChar: twothirds
Encoding: 8532 8532 157
Width: 932
VWidth: 0
Flags: HMW
LayerCount: 2
Fore
SplineSet
715 700 m 1
 802 700 l 1
 282 0 l 1
 195 0 l 1
 715 700 l 1
30 282 m 1
 224 487 l 2
 254 519 272 546 272 580 c 0
 272 613 250 646 204 646 c 0
 156 646 123 610 123 554 c 1
 52 554 l 1
 52 643 109 710 205 710 c 0
 302 710 345 639 345 579 c 0
 345 535 321 497 287 464 c 2
 168 348 l 1
 350 348 l 1
 350 282 l 1
 30 282 l 1
740 205 m 1
 740 244 l 1
 791 244 823 274 823 310 c 0
 823 344 803 367 765 367 c 0
 729 367 701 342 701 308 c 1
 634 308 l 1
 634 377 688 427 765 427 c 0
 846 427 894 374 894 313 c 0
 894 249 829 205 740 205 c 1
762 -8 m 0
 673 -8 616 51 616 120 c 1
 688 120 l 1
 688 79 720 54 763 54 c 0
 806 54 835 78 835 120 c 0
 835 165 797 191 740 191 c 1
 740 231 l 1
 833 231 906 197 906 113 c 0
 906 41 848 -8 762 -8 c 0
EndSplineSet
EndChar

StartChar: uni2155
Encoding: 8533 8533 158
Width: 791
VWidth: 0
Flags: HMW
LayerCount: 2
Fore
SplineSet
580 700 m 1
 668 700 l 1
 148 0 l 1
 60 0 l 1
 580 700 l 1
28 595 m 1
 28 663 l 1
 195 701 l 1
 195 274 l 1
 125 274 l 1
 125 623 l 1
 28 595 l 1
764 134 m 0
 764 37 689 -9 608 -9 c 0
 531 -9 484 26 452 66 c 1
 493 118 l 1
 518 85 559 57 599 57 c 0
 655 57 688 88 688 139 c 0
 688 190 648 220 599 220 c 0
 562 220 531 212 488 186 c 1
 534 231 l 1
 564 263 600 275 638 275 c 0
 708 275 764 219 764 134 c 0
598 356 m 1
 565 239 l 1
 488 186 l 1
 544 418 l 1
 760 418 l 1
 760 356 l 1
 598 356 l 1
EndSplineSet
EndChar

StartChar: uni2156
Encoding: 8534 8534 159
Width: 924
VWidth: 0
Flags: HMW
LayerCount: 2
Fore
SplineSet
715 700 m 1
 802 700 l 1
 282 0 l 1
 195 0 l 1
 715 700 l 1
30 282 m 1
 224 487 l 2
 254 519 272 546 272 580 c 0
 272 613 250 646 204 646 c 0
 156 646 123 610 123 554 c 1
 52 554 l 1
 52 643 109 710 205 710 c 0
 302 710 345 639 345 579 c 0
 345 535 321 497 287 464 c 2
 168 348 l 1
 350 348 l 1
 350 282 l 1
 30 282 l 1
894 134 m 0
 894 37 819 -9 738 -9 c 0
 661 -9 613 26 581 66 c 1
 623 118 l 1
 648 85 689 57 729 57 c 0
 785 57 818 88 818 139 c 0
 818 190 778 220 729 220 c 0
 692 220 660 212 617 186 c 1
 664 231 l 1
 694 263 730 275 768 275 c 0
 838 275 894 219 894 134 c 0
727 356 m 1
 694 239 l 1
 617 186 l 1
 674 418 l 1
 890 418 l 1
 890 356 l 1
 727 356 l 1
EndSplineSet
EndChar

StartChar: uni2157
Encoding: 8535 8535 160
Width: 871
VWidth: 0
Flags: HMW
LayerCount: 2
Fore
SplineSet
663 700 m 1
 750 700 l 1
 230 0 l 1
 143 0 l 1
 663 700 l 1
151 485 m 1
 151 524 l 1
 202 524 233 554 233 590 c 0
 233 624 214 647 176 647 c 0
 140 647 112 622 112 588 c 1
 45 588 l 1
 45 657 99 707 176 707 c 0
 257 707 305 654 305 593 c 0
 305 529 240 485 151 485 c 1
172 272 m 0
 83 272 27 331 27 400 c 1
 98 400 l 1
 98 359 131 334 174 334 c 0
 217 334 245 358 245 400 c 0
 245 445 208 471 151 471 c 1
 151 511 l 1
 244 511 317 477 317 393 c 0
 317 321 258 272 172 272 c 0
839 134 m 0
 839 37 764 -9 683 -9 c 0
 606 -9 558 26 526 66 c 1
 568 118 l 1
 593 85 634 57 674 57 c 0
 730 57 763 88 763 139 c 0
 763 190 723 220 674 220 c 0
 637 220 606 212 563 186 c 1
 609 231 l 1
 639 263 675 275 713 275 c 0
 783 275 839 219 839 134 c 0
672 356 m 1
 640 239 l 1
 563 186 l 1
 619 418 l 1
 835 418 l 1
 835 356 l 1
 672 356 l 1
EndSplineSet
EndChar

StartChar: uni2158
Encoding: 8536 8536 161
Width: 926
VWidth: 0
Flags: HMW
LayerCount: 2
Fore
SplineSet
708 700 m 1
 795 700 l 1
 275 -0 l 1
 188 -0 l 1
 708 700 l 1
27 360 m 1
 85 417 l 1
 269 417 l 0
 279 422 l 0
 373 422 l 1
 373 360 l 1
 27 360 l 1
100 372 m 1
 27 360 l 1
 264 700 l 1
 307 700 l 1
 307 280 l 1
 234 280 l 1
 234 382 l 0
 239 388 l 0
 239 573 l 1
 100 372 l 1
896 134 m 0
 896 37 821 -9 740 -9 c 0
 663 -9 616 26 584 66 c 1
 625 117 l 1
 650 84 691 57 731 57 c 0
 787 57 820 88 820 139 c 0
 820 190 780 220 731 220 c 0
 694 220 663 212 620 186 c 1
 666 231 l 1
 696 263 732 274 770 274 c 0
 840 274 896 219 896 134 c 0
730 355 m 1
 697 239 l 1
 620 186 l 1
 676 418 l 1
 892 418 l 1
 892 355 l 1
 730 355 l 1
EndSplineSet
EndChar

StartChar: uni2159
Encoding: 8537 8537 162
Width: 788
VWidth: 0
Flags: HMW
LayerCount: 2
Fore
SplineSet
588 700 m 1
 675 700 l 1
 155 0 l 1
 68 0 l 1
 588 700 l 1
28 595 m 1
 28 663 l 1
 195 701 l 1
 195 274 l 1
 125 274 l 1
 125 623 l 1
 28 595 l 1
525 140 m 0
 525 88 561 53 609 53 c 0
 657 53 694 88 694 140 c 0
 694 192 657 228 609 228 c 0
 561 228 525 192 525 140 c 0
624 417 m 1
 714 417 l 1
 581 253 l 1
 571 251 l 1
 589 272 609 276 637 276 c 0
 703 276 764 220 764 140 c 0
 764 47 695 -10 609 -10 c 0
 523 -10 455 47 455 140 c 0
 455 178 471 212 491 239 c 2
 624 417 l 1
EndSplineSet
EndChar

StartChar: uni215A
Encoding: 8538 8538 163
Width: 886
VWidth: 0
Flags: HMW
LayerCount: 2
Fore
SplineSet
692 700 m 1
 780 700 l 1
 260 0 l 1
 172 0 l 1
 692 700 l 1
342 414 m 0
 342 317 268 271 187 271 c 0
 110 271 62 306 30 346 c 1
 71 398 l 1
 96 365 137 337 177 337 c 0
 233 337 267 368 267 419 c 0
 267 470 226 500 177 500 c 0
 140 500 109 492 66 466 c 1
 112 511 l 1
 142 543 179 555 217 555 c 0
 287 555 342 499 342 414 c 0
176 636 m 1
 143 519 l 1
 66 466 l 1
 123 698 l 1
 339 698 l 1
 339 636 l 1
 176 636 l 1
621 140 m 0
 621 88 658 53 706 53 c 0
 754 53 791 88 791 140 c 0
 791 192 754 228 706 228 c 0
 658 228 621 192 621 140 c 0
721 417 m 1
 811 417 l 1
 678 253 l 1
 668 251 l 1
 686 272 706 276 734 276 c 0
 800 276 860 220 860 140 c 0
 860 47 792 -10 706 -10 c 0
 620 -10 552 47 552 140 c 0
 552 178 568 212 588 239 c 2
 721 417 l 1
EndSplineSet
EndChar

StartChar: oneeighth
Encoding: 8539 8539 164
Width: 812
VWidth: 0
Flags: HMW
LayerCount: 2
Fore
SplineSet
588 700 m 1
 675 700 l 1
 155 0 l 1
 68 0 l 1
 588 700 l 1
28 595 m 1
 28 663 l 1
 195 701 l 1
 195 274 l 1
 125 274 l 1
 125 623 l 1
 28 595 l 1
514 319 m 0
 514 382 571 428 641 428 c 0
 711 428 767 382 767 319 c 0
 767 250 710 210 641 210 c 0
 572 210 514 250 514 319 c 0
582 311 m 0
 582 275 609 252 641 252 c 0
 673 252 700 275 700 311 c 0
 700 347 676 371 641 371 c 0
 606 371 582 347 582 311 c 0
499 114 m 0
 499 195 572 236 641 236 c 0
 710 236 782 195 782 114 c 0
 782 45 719 -8 641 -8 c 0
 563 -8 499 45 499 114 c 0
569 124 m 0
 569 78 603 53 641 53 c 0
 679 53 712 78 712 124 c 0
 712 164 679 194 641 194 c 0
 603 194 569 164 569 124 c 0
EndSplineSet
EndChar

StartChar: threeeighths
Encoding: 8540 8540 165
Width: 889
VWidth: 0
Flags: HMW
LayerCount: 2
Fore
SplineSet
665 700 m 1
 752 700 l 1
 232 0 l 1
 145 0 l 1
 665 700 l 1
151 485 m 1
 151 524 l 1
 202 524 233 554 233 590 c 0
 233 624 214 647 176 647 c 0
 140 647 112 622 112 588 c 1
 45 588 l 1
 45 657 99 707 176 707 c 0
 257 707 305 654 305 593 c 0
 305 529 240 485 151 485 c 1
172 272 m 0
 83 272 27 331 27 400 c 1
 98 400 l 1
 98 359 131 334 174 334 c 0
 217 334 245 358 245 400 c 0
 245 445 208 471 151 471 c 1
 151 511 l 1
 244 511 317 477 317 393 c 0
 317 321 258 272 172 272 c 0
591 319 m 0
 591 382 648 428 718 428 c 0
 788 428 844 382 844 319 c 0
 844 250 787 210 718 210 c 0
 649 210 591 250 591 319 c 0
659 311 m 0
 659 275 686 252 718 252 c 0
 750 252 777 275 777 311 c 0
 777 347 753 371 718 371 c 0
 683 371 659 347 659 311 c 0
576 114 m 0
 576 195 649 236 718 236 c 0
 787 236 859 195 859 114 c 0
 859 45 796 -8 718 -8 c 0
 640 -8 576 45 576 114 c 0
646 124 m 0
 646 78 680 53 718 53 c 0
 756 53 789 78 789 124 c 0
 789 164 756 194 718 194 c 0
 680 194 646 164 646 124 c 0
EndSplineSet
EndChar

StartChar: fiveeighths
Encoding: 8541 8541 166
Width: 916
VWidth: 0
Flags: HMW
LayerCount: 2
Fore
SplineSet
692 700 m 1
 780 700 l 1
 260 0 l 1
 172 0 l 1
 692 700 l 1
340 414 m 0
 340 317 265 271 184 271 c 0
 107 271 60 306 28 346 c 1
 69 398 l 1
 94 365 135 337 175 337 c 0
 231 337 264 368 264 419 c 0
 264 470 224 500 175 500 c 0
 138 500 107 492 64 466 c 1
 110 511 l 1
 140 543 176 555 214 555 c 0
 284 555 340 499 340 414 c 0
173 636 m 1
 141 519 l 1
 64 466 l 1
 120 698 l 1
 336 698 l 1
 336 636 l 1
 173 636 l 1
619 319 m 0
 619 382 675 428 745 428 c 0
 815 428 872 382 872 319 c 0
 872 250 814 210 745 210 c 0
 676 210 619 250 619 319 c 0
686 311 m 0
 686 275 713 252 745 252 c 0
 777 252 804 275 804 311 c 0
 804 347 780 371 745 371 c 0
 710 371 686 347 686 311 c 0
604 114 m 0
 604 195 676 236 745 236 c 0
 814 236 887 195 887 114 c 0
 887 45 823 -8 745 -8 c 0
 667 -8 604 45 604 114 c 0
674 124 m 0
 674 78 707 53 745 53 c 0
 783 53 817 78 817 124 c 0
 817 164 783 194 745 194 c 0
 707 194 674 164 674 124 c 0
EndSplineSet
EndChar

StartChar: seveneighths
Encoding: 8542 8542 167
Width: 806
VWidth: 0
Flags: HMW
LayerCount: 2
Fore
SplineSet
580 700 m 1
 667 700 l 1
 147 0 l 1
 60 0 l 1
 580 700 l 1
27 633 m 1
 27 700 l 1
 341 700 l 1
 139 280 l 1
 64 280 l 1
 236 633 l 1
 27 633 l 1
509 319 m 0
 509 382 565 428 635 428 c 0
 705 428 762 382 762 319 c 0
 762 250 704 210 635 210 c 0
 566 210 509 250 509 319 c 0
576 311 m 0
 576 275 603 252 635 252 c 0
 667 252 694 275 694 311 c 0
 694 347 670 371 635 371 c 0
 600 371 576 347 576 311 c 0
494 114 m 0
 494 195 566 236 635 236 c 0
 704 236 777 195 777 114 c 0
 777 45 713 -8 635 -8 c 0
 557 -8 494 45 494 114 c 0
564 124 m 0
 564 78 597 53 635 53 c 0
 673 53 707 78 707 124 c 0
 707 164 673 194 635 194 c 0
 597 194 564 164 564 124 c 0
EndSplineSet
EndChar

StartChar: uni2074
Encoding: 8308 8308 168
Width: 402
VWidth: 0
Flags: HMW
LayerCount: 2
Fore
SplineSet
24 360 m 1
 83 417 l 1
 266 417 l 0
 276 422 l 0
 370 422 l 1
 370 360 l 1
 24 360 l 1
98 372 m 1
 24 360 l 1
 262 700 l 1
 304 700 l 1
 304 280 l 1
 232 280 l 1
 232 382 l 0
 236 388 l 0
 236 573 l 1
 98 372 l 1
EndSplineSet
EndChar

StartChar: uni2075
Encoding: 8309 8309 169
Width: 368
VWidth: 0
Flags: HMW
LayerCount: 2
Fore
SplineSet
340 414 m 0
 340 317 265 271 184 271 c 0
 107 271 60 306 28 346 c 1
 69 398 l 1
 94 365 135 337 175 337 c 0
 231 337 264 368 264 419 c 0
 264 470 224 500 175 500 c 0
 138 500 107 492 64 466 c 1
 110 511 l 1
 140 543 176 555 214 555 c 0
 284 555 340 499 340 414 c 0
173 636 m 1
 141 519 l 1
 64 466 l 1
 120 698 l 1
 336 698 l 1
 336 636 l 1
 173 636 l 1
EndSplineSet
EndChar

StartChar: uni2076
Encoding: 8310 8310 170
Width: 360
VWidth: 0
Flags: HMW
LayerCount: 2
Fore
SplineSet
100 420 m 0
 100 368 137 333 185 333 c 0
 233 333 269 368 269 420 c 0
 269 472 233 508 185 508 c 0
 137 508 100 472 100 420 c 0
199 697 m 1
 290 697 l 1
 156 533 l 1
 146 531 l 1
 164 552 184 556 212 556 c 0
 278 556 339 500 339 420 c 0
 339 327 271 270 185 270 c 0
 99 270 30 327 30 420 c 0
 30 458 46 492 66 519 c 2
 199 697 l 1
EndSplineSet
EndChar

StartChar: uni2077
Encoding: 8311 8311 171
Width: 364
VWidth: 0
Flags: HMW
LayerCount: 2
Fore
SplineSet
27 633 m 1
 27 700 l 1
 341 700 l 1
 139 280 l 1
 64 280 l 1
 236 633 l 1
 27 633 l 1
EndSplineSet
EndChar

StartChar: uni2078
Encoding: 8312 8312 172
Width: 338
VWidth: 0
Flags: HMW
LayerCount: 2
Fore
SplineSet
42 599 m 0
 42 662 99 708 169 708 c 0
 239 708 295 662 295 599 c 0
 295 530 238 490 169 490 c 0
 100 490 42 530 42 599 c 0
110 591 m 0
 110 555 137 532 169 532 c 0
 201 532 227 555 227 591 c 0
 227 627 204 651 169 651 c 0
 134 651 110 627 110 591 c 0
27 394 m 0
 27 475 100 516 169 516 c 0
 238 516 310 475 310 394 c 0
 310 325 247 272 169 272 c 0
 91 272 27 325 27 394 c 0
97 404 m 0
 97 358 131 333 169 333 c 0
 207 333 240 358 240 404 c 0
 240 444 207 474 169 474 c 0
 131 474 97 444 97 404 c 0
EndSplineSet
EndChar

StartChar: uni2079
Encoding: 8313 8313 173
Width: 359
VWidth: 0
Flags: HMW
LayerCount: 2
Fore
SplineSet
273 560 m 0
 273 612 237 647 189 647 c 0
 141 647 104 612 104 560 c 0
 104 508 141 472 189 472 c 0
 237 472 273 508 273 560 c 0
174 283 m 1
 83 283 l 1
 217 447 l 1
 227 449 l 1
 209 428 189 424 161 424 c 0
 95 424 34 480 34 560 c 0
 34 653 103 710 189 710 c 0
 275 710 343 653 343 560 c 0
 343 522 327 488 307 461 c 2
 174 283 l 1
EndSplineSet
EndChar

StartChar: uni2070
Encoding: 8304 8304 174
Width: 379
VWidth: 0
Flags: HMW
LayerCount: 2
Fore
SplineSet
96 490 m 0
 96 400 133 337 190 337 c 0
 247 337 283 400 283 490 c 0
 283 580 247 643 190 643 c 0
 133 643 96 580 96 490 c 0
26 490 m 0
 26 619 94 707 190 707 c 0
 288 707 353 619 353 490 c 0
 353 361 288 273 190 273 c 0
 94 273 26 361 26 490 c 0
EndSplineSet
EndChar

StartChar: uni2080
Encoding: 8320 8320 175
Width: 379
VWidth: 0
Flags: HMW
LayerCount: 2
Fore
SplineSet
96 210 m 0
 96 120 133 57 190 57 c 0
 247 57 283 120 283 210 c 0
 283 300 247 363 190 363 c 0
 133 363 96 300 96 210 c 0
26 210 m 0
 26 339 94 427 190 427 c 0
 288 427 353 339 353 210 c 0
 353 81 288 -7 190 -7 c 0
 94 -7 26 81 26 210 c 0
EndSplineSet
EndChar

StartChar: uni2084
Encoding: 8324 8324 176
Width: 404
VWidth: 0
Flags: HMW
LayerCount: 2
Fore
SplineSet
24 80 m 1
 82 137 l 1
 266 137 l 0
 276 142 l 0
 370 142 l 1
 370 80 l 1
 24 80 l 1
97 92 m 1
 24 80 l 1
 261 420 l 1
 304 420 l 1
 304 0 l 1
 231 0 l 1
 231 102 l 0
 236 108 l 0
 236 293 l 1
 97 92 l 1
EndSplineSet
EndChar

StartChar: uni2085
Encoding: 8325 8325 177
Width: 372
VWidth: 0
Flags: HMW
LayerCount: 2
Fore
SplineSet
341 134 m 0
 341 37 266 -9 185 -9 c 0
 108 -9 61 26 29 66 c 1
 70 118 l 1
 95 85 136 57 176 57 c 0
 232 57 265 88 265 139 c 0
 265 190 225 220 176 220 c 0
 139 220 108 212 65 186 c 1
 111 231 l 1
 141 263 177 275 215 275 c 0
 285 275 341 219 341 134 c 0
174 356 m 1
 142 239 l 1
 65 186 l 1
 121 418 l 1
 337 418 l 1
 337 356 l 1
 174 356 l 1
EndSplineSet
EndChar

StartChar: uni2086
Encoding: 8326 8326 178
Width: 365
VWidth: 0
Flags: HMW
LayerCount: 2
Fore
SplineSet
101 140 m 0
 101 88 138 53 186 53 c 0
 234 53 270 88 270 140 c 0
 270 192 234 228 186 228 c 0
 138 228 101 192 101 140 c 0
200 417 m 1
 290 417 l 1
 157 253 l 1
 147 251 l 1
 165 272 185 276 213 276 c 0
 279 276 340 220 340 140 c 0
 340 47 272 -10 186 -10 c 0
 100 -10 31 47 31 140 c 0
 31 178 47 212 67 239 c 2
 200 417 l 1
EndSplineSet
EndChar

StartChar: uni2087
Encoding: 8327 8327 179
Width: 366
VWidth: 0
Flags: HMW
LayerCount: 2
Fore
SplineSet
29 353 m 1
 29 420 l 1
 342 420 l 1
 141 0 l 1
 65 0 l 1
 237 353 l 1
 29 353 l 1
EndSplineSet
EndChar

StartChar: uni2088
Encoding: 8328 8328 180
Width: 340
VWidth: 0
Flags: HMW
LayerCount: 2
Fore
SplineSet
44 319 m 0
 44 382 100 428 170 428 c 0
 240 428 297 382 297 319 c 0
 297 250 239 210 170 210 c 0
 101 210 44 250 44 319 c 0
112 311 m 0
 112 275 138 252 170 252 c 0
 202 252 229 275 229 311 c 0
 229 347 205 371 170 371 c 0
 135 371 112 347 112 311 c 0
29 114 m 0
 29 195 101 236 170 236 c 0
 239 236 312 195 312 114 c 0
 312 45 248 -8 170 -8 c 0
 92 -8 29 45 29 114 c 0
99 124 m 0
 99 78 132 53 170 53 c 0
 208 53 242 78 242 124 c 0
 242 164 208 194 170 194 c 0
 132 194 99 164 99 124 c 0
EndSplineSet
EndChar

StartChar: uni2089
Encoding: 8329 8329 181
Width: 366
VWidth: 0
Flags: HMW
LayerCount: 2
Fore
SplineSet
264 280 m 0
 264 332 227 367 179 367 c 0
 131 367 94 332 94 280 c 0
 94 228 131 192 179 192 c 0
 227 192 264 228 264 280 c 0
165 3 m 1
 74 3 l 1
 208 167 l 1
 218 169 l 1
 200 148 179 144 151 144 c 0
 85 144 25 200 25 280 c 0
 25 373 93 430 179 430 c 0
 265 430 333 373 333 280 c 0
 333 242 318 208 298 181 c 2
 165 3 l 1
EndSplineSet
EndChar

StartChar: uni2081
Encoding: 8321 8321 182
Width: 332
VWidth: 0
Flags: HMW
LayerCount: 2
Fore
SplineSet
90 322 m 1
 90 390 l 1
 257 428 l 1
 257 1 l 1
 187 1 l 1
 187 350 l 1
 90 322 l 1
EndSplineSet
EndChar

StartChar: uni2082
Encoding: 8322 8322 183
Width: 372
VWidth: 0
Flags: HMW
LayerCount: 2
Fore
SplineSet
26 2 m 1
 220 207 l 2
 250 239 268 266 268 300 c 0
 268 333 246 366 200 366 c 0
 152 366 119 330 119 274 c 1
 49 274 l 1
 49 363 105 430 201 430 c 0
 298 430 341 359 341 299 c 0
 341 255 317 217 283 184 c 2
 164 68 l 1
 346 68 l 1
 346 2 l 1
 26 2 l 1
EndSplineSet
EndChar

StartChar: uni2083
Encoding: 8323 8323 184
Width: 336
VWidth: 0
Flags: HMW
LayerCount: 2
Fore
SplineSet
148 205 m 1
 148 244 l 1
 199 244 230 274 230 310 c 0
 230 344 210 367 172 367 c 0
 136 367 109 342 109 308 c 1
 42 308 l 1
 42 377 96 427 173 427 c 0
 254 427 302 374 302 313 c 0
 302 249 237 205 148 205 c 1
169 -8 m 0
 80 -8 24 51 24 120 c 1
 95 120 l 1
 95 79 128 54 171 54 c 0
 214 54 242 78 242 120 c 0
 242 165 205 191 148 191 c 1
 148 231 l 1
 241 231 314 197 314 113 c 0
 314 41 255 -8 169 -8 c 0
EndSplineSet
EndChar

StartChar: Agrave
Encoding: 192 192 185
Width: 690
VWidth: 0
Flags: HMW
LayerCount: 2
Fore
SplineSet
162 180 m 1
 185 280 l 1
 509 280 l 1
 532 180 l 1
 162 180 l 1
345 502 m 1
 235 245 l 1
 233 219 l 1
 136 0 l 1
 3 0 l 1
 345 739 l 1
 687 0 l 1
 554 0 l 1
 459 213 l 1
 456 242 l 1
 345 502 l 1
202 949 m 1
 294 994 l 1
 444 834 l 1
 382 799 l 1
 202 949 l 1
EndSplineSet
EndChar

StartChar: Aacute
Encoding: 193 193 186
Width: 690
VWidth: 0
Flags: HMW
LayerCount: 2
Fore
SplineSet
162 180 m 1
 185 280 l 1
 509 280 l 1
 532 180 l 1
 162 180 l 1
345 502 m 1
 235 245 l 1
 233 219 l 1
 136 0 l 1
 3 0 l 1
 345 739 l 1
 687 0 l 1
 554 0 l 1
 459 213 l 1
 456 242 l 1
 345 502 l 1
486 949 m 1
 306 799 l 1
 245 834 l 1
 395 994 l 1
 486 949 l 1
EndSplineSet
EndChar

StartChar: Acircumflex
Encoding: 194 194 187
Width: 690
VWidth: 0
Flags: HMW
LayerCount: 2
Fore
SplineSet
162 180 m 1
 185 280 l 1
 509 280 l 1
 532 180 l 1
 162 180 l 1
345 502 m 1
 235 245 l 1
 233 219 l 1
 136 0 l 1
 3 0 l 1
 345 739 l 1
 687 0 l 1
 554 0 l 1
 459 213 l 1
 456 242 l 1
 345 502 l 1
345 860 m 1
 242 769 l 1
 170 821 l 1
 345 961 l 1
 520 821 l 1
 448 769 l 1
 345 860 l 1
EndSplineSet
EndChar

StartChar: Atilde
Encoding: 195 195 188
Width: 690
VWidth: 0
Flags: HMW
LayerCount: 2
Fore
SplineSet
162 180 m 1
 185 280 l 1
 509 280 l 1
 532 180 l 1
 162 180 l 1
345 502 m 1
 235 245 l 1
 233 219 l 1
 136 0 l 1
 3 0 l 1
 345 739 l 1
 687 0 l 1
 554 0 l 1
 459 213 l 1
 456 242 l 1
 345 502 l 1
167 832 m 1
 177 881 225 919 278 919 c 0
 343 919 352 870 407 870 c 0
 428 870 447 888 467 920 c 1
 523 865 l 1
 507 828 460 787 405 787 c 0
 350 787 324 836 277 836 c 0
 237 836 228 800 228 785 c 1
 167 832 l 1
EndSplineSet
EndChar

StartChar: Adieresis
Encoding: 196 196 189
Width: 690
VWidth: 0
Flags: HMW
LayerCount: 2
Fore
SplineSet
162 180 m 1
 185 280 l 1
 509 280 l 1
 532 180 l 1
 162 180 l 1
345 502 m 1
 235 245 l 1
 233 219 l 1
 136 0 l 1
 3 0 l 1
 345 739 l 1
 687 0 l 1
 554 0 l 1
 459 213 l 1
 456 242 l 1
 345 502 l 1
393 842 m 0
 393 879 423 908 461 908 c 0
 499 908 529 879 529 842 c 0
 529 805 499 776 461 776 c 0
 423 776 393 805 393 842 c 0
158 844 m 0
 158 881 188 910 226 910 c 0
 264 910 295 881 295 844 c 0
 295 807 264 779 226 779 c 0
 188 779 158 807 158 844 c 0
EndSplineSet
EndChar

StartChar: Aring
Encoding: 197 197 190
Width: 690
VWidth: 0
Flags: HMW
LayerCount: 2
Fore
SplineSet
162 180 m 1
 185 280 l 1
 509 280 l 1
 532 180 l 1
 162 180 l 1
345 502 m 1
 235 245 l 1
 233 219 l 1
 136 0 l 1
 3 0 l 1
 345 739 l 1
 687 0 l 1
 554 0 l 1
 459 213 l 1
 456 242 l 1
 345 502 l 1
234 799 m 0
 234 863 286 905 345 905 c 0
 404 905 456 863 456 799 c 0
 456 735 404 693 345 693 c 0
 286 693 234 735 234 799 c 0
296 799 m 0
 296 767 320 748 345 748 c 0
 370 748 394 767 394 799 c 0
 394 831 370 850 345 850 c 0
 320 850 296 831 296 799 c 0
EndSplineSet
EndChar

StartChar: AE
Encoding: 198 198 191
Width: 1010
VWidth: 0
Flags: HMW
LayerCount: 2
Fore
SplineSet
238 186 m 1
 241 296 l 1
 541 296 l 1
 541 186 l 1
 238 186 l 1
436 700 m 1
 543 660 l 1
 151 0 l 1
 9 0 l 1
 436 700 l 1
575 0 m 1
 575 104 l 1
 940 104 l 1
 940 0 l 1
 575 0 l 1
583 596 m 1
 436 700 l 1
 940 700 l 1
 940 596 l 1
 583 596 l 1
575 324 m 1
 575 426 l 1
 920 426 l 1
 920 324 l 1
 575 324 l 1
514 700 m 1
 637 700 l 1
 637 0 l 1
 514 0 l 1
 514 700 l 1
EndSplineSet
EndChar

StartChar: Ccedilla
Encoding: 199 199 192
Width: 691
VWidth: 0
Flags: HMW
LayerCount: 2
Fore
SplineSet
166 350 m 0
 166 201 277 103 405 103 c 0
 504 103 576 146 624 203 c 1
 624 62 l 1
 566 14 503 -12 401 -12 c 0
 195 -12 38 137 38 350 c 0
 38 563 195 712 401 712 c 0
 503 712 566 686 624 638 c 1
 624 497 l 1
 576 554 504 597 405 597 c 0
 277 597 166 499 166 350 c 0
371 55 m 1
 451 53 l 1
 379 -63 l 1
 385 -62 392 -61 399 -61 c 0
 435 -61 479 -89 479 -145 c 0
 479 -210 421 -245 363 -245 c 0
 318 -245 287 -235 251 -206 c 1
 290 -155 l 1
 311 -172 331 -179 355 -179 c 0
 389 -179 406 -165 406 -141 c 0
 406 -116 385 -107 352 -107 c 0
 342 -107 311 -110 284 -124 c 1
 371 55 l 1
EndSplineSet
EndChar

StartChar: Egrave
Encoding: 200 200 193
Width: 571
VWidth: 0
Flags: HMW
LayerCount: 2
Fore
SplineSet
151 0 m 1
 151 104 l 1
 504 104 l 1
 504 0 l 1
 151 0 l 1
151 596 m 1
 151 700 l 1
 504 700 l 1
 504 596 l 1
 151 596 l 1
151 324 m 1
 151 426 l 1
 484 426 l 1
 484 324 l 1
 151 324 l 1
78 700 m 1
 194 700 l 1
 194 0 l 1
 78 0 l 1
 78 700 l 1
148 925 m 1
 239 970 l 1
 389 810 l 1
 328 775 l 1
 148 925 l 1
EndSplineSet
EndChar

StartChar: Eacute
Encoding: 201 201 194
Width: 571
VWidth: 0
Flags: HMW
LayerCount: 2
Fore
SplineSet
151 0 m 1
 151 104 l 1
 504 104 l 1
 504 0 l 1
 151 0 l 1
151 596 m 1
 151 700 l 1
 504 700 l 1
 504 596 l 1
 151 596 l 1
151 324 m 1
 151 426 l 1
 484 426 l 1
 484 324 l 1
 151 324 l 1
78 700 m 1
 194 700 l 1
 194 0 l 1
 78 0 l 1
 78 700 l 1
432 925 m 1
 252 775 l 1
 191 810 l 1
 341 970 l 1
 432 925 l 1
EndSplineSet
EndChar

StartChar: Ecircumflex
Encoding: 202 202 195
Width: 571
VWidth: 0
Flags: HMW
LayerCount: 2
Fore
SplineSet
151 0 m 1
 151 104 l 1
 504 104 l 1
 504 0 l 1
 151 0 l 1
151 596 m 1
 151 700 l 1
 504 700 l 1
 504 596 l 1
 151 596 l 1
151 324 m 1
 151 426 l 1
 484 426 l 1
 484 324 l 1
 151 324 l 1
78 700 m 1
 194 700 l 1
 194 0 l 1
 78 0 l 1
 78 700 l 1
298 873 m 1
 188 778 l 1
 138 818 l 1
 298 958 l 1
 458 818 l 1
 408 778 l 1
 298 873 l 1
EndSplineSet
EndChar

StartChar: Edieresis
Encoding: 203 203 196
Width: 571
VWidth: 0
Flags: HMW
LayerCount: 2
Fore
SplineSet
151 0 m 1
 151 104 l 1
 504 104 l 1
 504 0 l 1
 151 0 l 1
151 596 m 1
 151 700 l 1
 504 700 l 1
 504 596 l 1
 151 596 l 1
151 324 m 1
 151 426 l 1
 484 426 l 1
 484 324 l 1
 151 324 l 1
78 700 m 1
 194 700 l 1
 194 0 l 1
 78 0 l 1
 78 700 l 1
339 853 m 0
 339 890 369 919 407 919 c 0
 445 919 475 890 475 853 c 0
 475 816 445 788 407 788 c 0
 369 788 339 816 339 853 c 0
121 853 m 0
 121 890 152 919 190 919 c 0
 228 919 258 890 258 853 c 0
 258 816 228 788 190 788 c 0
 152 788 121 816 121 853 c 0
EndSplineSet
EndChar

StartChar: Igrave
Encoding: 204 204 197
Width: 275
VWidth: 0
Flags: HMW
LayerCount: 2
Fore
SplineSet
78 700 m 1
 197 700 l 1
 197 0 l 1
 78 0 l 1
 78 700 l 1
-8 925 m 1
 84 970 l 1
 234 810 l 1
 172 775 l 1
 -8 925 l 1
EndSplineSet
EndChar

StartChar: Iacute
Encoding: 205 205 198
Width: 275
VWidth: 0
Flags: HMW
LayerCount: 2
Fore
SplineSet
78 700 m 1
 197 700 l 1
 197 0 l 1
 78 0 l 1
 78 700 l 1
276 925 m 1
 96 775 l 1
 36 810 l 1
 186 970 l 1
 276 925 l 1
EndSplineSet
EndChar

StartChar: Icircumflex
Encoding: 206 206 199
Width: 275
VWidth: 0
Flags: HMW
LayerCount: 2
Fore
SplineSet
78 700 m 1
 197 700 l 1
 197 0 l 1
 78 0 l 1
 78 700 l 1
137 864 m 1
 35 772 l 1
 -38 825 l 1
 137 965 l 1
 312 825 l 1
 240 772 l 1
 137 864 l 1
EndSplineSet
EndChar

StartChar: Idieresis
Encoding: 207 207 200
Width: 275
VWidth: 0
Flags: HMW
LayerCount: 2
Fore
SplineSet
78 700 m 1
 197 700 l 1
 197 0 l 1
 78 0 l 1
 78 700 l 1
178 838 m 0
 178 875 208 904 246 904 c 0
 284 904 315 875 315 838 c 0
 315 801 284 772 246 772 c 0
 208 772 178 801 178 838 c 0
-39 838 m 0
 -39 875 -10 904 28 904 c 0
 66 904 98 875 98 838 c 0
 98 801 66 772 28 772 c 0
 -10 772 -39 801 -39 838 c 0
EndSplineSet
EndChar

StartChar: Ntilde
Encoding: 209 209 201
Width: 782
VWidth: 0
Flags: HMW
LayerCount: 2
Fore
SplineSet
589 700 m 1
 705 700 l 1
 705 -35 l 1
 194 470 l 1
 194 0 l 1
 78 0 l 1
 78 735 l 1
 589 230 l 1
 589 700 l 1
197 808 m 1
 207 857 255 896 308 896 c 0
 373 896 382 847 437 847 c 0
 458 847 477 865 497 897 c 1
 553 841 l 1
 537 804 490 763 435 763 c 0
 380 763 354 812 307 812 c 0
 267 812 258 776 258 761 c 1
 197 808 l 1
EndSplineSet
EndChar

StartChar: Eth
Encoding: 208 208 202
Width: 701
VWidth: 0
Flags: HMW
LayerCount: 2
Fore
SplineSet
5 307 m 1
 5 392 l 1
 325 392 l 1
 325 307 l 1
 5 307 l 1
78 700 m 1
 199 700 l 1
 199 0 l 1
 78 0 l 1
 78 700 l 1
304 0 m 2
 151 0 l 1
 151 111 l 1
 301 111 l 2
 439 111 543 192 543 350 c 0
 543 508 439 589 301 589 c 2
 151 589 l 1
 151 700 l 1
 304 700 l 2
 518 700 664 561 664 350 c 0
 664 139 518 0 304 0 c 2
EndSplineSet
EndChar

StartChar: Ograve
Encoding: 210 210 203
Width: 802
VWidth: 0
Flags: HMW
LayerCount: 2
Fore
SplineSet
163 350 m 0
 163 206 262 101 401 101 c 0
 540 101 639 206 639 350 c 0
 639 494 542 599 401 599 c 0
 262 599 163 494 163 350 c 0
38 350 m 0
 38 559 193 712 401 712 c 0
 610 712 765 559 765 350 c 0
 765 141 611 -15 401 -15 c 0
 191 -15 38 141 38 350 c 0
270 925 m 1
 361 970 l 1
 511 810 l 1
 450 775 l 1
 270 925 l 1
EndSplineSet
EndChar

StartChar: Oacute
Encoding: 211 211 204
Width: 802
VWidth: 0
Flags: HMW
LayerCount: 2
Fore
SplineSet
163 350 m 0
 163 206 262 101 401 101 c 0
 540 101 639 206 639 350 c 0
 639 494 542 599 401 599 c 0
 262 599 163 494 163 350 c 0
38 350 m 0
 38 559 193 712 401 712 c 0
 610 712 765 559 765 350 c 0
 765 141 611 -15 401 -15 c 0
 191 -15 38 141 38 350 c 0
539 925 m 1
 359 775 l 1
 298 810 l 1
 448 970 l 1
 539 925 l 1
EndSplineSet
EndChar

StartChar: Ocircumflex
Encoding: 212 212 205
Width: 802
VWidth: 0
Flags: HMW
LayerCount: 2
Fore
SplineSet
163 350 m 0
 163 206 262 101 401 101 c 0
 540 101 639 206 639 350 c 0
 639 494 542 599 401 599 c 0
 262 599 163 494 163 350 c 0
38 350 m 0
 38 559 193 712 401 712 c 0
 610 712 765 559 765 350 c 0
 765 141 611 -15 401 -15 c 0
 191 -15 38 141 38 350 c 0
405 873 m 1
 295 778 l 1
 245 818 l 1
 405 958 l 1
 565 818 l 1
 515 778 l 1
 405 873 l 1
EndSplineSet
EndChar

StartChar: Otilde
Encoding: 213 213 206
Width: 802
VWidth: 0
Flags: HMW
LayerCount: 2
Fore
SplineSet
163 350 m 0
 163 206 262 101 401 101 c 0
 540 101 639 206 639 350 c 0
 639 494 542 599 401 599 c 0
 262 599 163 494 163 350 c 0
38 350 m 0
 38 559 193 712 401 712 c 0
 610 712 765 559 765 350 c 0
 765 141 611 -15 401 -15 c 0
 191 -15 38 141 38 350 c 0
238 821 m 1
 248 870 297 903 342 903 c 0
 407 903 412 856 466 856 c 0
 485 856 502 872 522 904 c 1
 568 861 l 1
 552 824 512 788 462 788 c 0
 407 788 386 835 341 835 c 0
 300 835 291 799 291 784 c 1
 238 821 l 1
EndSplineSet
EndChar

StartChar: Odieresis
Encoding: 214 214 207
Width: 802
VWidth: 0
Flags: HMW
LayerCount: 2
Fore
SplineSet
163 350 m 0
 163 206 262 101 401 101 c 0
 540 101 639 206 639 350 c 0
 639 494 542 599 401 599 c 0
 262 599 163 494 163 350 c 0
38 350 m 0
 38 559 193 712 401 712 c 0
 610 712 765 559 765 350 c 0
 765 141 611 -15 401 -15 c 0
 191 -15 38 141 38 350 c 0
442 838 m 0
 442 875 472 904 510 904 c 0
 548 904 578 875 578 838 c 0
 578 801 548 772 510 772 c 0
 472 772 442 801 442 838 c 0
224 838 m 0
 224 875 255 904 293 904 c 0
 331 904 361 875 361 838 c 0
 361 801 331 772 293 772 c 0
 255 772 224 801 224 838 c 0
EndSplineSet
EndChar

StartChar: Ugrave
Encoding: 217 217 208
Width: 656
VWidth: 0
Flags: HMW
LayerCount: 2
Fore
SplineSet
73 700 m 1
 191 700 l 1
 191 235 l 2
 191 149 238 91 328 91 c 0
 418 91 465 149 465 235 c 2
 465 700 l 1
 583 700 l 1
 583 230 l 2
 583 76 478 -18 328 -18 c 0
 178 -18 73 76 73 230 c 2
 73 700 l 1
185 922 m 1
 277 968 l 1
 427 808 l 1
 365 772 l 1
 185 922 l 1
EndSplineSet
EndChar

StartChar: Uacute
Encoding: 218 218 209
Width: 656
VWidth: 0
Flags: HMW
LayerCount: 2
Fore
SplineSet
73 700 m 1
 191 700 l 1
 191 235 l 2
 191 149 238 91 328 91 c 0
 418 91 465 149 465 235 c 2
 465 700 l 1
 583 700 l 1
 583 230 l 2
 583 76 478 -18 328 -18 c 0
 178 -18 73 76 73 230 c 2
 73 700 l 1
471 922 m 1
 291 772 l 1
 229 808 l 1
 379 968 l 1
 471 922 l 1
EndSplineSet
EndChar

StartChar: Ucircumflex
Encoding: 219 219 210
Width: 656
VWidth: 0
Flags: HMW
LayerCount: 2
Fore
SplineSet
73 700 m 1
 191 700 l 1
 191 235 l 2
 191 149 238 91 328 91 c 0
 418 91 465 149 465 235 c 2
 465 700 l 1
 583 700 l 1
 583 230 l 2
 583 76 478 -18 328 -18 c 0
 178 -18 73 76 73 230 c 2
 73 700 l 1
328 864 m 1
 225 772 l 1
 153 825 l 1
 328 965 l 1
 503 825 l 1
 431 772 l 1
 328 864 l 1
EndSplineSet
EndChar

StartChar: Udieresis
Encoding: 220 220 211
Width: 656
VWidth: 0
Flags: HMW
LayerCount: 2
Fore
SplineSet
73 700 m 1
 191 700 l 1
 191 235 l 2
 191 149 238 91 328 91 c 0
 418 91 465 149 465 235 c 2
 465 700 l 1
 583 700 l 1
 583 230 l 2
 583 76 478 -18 328 -18 c 0
 178 -18 73 76 73 230 c 2
 73 700 l 1
376 838 m 0
 376 875 406 904 444 904 c 0
 482 904 512 875 512 838 c 0
 512 801 482 772 444 772 c 0
 406 772 376 801 376 838 c 0
144 838 m 0
 144 875 174 904 212 904 c 0
 250 904 280 875 280 838 c 0
 280 801 250 772 212 772 c 0
 174 772 144 801 144 838 c 0
EndSplineSet
EndChar

StartChar: Yacute
Encoding: 221 221 212
Width: 600
VWidth: 0
Flags: HMW
LayerCount: 2
Fore
SplineSet
442 922 m 1
 262 772 l 1
 202 808 l 1
 352 968 l 1
 442 922 l 1
463 700 m 1
 598 700 l 1
 361 295 l 1
 361 0 l 1
 240 0 l 1
 240 294 l 1
 3 700 l 1
 138 700 l 1
 300 400 l 1
 463 700 l 1
EndSplineSet
EndChar

StartChar: agrave
Encoding: 224 224 213
Width: 508
VWidth: 0
Flags: HMW
LayerCount: 2
Fore
SplineSet
137 136 m 0
 137 93 168 72 222 72 c 0
 292 72 345 101 345 182 c 1
 361 130 l 1
 361 41 284 -10 189 -10 c 0
 92 -10 28 41 28 126 c 0
 28 228 112 283 225 283 c 0
 305 283 362 246 378 227 c 1
 378 170 l 1
 337 200 297 214 241 214 c 0
 172 214 137 184 137 136 c 0
113 338 m 1
 70 416 l 1
 112 441 176 471 259 471 c 0
 372 471 451 419 451 328 c 2
 451 0 l 1
 345 0 l 1
 345 316 l 2
 345 359 304 383 254 383 c 0
 188 383 135 353 113 338 c 1
94 681 m 1
 185 726 l 1
 335 566 l 1
 274 531 l 1
 94 681 l 1
EndSplineSet
Substitution2: "alt a" agrave.alt
EndChar

StartChar: aacute
Encoding: 225 225 214
Width: 508
VWidth: 0
Flags: HMW
LayerCount: 2
Fore
SplineSet
137 136 m 0
 137 93 168 72 222 72 c 0
 292 72 345 101 345 182 c 1
 361 130 l 1
 361 41 284 -10 189 -10 c 0
 92 -10 28 41 28 126 c 0
 28 228 112 283 225 283 c 0
 305 283 362 246 378 227 c 1
 378 170 l 1
 337 200 297 214 241 214 c 0
 172 214 137 184 137 136 c 0
113 338 m 1
 70 416 l 1
 112 441 176 471 259 471 c 0
 372 471 451 419 451 328 c 2
 451 0 l 1
 345 0 l 1
 345 316 l 2
 345 359 304 383 254 383 c 0
 188 383 135 353 113 338 c 1
424 681 m 1
 244 531 l 1
 183 566 l 1
 333 726 l 1
 424 681 l 1
EndSplineSet
Substitution2: "alt a" aacute.alt
EndChar

StartChar: acircumflex
Encoding: 226 226 215
Width: 508
VWidth: 0
Flags: HMW
LayerCount: 2
Fore
SplineSet
137 136 m 0
 137 93 168 72 222 72 c 0
 292 72 345 101 345 182 c 1
 361 130 l 1
 361 41 284 -10 189 -10 c 0
 92 -10 28 41 28 126 c 0
 28 228 112 283 225 283 c 0
 305 283 362 246 378 227 c 1
 378 170 l 1
 337 200 297 214 241 214 c 0
 172 214 137 184 137 136 c 0
113 338 m 1
 70 416 l 1
 112 441 176 471 259 471 c 0
 372 471 451 419 451 328 c 2
 451 0 l 1
 345 0 l 1
 345 316 l 2
 345 359 304 383 254 383 c 0
 188 383 135 353 113 338 c 1
259 623 m 1
 157 531 l 1
 84 584 l 1
 259 724 l 1
 434 584 l 1
 362 531 l 1
 259 623 l 1
EndSplineSet
Substitution2: "alt a" acircumflex.alt
EndChar

StartChar: atilde
Encoding: 227 227 216
Width: 508
VWidth: 0
Flags: HMW
LayerCount: 2
Fore
SplineSet
137 136 m 0
 137 93 168 72 222 72 c 0
 292 72 345 101 345 182 c 1
 361 130 l 1
 361 41 284 -10 189 -10 c 0
 92 -10 28 41 28 126 c 0
 28 228 112 283 225 283 c 0
 305 283 362 246 378 227 c 1
 378 170 l 1
 337 200 297 214 241 214 c 0
 172 214 137 184 137 136 c 0
113 338 m 1
 70 416 l 1
 112 441 176 471 259 471 c 0
 372 471 451 419 451 328 c 2
 451 0 l 1
 345 0 l 1
 345 316 l 2
 345 359 304 383 254 383 c 0
 188 383 135 353 113 338 c 1
82 580 m 1
 92 629 139 667 192 667 c 0
 257 667 266 618 321 618 c 0
 342 618 361 636 381 668 c 1
 437 612 l 1
 421 575 374 534 319 534 c 0
 264 534 238 584 191 584 c 0
 151 584 142 548 142 533 c 1
 82 580 l 1
EndSplineSet
Substitution2: "alt a" atilde.alt
EndChar

StartChar: adieresis
Encoding: 228 228 217
Width: 508
VWidth: 0
Flags: HMW
LayerCount: 2
Fore
SplineSet
137 136 m 0
 137 93 168 72 222 72 c 0
 292 72 345 101 345 182 c 1
 361 130 l 1
 361 41 284 -10 189 -10 c 0
 92 -10 28 41 28 126 c 0
 28 228 112 283 225 283 c 0
 305 283 362 246 378 227 c 1
 378 170 l 1
 337 200 297 214 241 214 c 0
 172 214 137 184 137 136 c 0
113 338 m 1
 70 416 l 1
 112 441 176 471 259 471 c 0
 372 471 451 419 451 328 c 2
 451 0 l 1
 345 0 l 1
 345 316 l 2
 345 359 304 383 254 383 c 0
 188 383 135 353 113 338 c 1
300 597 m 0
 300 634 330 663 368 663 c 0
 406 663 436 634 436 597 c 0
 436 560 406 531 368 531 c 0
 330 531 300 560 300 597 c 0
82 597 m 0
 82 634 112 663 150 663 c 0
 188 663 219 634 219 597 c 0
 219 560 188 531 150 531 c 0
 112 531 82 560 82 597 c 0
EndSplineSet
Substitution2: "alt a" adieresis.alt
EndChar

StartChar: aring
Encoding: 229 229 218
Width: 508
VWidth: 0
Flags: HMW
LayerCount: 2
Fore
SplineSet
137 136 m 0
 137 93 168 72 222 72 c 0
 292 72 345 101 345 182 c 1
 361 130 l 1
 361 41 284 -10 189 -10 c 0
 92 -10 28 41 28 126 c 0
 28 228 112 283 225 283 c 0
 305 283 362 246 378 227 c 1
 378 170 l 1
 337 200 297 214 241 214 c 0
 172 214 137 184 137 136 c 0
113 338 m 1
 70 416 l 1
 112 441 176 471 259 471 c 0
 372 471 451 419 451 328 c 2
 451 0 l 1
 345 0 l 1
 345 316 l 2
 345 359 304 383 254 383 c 0
 188 383 135 353 113 338 c 1
148 638 m 0
 148 702 200 744 259 744 c 0
 318 744 370 702 370 638 c 0
 370 574 318 531 259 531 c 0
 200 531 148 574 148 638 c 0
210 638 m 0
 210 606 234 587 259 587 c 0
 284 587 308 606 308 638 c 0
 308 670 284 689 259 689 c 0
 234 689 210 670 210 638 c 0
EndSplineSet
Substitution2: "alt a" aring.alt
EndChar

StartChar: germandbls
Encoding: 223 223 219
Width: 580
VWidth: 0
Flags: HMW
LayerCount: 2
Fore
SplineSet
354 -12 m 0
 296 -12 245 12 210 45 c 1
 252 127 l 1
 281 100 317 82 353 82 c 0
 409 82 450 125 450 179 c 0
 450 285 287 290 287 396 c 0
 287 482 391 516 391 614 c 0
 391 675 344 697 288 697 c 0
 218 697 170 660 170 573 c 2
 171 -2 l 1
 62 -2 l 1
 62 586 l 2
 62 713 152 795 298 795 c 0
 416 795 504 742 504 630 c 0
 504 499 404 476 404 402 c 0
 404 334 563 330 563 186 c 0
 563 76 467 -12 354 -12 c 0
EndSplineSet
EndChar

StartChar: ae
Encoding: 230 230 220
Width: 853
VWidth: 0
Flags: HMW
LayerCount: 2
Fore
SplineSet
212 -10 m 0
 98 -10 28 42 28 126 c 0
 28 220 108 283 225 283 c 0
 281 283 324 270 399 228 c 1
 345 228 l 1
 345 293 l 2
 345 351 312 383 254 383 c 0
 209 383 152 365 113 338 c 1
 70 416 l 1
 130 453 194 471 259 471 c 0
 353 471 408 433 417 358 c 1
 406 358 l 1
 444 429 517 470 604 470 c 0
 734 470 819 377 819 235 c 0
 819 222 818 210 817 205 c 1
 438 205 l 1
 459 224 l 1
 461 131 507 79 589 79 c 0
 646 79 692 103 721 152 c 1
 814 115 l 1
 764 32 687 -10 584 -10 c 0
 488 -10 429 26 393 107 c 1
 404 107 l 1
 388 34 316 -10 212 -10 c 0
222 72 m 0
 302 72 343 110 352 190 c 1
 350 123 l 1
 345 211 l 1
 359 184 l 1
 325 204 284 214 241 214 c 0
 173 214 137 187 137 136 c 0
 137 92 164 72 222 72 c 0
458 238 m 1
 438 280 l 1
 724 280 l 1
 701 250 l 1
 703 256 703 258 703 266 c 0
 703 342 659 388 587 388 c 0
 508 388 458 331 458 238 c 1
EndSplineSet
EndChar

StartChar: ccedilla
Encoding: 231 231 221
Width: 484
VWidth: 0
Flags: HMW
LayerCount: 2
Fore
SplineSet
141 230 m 0
 141 143 203 83 284 83 c 0
 350 83 411 116 434 161 c 1
 434 42 l 1
 402 9 344 -10 279 -10 c 0
 136 -10 30 89 30 230 c 0
 30 371 136 470 279 470 c 0
 344 470 402 450 434 419 c 1
 434 299 l 1
 411 344 348 377 284 377 c 0
 203 377 141 315 141 230 c 0
250 60 m 1
 330 58 l 1
 257 -58 l 1
 263 -57 271 -56 278 -56 c 0
 314 -56 357 -84 357 -140 c 0
 357 -205 299 -240 241 -240 c 0
 196 -240 166 -230 130 -201 c 1
 168 -150 l 1
 189 -167 209 -174 233 -174 c 0
 267 -174 285 -160 285 -136 c 0
 285 -111 264 -102 231 -102 c 0
 221 -102 190 -105 163 -119 c 1
 250 60 l 1
EndSplineSet
EndChar

StartChar: egrave
Encoding: 232 232 222
Width: 538
VWidth: 0
Flags: HMW
LayerCount: 2
Fore
SplineSet
98 205 m 1
 98 280 l 1
 387 280 l 1
 379 345 343 388 273 388 c 0
 201 388 146 339 146 258 c 1
 144 230 l 1
 144 129 196 79 274 79 c 0
 336 79 379 107 406 152 c 1
 500 115 l 1
 454 40 393 -10 269 -10 c 0
 126 -10 34 91 34 230 c 0
 34 247 35 263 38 279 c 0
 57 392 143 470 274 470 c 0
 416 470 504 380 504 235 c 0
 504 227 504 216 503 205 c 1
 98 205 l 1
124 688 m 1
 216 733 l 1
 366 573 l 1
 304 538 l 1
 124 688 l 1
EndSplineSet
EndChar

StartChar: eacute
Encoding: 233 233 223
Width: 538
VWidth: 0
Flags: HMW
LayerCount: 2
Fore
SplineSet
98 205 m 1
 98 280 l 1
 387 280 l 1
 379 345 343 388 273 388 c 0
 201 388 146 339 146 258 c 1
 144 230 l 1
 144 129 196 79 274 79 c 0
 336 79 379 107 406 152 c 1
 500 115 l 1
 454 40 393 -10 269 -10 c 0
 126 -10 34 91 34 230 c 0
 34 247 35 263 38 279 c 0
 57 392 143 470 274 470 c 0
 416 470 504 380 504 235 c 0
 504 227 504 216 503 205 c 1
 98 205 l 1
439 688 m 1
 259 538 l 1
 198 573 l 1
 348 733 l 1
 439 688 l 1
EndSplineSet
EndChar

StartChar: ecircumflex
Encoding: 234 234 224
Width: 538
VWidth: 0
Flags: HMW
LayerCount: 2
Fore
SplineSet
98 205 m 1
 98 280 l 1
 387 280 l 1
 379 345 343 388 273 388 c 0
 201 388 146 339 146 258 c 1
 144 230 l 1
 144 129 196 79 274 79 c 0
 336 79 379 107 406 152 c 1
 500 115 l 1
 454 40 393 -10 269 -10 c 0
 126 -10 34 91 34 230 c 0
 34 247 35 263 38 279 c 0
 57 392 143 470 274 470 c 0
 416 470 504 380 504 235 c 0
 504 227 504 216 503 205 c 1
 98 205 l 1
274 621 m 1
 172 530 l 1
 99 583 l 1
 274 723 l 1
 449 583 l 1
 377 530 l 1
 274 621 l 1
EndSplineSet
EndChar

StartChar: edieresis
Encoding: 235 235 225
Width: 538
VWidth: 0
Flags: HMW
LayerCount: 2
Fore
SplineSet
98 205 m 1
 98 280 l 1
 387 280 l 1
 379 345 343 388 273 388 c 0
 201 388 146 339 146 258 c 1
 144 230 l 1
 144 129 196 79 274 79 c 0
 336 79 379 107 406 152 c 1
 500 115 l 1
 454 40 393 -10 269 -10 c 0
 126 -10 34 91 34 230 c 0
 34 247 35 263 38 279 c 0
 57 392 143 470 274 470 c 0
 416 470 504 380 504 235 c 0
 504 227 504 216 503 205 c 1
 98 205 l 1
315 596 m 0
 315 633 345 662 383 662 c 0
 421 662 451 633 451 596 c 0
 451 559 421 530 383 530 c 0
 345 530 315 559 315 596 c 0
97 596 m 0
 97 633 127 662 165 662 c 0
 203 662 234 633 234 596 c 0
 234 559 203 530 165 530 c 0
 127 530 97 559 97 596 c 0
EndSplineSet
EndChar

StartChar: igrave
Encoding: 236 236 226
Width: 266
VWidth: 0
Flags: HMW
LayerCount: 2
Fore
SplineSet
80 460 m 1
 186 460 l 1
 186 0 l 1
 80 0 l 1
 80 460 l 1
-35 695 m 1
 56 740 l 1
 206 580 l 1
 145 545 l 1
 -35 695 l 1
EndSplineSet
EndChar

StartChar: dotlessi
Encoding: 305 305 227
Width: 266
VWidth: 0
Flags: HMW
LayerCount: 2
Fore
SplineSet
80 460 m 1
 186 460 l 1
 186 0 l 1
 80 0 l 1
 80 460 l 1
EndSplineSet
EndChar

StartChar: kgreenlandic
Encoding: 312 312 228
Width: 494
VWidth: 0
Flags: HMW
LayerCount: 2
Fore
SplineSet
65 460 m 1
 171 460 l 1
 171 0 l 1
 65 0 l 1
 65 460 l 1
340 460 m 1
 472 460 l 1
 274 270 l 1
 492 0 l 1
 361 0 l 1
 142 270 l 1
 340 460 l 1
EndSplineSet
EndChar

StartChar: iacute
Encoding: 237 237 229
Width: 266
VWidth: 0
Flags: HMW
LayerCount: 2
Fore
SplineSet
80 460 m 1
 186 460 l 1
 186 0 l 1
 80 0 l 1
 80 460 l 1
298 695 m 1
 118 545 l 1
 57 580 l 1
 207 740 l 1
 298 695 l 1
EndSplineSet
EndChar

StartChar: icircumflex
Encoding: 238 238 230
Width: 266
VWidth: 0
Flags: HMW
LayerCount: 2
Fore
SplineSet
80 460 m 1
 186 460 l 1
 186 0 l 1
 80 0 l 1
 80 460 l 1
133 629 m 1
 30 538 l 1
 -42 590 l 1
 133 730 l 1
 308 590 l 1
 236 538 l 1
 133 629 l 1
EndSplineSet
EndChar

StartChar: idieresis
Encoding: 239 239 231
Width: 266
VWidth: 0
Flags: HMW
LayerCount: 2
Fore
SplineSet
80 460 m 1
 186 460 l 1
 186 0 l 1
 80 0 l 1
 80 460 l 1
174 619 m 0
 174 656 204 684 242 684 c 0
 280 684 310 656 310 619 c 0
 310 582 280 553 242 553 c 0
 204 553 174 582 174 619 c 0
-44 619 m 0
 -44 656 -14 684 24 684 c 0
 62 684 93 656 93 619 c 0
 93 582 62 553 24 553 c 0
 -14 553 -44 582 -44 619 c 0
EndSplineSet
EndChar

StartChar: ntilde
Encoding: 241 241 232
Width: 545
VWidth: 0
Flags: HMW
LayerCount: 2
Fore
SplineSet
177 460 m 1
 177 0 l 1
 69 0 l 1
 69 460 l 1
 177 460 l 1
365 280 m 2
 365 347 339 383 280 383 c 0
 219 383 177 341 177 280 c 1
 144 278 l 1
 144 387 213 470 316 470 c 0
 419 470 476 409 476 292 c 2
 476 0 l 1
 365 0 l 1
 365 280 l 2
96 579 m 1
 106 628 153 666 206 666 c 0
 271 666 279 617 334 617 c 0
 355 617 374 635 394 667 c 1
 450 611 l 1
 434 574 388 533 333 533 c 0
 278 533 252 583 205 583 c 0
 165 583 156 547 156 532 c 1
 96 579 l 1
EndSplineSet
EndChar

StartChar: ograve
Encoding: 242 242 233
Width: 563
VWidth: 0
Flags: HMW
LayerCount: 2
Fore
SplineSet
34 230 m 0
 34 371 141 470 282 470 c 0
 423 470 530 371 530 230 c 0
 530 89 423 -10 282 -10 c 0
 141 -10 34 89 34 230 c 0
145 230 m 0
 145 144 204 85 282 85 c 0
 360 85 419 144 419 230 c 0
 419 316 360 375 282 375 c 0
 204 375 145 316 145 230 c 0
122 695 m 1
 213 740 l 1
 363 580 l 1
 302 545 l 1
 122 695 l 1
EndSplineSet
EndChar

StartChar: oacute
Encoding: 243 243 234
Width: 563
VWidth: 0
Flags: HMW
LayerCount: 2
Fore
SplineSet
34 230 m 0
 34 371 141 470 282 470 c 0
 423 470 530 371 530 230 c 0
 530 89 423 -10 282 -10 c 0
 141 -10 34 89 34 230 c 0
145 230 m 0
 145 144 204 85 282 85 c 0
 360 85 419 144 419 230 c 0
 419 316 360 375 282 375 c 0
 204 375 145 316 145 230 c 0
442 695 m 1
 262 545 l 1
 200 580 l 1
 350 740 l 1
 442 695 l 1
EndSplineSet
EndChar

StartChar: ocircumflex
Encoding: 244 244 235
Width: 563
VWidth: 0
Flags: HMW
LayerCount: 2
Fore
SplineSet
34 230 m 0
 34 371 141 470 282 470 c 0
 423 470 530 371 530 230 c 0
 530 89 423 -10 282 -10 c 0
 141 -10 34 89 34 230 c 0
145 230 m 0
 145 144 204 85 282 85 c 0
 360 85 419 144 419 230 c 0
 419 316 360 375 282 375 c 0
 204 375 145 316 145 230 c 0
282 637 m 1
 179 545 l 1
 107 598 l 1
 282 738 l 1
 457 598 l 1
 384 545 l 1
 282 637 l 1
EndSplineSet
EndChar

StartChar: otilde
Encoding: 245 245 236
Width: 563
VWidth: 0
Flags: HMW
LayerCount: 2
Fore
SplineSet
34 230 m 0
 34 371 141 470 282 470 c 0
 423 470 530 371 530 230 c 0
 530 89 423 -10 282 -10 c 0
 141 -10 34 89 34 230 c 0
145 230 m 0
 145 144 204 85 282 85 c 0
 360 85 419 144 419 230 c 0
 419 316 360 375 282 375 c 0
 204 375 145 316 145 230 c 0
104 579 m 1
 114 628 161 666 214 666 c 0
 279 666 289 617 344 617 c 0
 365 617 383 635 403 667 c 1
 459 611 l 1
 443 574 397 533 342 533 c 0
 287 533 260 583 213 583 c 0
 173 583 165 547 165 532 c 1
 104 579 l 1
EndSplineSet
EndChar

StartChar: odieresis
Encoding: 246 246 237
Width: 563
VWidth: 0
Flags: HMW
LayerCount: 2
Fore
SplineSet
34 230 m 0
 34 371 141 470 282 470 c 0
 423 470 530 371 530 230 c 0
 530 89 423 -10 282 -10 c 0
 141 -10 34 89 34 230 c 0
145 230 m 0
 145 144 204 85 282 85 c 0
 360 85 419 144 419 230 c 0
 419 316 360 375 282 375 c 0
 204 375 145 316 145 230 c 0
322 619 m 0
 322 656 353 684 391 684 c 0
 429 684 459 656 459 619 c 0
 459 582 429 553 391 553 c 0
 353 553 322 582 322 619 c 0
105 619 m 0
 105 656 135 684 173 684 c 0
 211 684 241 656 241 619 c 0
 241 582 211 553 173 553 c 0
 135 553 105 582 105 619 c 0
EndSplineSet
EndChar

StartChar: ugrave
Encoding: 249 249 238
Width: 545
VWidth: 0
Flags: HMW
LayerCount: 2
Fore
SplineSet
368 0 m 1
 368 460 l 1
 476 460 l 1
 476 0 l 1
 368 0 l 1
180 180 m 2
 180 113 206 77 265 77 c 0
 326 77 368 119 368 180 c 1
 401 182 l 1
 401 73 332 -10 229 -10 c 0
 126 -10 69 51 69 168 c 2
 69 460 l 1
 180 460 l 1
 180 180 l 2
142 695 m 1
 234 740 l 1
 384 580 l 1
 322 545 l 1
 142 695 l 1
EndSplineSet
EndChar

StartChar: uacute
Encoding: 250 250 239
Width: 545
VWidth: 0
Flags: HMW
LayerCount: 2
Fore
SplineSet
368 0 m 1
 368 460 l 1
 476 460 l 1
 476 0 l 1
 368 0 l 1
180 180 m 2
 180 113 206 77 265 77 c 0
 326 77 368 119 368 180 c 1
 401 182 l 1
 401 73 332 -10 229 -10 c 0
 126 -10 69 51 69 168 c 2
 69 460 l 1
 180 460 l 1
 180 180 l 2
402 695 m 1
 222 545 l 1
 162 580 l 1
 312 740 l 1
 402 695 l 1
EndSplineSet
EndChar

StartChar: ucircumflex
Encoding: 251 251 240
Width: 545
VWidth: 0
Flags: HMW
LayerCount: 2
Fore
SplineSet
368 0 m 1
 368 460 l 1
 476 460 l 1
 476 0 l 1
 368 0 l 1
180 180 m 2
 180 113 206 77 265 77 c 0
 326 77 368 119 368 180 c 1
 401 182 l 1
 401 73 332 -10 229 -10 c 0
 126 -10 69 51 69 168 c 2
 69 460 l 1
 180 460 l 1
 180 180 l 2
272 637 m 1
 170 545 l 1
 97 598 l 1
 272 738 l 1
 447 598 l 1
 374 545 l 1
 272 637 l 1
EndSplineSet
EndChar

StartChar: udieresis
Encoding: 252 252 241
Width: 545
VWidth: 0
Flags: HMW
LayerCount: 2
Fore
SplineSet
368 0 m 1
 368 460 l 1
 476 460 l 1
 476 0 l 1
 368 0 l 1
180 180 m 2
 180 113 206 77 265 77 c 0
 326 77 368 119 368 180 c 1
 401 182 l 1
 401 73 332 -10 229 -10 c 0
 126 -10 69 51 69 168 c 2
 69 460 l 1
 180 460 l 1
 180 180 l 2
314 611 m 0
 314 648 343 677 381 677 c 0
 419 677 450 648 450 611 c 0
 450 574 419 545 381 545 c 0
 343 545 314 574 314 611 c 0
96 611 m 0
 96 648 126 677 164 677 c 0
 202 677 232 648 232 611 c 0
 232 574 202 545 164 545 c 0
 126 545 96 574 96 611 c 0
EndSplineSet
EndChar

StartChar: yacute
Encoding: 253 253 242
Width: 472
VWidth: 0
Flags: HMW
LayerCount: 2
Fore
SplineSet
476 460 m 1
 176 -220 l 1
 61 -220 l 1
 182 54 l 1
 -4 460 l 1
 120 460 l 1
 267 96 l 1
 216 99 l 1
 360 460 l 1
 476 460 l 1
379 695 m 1
 199 545 l 1
 137 580 l 1
 287 740 l 1
 379 695 l 1
EndSplineSet
EndChar

StartChar: thorn
Encoding: 254 254 243
Width: 588
VWidth: 0
Flags: HMW
LayerCount: 2
Fore
SplineSet
174 -220 m 1
 65 -220 l 1
 65 780 l 1
 174 780 l 1
 174 -220 l 1
555 230 m 0
 555 79 451 -10 331 -10 c 0
 216 -10 135 81 135 230 c 0
 135 379 216 470 331 470 c 0
 451 470 555 381 555 230 c 0
443 230 m 0
 443 322 380 376 305 376 c 0
 243 376 174 324 174 230 c 0
 174 136 243 84 305 84 c 0
 380 84 443 138 443 230 c 0
EndSplineSet
EndChar

StartChar: ydieresis
Encoding: 255 255 244
Width: 472
VWidth: 0
Flags: HMW
LayerCount: 2
Fore
SplineSet
476 460 m 1
 176 -220 l 1
 61 -220 l 1
 182 54 l 1
 -4 460 l 1
 120 460 l 1
 267 96 l 1
 216 99 l 1
 360 460 l 1
 476 460 l 1
277 596 m 0
 277 633 307 662 345 662 c 0
 383 662 413 633 413 596 c 0
 413 559 383 530 345 530 c 0
 307 530 277 559 277 596 c 0
59 596 m 0
 59 633 90 662 128 662 c 0
 166 662 196 633 196 596 c 0
 196 559 166 530 128 530 c 0
 90 530 59 559 59 596 c 0
EndSplineSet
EndChar

StartChar: Amacron
Encoding: 256 256 245
Width: 690
VWidth: 0
Flags: HMW
LayerCount: 2
Fore
SplineSet
162 180 m 1
 185 280 l 1
 509 280 l 1
 532 180 l 1
 162 180 l 1
345 502 m 1
 235 245 l 1
 233 219 l 1
 136 0 l 1
 3 0 l 1
 345 739 l 1
 687 0 l 1
 554 0 l 1
 459 213 l 1
 456 242 l 1
 345 502 l 1
166 799 m 1
 166 896 l 1
 524 896 l 1
 524 799 l 1
 166 799 l 1
EndSplineSet
EndChar

StartChar: amacron
Encoding: 257 257 246
Width: 508
VWidth: 0
Flags: HMW
LayerCount: 2
Fore
SplineSet
137 136 m 0
 137 93 168 72 222 72 c 0
 292 72 345 101 345 182 c 1
 361 130 l 1
 361 41 284 -10 189 -10 c 0
 92 -10 28 41 28 126 c 0
 28 228 112 283 225 283 c 0
 305 283 362 246 378 227 c 1
 378 170 l 1
 337 200 297 214 241 214 c 0
 172 214 137 184 137 136 c 0
113 338 m 1
 70 416 l 1
 112 441 176 471 259 471 c 0
 372 471 451 419 451 328 c 2
 451 0 l 1
 345 0 l 1
 345 316 l 2
 345 359 304 383 254 383 c 0
 188 383 135 353 113 338 c 1
80 546 m 1
 80 644 l 1
 439 644 l 1
 439 546 l 1
 80 546 l 1
EndSplineSet
Substitution2: "alt a" amacron.alt
EndChar

StartChar: breve
Encoding: 728 728 247
Width: 546
VWidth: 0
Flags: HMW
LayerCount: 2
Fore
SplineSet
113 850 m 1
 195 850 l 1
 195 820 215 781 273 781 c 0
 331 781 351 820 351 850 c 1
 433 850 l 1
 433 776 378 708 273 708 c 0
 168 708 113 776 113 850 c 1
EndSplineSet
EndChar

StartChar: Abreve
Encoding: 258 258 248
Width: 690
VWidth: 0
Flags: HMW
LayerCount: 2
Fore
SplineSet
162 180 m 1
 185 280 l 1
 509 280 l 1
 532 180 l 1
 162 180 l 1
345 502 m 1
 235 245 l 1
 233 219 l 1
 136 0 l 1
 3 0 l 1
 345 739 l 1
 687 0 l 1
 554 0 l 1
 459 213 l 1
 456 242 l 1
 345 502 l 1
184 941 m 1
 267 941 l 1
 267 911 287 872 345 872 c 0
 403 872 423 911 423 941 c 1
 506 941 l 1
 506 867 450 799 345 799 c 0
 240 799 184 867 184 941 c 1
EndSplineSet
EndChar

StartChar: abreve
Encoding: 259 259 249
Width: 508
VWidth: 0
Flags: HMW
LayerCount: 2
Fore
SplineSet
137 136 m 0
 137 93 168 72 222 72 c 0
 292 72 345 101 345 182 c 1
 361 130 l 1
 361 41 284 -10 189 -10 c 0
 92 -10 28 41 28 126 c 0
 28 228 112 283 225 283 c 0
 305 283 362 246 378 227 c 1
 378 170 l 1
 337 200 297 214 241 214 c 0
 172 214 137 184 137 136 c 0
113 338 m 1
 70 416 l 1
 112 441 176 471 259 471 c 0
 372 471 451 419 451 328 c 2
 451 0 l 1
 345 0 l 1
 345 316 l 2
 345 359 304 383 254 383 c 0
 188 383 135 353 113 338 c 1
99 674 m 1
 181 674 l 1
 181 644 201 605 259 605 c 0
 317 605 337 644 337 674 c 1
 420 674 l 1
 420 600 364 531 259 531 c 0
 154 531 99 600 99 674 c 1
EndSplineSet
Substitution2: "alt a" abreve.alt
EndChar

StartChar: Aogonek
Encoding: 260 260 250
Width: 690
VWidth: 0
Flags: HMW
LayerCount: 2
Fore
SplineSet
162 180 m 1
 185 280 l 1
 509 280 l 1
 532 180 l 1
 162 180 l 1
345 502 m 1
 235 245 l 1
 233 219 l 1
 136 0 l 1
 3 0 l 1
 345 739 l 1
 687 0 l 1
 554 0 l 1
 459 213 l 1
 456 242 l 1
 345 502 l 1
672 -122 m 1
 705 -180 l 1
 690 -200 661 -220 613 -220 c 0
 537 -220 492 -181 492 -120 c 0
 492 -59 556 -11 626 25 c 1
 667 0 l 1
 615 -24 580 -63 580 -98 c 0
 580 -130 594 -142 622 -142 c 0
 646 -142 658 -135 672 -122 c 1
EndSplineSet
EndChar

StartChar: aogonek
Encoding: 261 261 251
Width: 508
VWidth: 0
Flags: HMW
LayerCount: 2
Fore
SplineSet
137 136 m 0
 137 93 175 72 222 72 c 0
 292 72 345 101 345 182 c 1
 361 130 l 1
 361 41 284 -10 189 -10 c 0
 98 -10 28 39 28 132 c 0
 28 227 104 283 225 283 c 0
 305 283 362 246 378 227 c 1
 378 170 l 1
 337 200 297 214 241 214 c 0
 172 214 137 184 137 136 c 0
113 338 m 1
 70 416 l 1
 112 441 176 471 259 471 c 0
 372 471 451 419 451 328 c 2
 451 0 l 1
 345 0 l 1
 345 316 l 2
 345 359 304 383 254 383 c 0
 188 383 135 353 113 338 c 1
444 -122 m 1
 477 -180 l 1
 462 -200 432 -220 384 -220 c 0
 308 -220 263 -181 263 -120 c 0
 263 -59 328 -11 398 25 c 1
 439 0 l 1
 387 -24 351 -63 351 -98 c 0
 351 -130 366 -142 394 -142 c 0
 418 -142 430 -135 444 -122 c 1
EndSplineSet
Substitution2: "alt a" aogonek.alt
EndChar

StartChar: Cacute
Encoding: 262 262 252
Width: 691
VWidth: 0
Flags: HMW
LayerCount: 2
Fore
SplineSet
166 350 m 0
 166 201 277 103 405 103 c 0
 504 103 576 146 624 203 c 1
 624 62 l 1
 566 14 503 -12 401 -12 c 0
 195 -12 38 137 38 350 c 0
 38 563 195 712 401 712 c 0
 503 712 566 686 624 638 c 1
 624 497 l 1
 576 554 504 597 405 597 c 0
 277 597 166 499 166 350 c 0
531 922 m 1
 351 772 l 1
 290 808 l 1
 440 968 l 1
 531 922 l 1
EndSplineSet
EndChar

StartChar: cacute
Encoding: 263 263 253
Width: 484
VWidth: 0
Flags: HMW
LayerCount: 2
Fore
SplineSet
141 230 m 0
 141 143 203 83 284 83 c 0
 350 83 411 116 434 161 c 1
 434 42 l 1
 402 9 344 -10 279 -10 c 0
 136 -10 30 89 30 230 c 0
 30 371 136 470 279 470 c 0
 344 470 402 450 434 419 c 1
 434 299 l 1
 411 344 348 377 284 377 c 0
 203 377 141 315 141 230 c 0
409 680 m 1
 229 530 l 1
 168 565 l 1
 318 725 l 1
 409 680 l 1
EndSplineSet
EndChar

StartChar: Ccircumflex
Encoding: 264 264 254
Width: 691
VWidth: 0
Flags: HMW
LayerCount: 2
Fore
SplineSet
166 350 m 0
 166 201 277 103 405 103 c 0
 504 103 576 146 624 203 c 1
 624 62 l 1
 566 14 503 -12 401 -12 c 0
 195 -12 38 137 38 350 c 0
 38 563 195 712 401 712 c 0
 503 712 566 686 624 638 c 1
 624 497 l 1
 576 554 504 597 405 597 c 0
 277 597 166 499 166 350 c 0
401 864 m 1
 299 772 l 1
 226 825 l 1
 401 965 l 1
 576 825 l 1
 504 772 l 1
 401 864 l 1
EndSplineSet
EndChar

StartChar: ccircumflex
Encoding: 265 265 255
Width: 484
VWidth: 0
Flags: HMW
LayerCount: 2
Fore
SplineSet
141 230 m 0
 141 143 203 83 284 83 c 0
 350 83 411 116 434 161 c 1
 434 42 l 1
 402 9 344 -10 279 -10 c 0
 136 -10 30 89 30 230 c 0
 30 371 136 470 279 470 c 0
 344 470 402 450 434 419 c 1
 434 299 l 1
 411 344 348 377 284 377 c 0
 203 377 141 315 141 230 c 0
267 621 m 1
 164 530 l 1
 92 583 l 1
 267 723 l 1
 442 583 l 1
 369 530 l 1
 267 621 l 1
EndSplineSet
EndChar

StartChar: Cdotaccent
Encoding: 266 266 256
Width: 691
VWidth: 0
Flags: HMW
LayerCount: 2
Fore
SplineSet
166 350 m 0
 166 201 277 103 405 103 c 0
 504 103 576 146 624 203 c 1
 624 62 l 1
 566 14 503 -12 401 -12 c 0
 195 -12 38 137 38 350 c 0
 38 563 195 712 401 712 c 0
 503 712 566 686 624 638 c 1
 624 497 l 1
 576 554 504 597 405 597 c 0
 277 597 166 499 166 350 c 0
323 838 m 0
 323 875 353 904 391 904 c 0
 429 904 459 875 459 838 c 0
 459 801 429 772 391 772 c 0
 353 772 323 801 323 838 c 0
EndSplineSet
EndChar

StartChar: cdotaccent
Encoding: 267 267 257
Width: 484
VWidth: 0
Flags: HMW
LayerCount: 2
Fore
SplineSet
141 230 m 0
 141 143 203 83 284 83 c 0
 350 83 411 116 434 161 c 1
 434 42 l 1
 402 9 344 -10 279 -10 c 0
 136 -10 30 89 30 230 c 0
 30 371 136 470 279 470 c 0
 344 470 402 450 434 419 c 1
 434 299 l 1
 411 344 348 377 284 377 c 0
 203 377 141 315 141 230 c 0
201 599 m 0
 201 636 231 664 269 664 c 0
 307 664 337 636 337 599 c 0
 337 562 307 533 269 533 c 0
 231 533 201 562 201 599 c 0
EndSplineSet
EndChar

StartChar: Ccaron
Encoding: 268 268 258
Width: 691
VWidth: 0
Flags: HMW
LayerCount: 2
Fore
SplineSet
166 350 m 0
 166 201 277 103 405 103 c 0
 504 103 576 146 624 203 c 1
 624 62 l 1
 566 14 503 -12 401 -12 c 0
 195 -12 38 137 38 350 c 0
 38 563 195 712 401 712 c 0
 503 712 566 686 624 638 c 1
 624 497 l 1
 576 554 504 597 405 597 c 0
 277 597 166 499 166 350 c 0
401 874 m 1
 504 965 l 1
 576 912 l 1
 401 772 l 1
 226 912 l 1
 299 965 l 1
 401 874 l 1
EndSplineSet
EndChar

StartChar: ccaron
Encoding: 269 269 259
Width: 484
VWidth: 0
Flags: HMW
LayerCount: 2
Fore
SplineSet
141 230 m 0
 141 143 203 83 284 83 c 0
 350 83 411 116 434 161 c 1
 434 42 l 1
 402 9 344 -10 279 -10 c 0
 136 -10 30 89 30 230 c 0
 30 371 136 470 279 470 c 0
 344 470 402 450 434 419 c 1
 434 299 l 1
 411 344 348 377 284 377 c 0
 203 377 141 315 141 230 c 0
267 631 m 1
 369 723 l 1
 442 670 l 1
 267 530 l 1
 92 670 l 1
 164 723 l 1
 267 631 l 1
EndSplineSet
EndChar

StartChar: Dcaron
Encoding: 270 270 260
Width: 701
VWidth: 0
Flags: HMW
LayerCount: 2
Fore
SplineSet
78 700 m 1
 199 700 l 1
 199 0 l 1
 78 0 l 1
 78 700 l 1
304 0 m 2
 151 0 l 1
 151 111 l 1
 301 111 l 2
 439 111 543 192 543 350 c 0
 543 508 439 589 301 589 c 2
 151 589 l 1
 151 700 l 1
 304 700 l 2
 518 700 664 561 664 350 c 0
 664 139 518 0 304 0 c 2
348 874 m 1
 451 965 l 1
 523 912 l 1
 348 772 l 1
 173 912 l 1
 246 965 l 1
 348 874 l 1
EndSplineSet
EndChar

StartChar: dcaron
Encoding: 271 271 261
Width: 588
VWidth: 0
Flags: HMW
LayerCount: 2
Fore
SplineSet
415 780 m 1
 524 780 l 1
 524 0 l 1
 415 0 l 1
 415 780 l 1
34 230 m 0
 34 381 138 470 258 470 c 0
 373 470 454 379 454 230 c 0
 454 81 373 -10 258 -10 c 0
 138 -10 34 79 34 230 c 0
146 230 m 0
 146 138 209 84 284 84 c 0
 346 84 415 136 415 230 c 0
 415 324 346 376 284 376 c 0
 209 376 146 322 146 230 c 0
642 780 m 1
 750 749 l 1
 634 499 l 1
 554 521 l 1
 642 780 l 1
EndSplineSet
EndChar

StartChar: Dcroat
Encoding: 272 272 262
Width: 701
VWidth: 0
Flags: HMW
LayerCount: 2
Fore
SplineSet
5 305 m 1
 5 390 l 1
 323 390 l 1
 323 305 l 1
 5 305 l 1
78 700 m 1
 199 700 l 1
 199 0 l 1
 78 0 l 1
 78 700 l 1
304 0 m 2
 151 0 l 1
 151 111 l 1
 301 111 l 2
 439 111 543 192 543 350 c 0
 543 508 439 589 301 589 c 2
 151 589 l 1
 151 700 l 1
 304 700 l 2
 518 700 664 561 664 350 c 0
 664 139 518 0 304 0 c 2
EndSplineSet
EndChar

StartChar: dcroat
Encoding: 273 273 263
Width: 588
VWidth: 0
Flags: HMW
LayerCount: 2
Fore
SplineSet
295 580 m 1
 295 665 l 1
 617 665 l 1
 617 580 l 1
 295 580 l 1
415 780 m 1
 524 780 l 1
 524 0 l 1
 415 0 l 1
 415 780 l 1
34 230 m 0
 34 381 138 470 258 470 c 0
 373 470 454 379 454 230 c 0
 454 81 373 -10 258 -10 c 0
 138 -10 34 79 34 230 c 0
146 230 m 0
 146 138 209 84 284 84 c 0
 346 84 415 136 415 230 c 0
 415 324 346 376 284 376 c 0
 209 376 146 322 146 230 c 0
EndSplineSet
EndChar

StartChar: Emacron
Encoding: 274 274 264
Width: 571
VWidth: 0
Flags: HMW
LayerCount: 2
Fore
SplineSet
151 0 m 1
 151 104 l 1
 504 104 l 1
 504 0 l 1
 151 0 l 1
151 596 m 1
 151 700 l 1
 504 700 l 1
 504 596 l 1
 151 596 l 1
151 324 m 1
 151 426 l 1
 484 426 l 1
 484 324 l 1
 151 324 l 1
78 700 m 1
 194 700 l 1
 194 0 l 1
 78 0 l 1
 78 700 l 1
111 772 m 1
 111 870 l 1
 470 870 l 1
 470 772 l 1
 111 772 l 1
EndSplineSet
EndChar

StartChar: emacron
Encoding: 275 275 265
Width: 538
VWidth: 0
Flags: HMW
LayerCount: 2
Fore
SplineSet
98 205 m 1
 98 280 l 1
 387 280 l 1
 379 345 343 388 273 388 c 0
 201 388 146 339 146 258 c 1
 144 230 l 1
 144 129 196 79 274 79 c 0
 336 79 379 107 406 152 c 1
 500 115 l 1
 454 40 393 -10 269 -10 c 0
 126 -10 34 91 34 230 c 0
 34 247 35 263 38 279 c 0
 57 392 143 470 274 470 c 0
 416 470 504 380 504 235 c 0
 504 227 504 216 503 205 c 1
 98 205 l 1
95 530 m 1
 95 628 l 1
 454 628 l 1
 454 530 l 1
 95 530 l 1
EndSplineSet
EndChar

StartChar: Ebreve
Encoding: 276 276 266
Width: 571
VWidth: 0
Flags: HMW
LayerCount: 2
Fore
SplineSet
151 0 m 1
 151 104 l 1
 504 104 l 1
 504 0 l 1
 151 0 l 1
151 596 m 1
 151 700 l 1
 504 700 l 1
 504 596 l 1
 151 596 l 1
151 324 m 1
 151 426 l 1
 484 426 l 1
 484 324 l 1
 151 324 l 1
78 700 m 1
 194 700 l 1
 194 0 l 1
 78 0 l 1
 78 700 l 1
130 915 m 1
 212 915 l 1
 212 885 232 846 290 846 c 0
 348 846 369 885 369 915 c 1
 451 915 l 1
 451 841 395 772 290 772 c 0
 185 772 130 841 130 915 c 1
EndSplineSet
EndChar

StartChar: ebreve
Encoding: 277 277 267
Width: 538
VWidth: 0
Flags: HMW
LayerCount: 2
Fore
SplineSet
98 205 m 1
 98 280 l 1
 387 280 l 1
 379 345 343 388 273 388 c 0
 201 388 146 339 146 258 c 1
 144 230 l 1
 144 129 196 79 274 79 c 0
 336 79 379 107 406 152 c 1
 500 115 l 1
 454 40 393 -10 269 -10 c 0
 126 -10 34 91 34 230 c 0
 34 247 35 263 38 279 c 0
 57 392 143 470 274 470 c 0
 416 470 504 380 504 235 c 0
 504 227 504 216 503 205 c 1
 98 205 l 1
114 673 m 1
 196 673 l 1
 196 643 216 604 274 604 c 0
 332 604 352 643 352 673 c 1
 435 673 l 1
 435 599 379 530 274 530 c 0
 169 530 114 599 114 673 c 1
EndSplineSet
EndChar

StartChar: Edotaccent
Encoding: 278 278 268
Width: 571
VWidth: 0
Flags: HMW
LayerCount: 2
Fore
SplineSet
151 0 m 1
 151 104 l 1
 504 104 l 1
 504 0 l 1
 151 0 l 1
151 596 m 1
 151 700 l 1
 504 700 l 1
 504 596 l 1
 151 596 l 1
151 324 m 1
 151 426 l 1
 484 426 l 1
 484 324 l 1
 151 324 l 1
78 700 m 1
 194 700 l 1
 194 0 l 1
 78 0 l 1
 78 700 l 1
222 838 m 0
 222 875 252 904 290 904 c 0
 328 904 359 875 359 838 c 0
 359 801 328 772 290 772 c 0
 252 772 222 801 222 838 c 0
EndSplineSet
EndChar

StartChar: edotaccent
Encoding: 279 279 269
Width: 538
VWidth: 0
Flags: HMW
LayerCount: 2
Fore
SplineSet
98 205 m 1
 98 280 l 1
 387 280 l 1
 379 345 343 388 273 388 c 0
 201 388 146 339 146 258 c 1
 144 230 l 1
 144 129 196 79 274 79 c 0
 336 79 379 107 406 152 c 1
 500 115 l 1
 454 40 393 -10 269 -10 c 0
 126 -10 34 91 34 230 c 0
 34 247 35 263 38 279 c 0
 57 392 143 470 274 470 c 0
 416 470 504 380 504 235 c 0
 504 227 504 216 503 205 c 1
 98 205 l 1
206 596 m 0
 206 633 236 662 274 662 c 0
 312 662 342 633 342 596 c 0
 342 559 312 530 274 530 c 0
 236 530 206 559 206 596 c 0
EndSplineSet
EndChar

StartChar: Eogonek
Encoding: 280 280 270
Width: 571
VWidth: 0
Flags: HMW
LayerCount: 2
Fore
SplineSet
151 0 m 1
 151 104 l 1
 504 104 l 1
 504 0 l 1
 151 0 l 1
151 596 m 1
 151 700 l 1
 504 700 l 1
 504 596 l 1
 151 596 l 1
151 324 m 1
 151 426 l 1
 484 426 l 1
 484 324 l 1
 151 324 l 1
78 700 m 1
 194 700 l 1
 194 0 l 1
 78 0 l 1
 78 700 l 1
379 -122 m 1
 412 -180 l 1
 397 -200 367 -220 319 -220 c 0
 243 -220 198 -181 198 -120 c 0
 198 -59 263 -11 333 25 c 1
 374 0 l 1
 322 -24 286 -63 286 -98 c 0
 286 -130 301 -142 329 -142 c 0
 353 -142 365 -135 379 -122 c 1
EndSplineSet
EndChar

StartChar: eogonek
Encoding: 281 281 271
Width: 538
VWidth: 0
Flags: HMW
LayerCount: 2
Fore
SplineSet
98 205 m 1
 98 280 l 1
 387 280 l 1
 379 345 343 388 273 388 c 0
 201 388 146 339 146 258 c 1
 144 230 l 1
 144 129 196 79 274 79 c 0
 336 79 379 107 406 152 c 1
 500 115 l 1
 454 40 393 -10 269 -10 c 0
 126 -10 34 91 34 230 c 0
 34 247 35 263 38 279 c 0
 57 392 143 470 274 470 c 0
 416 470 504 380 504 235 c 0
 504 227 504 216 503 205 c 1
 98 205 l 1
310 -120 m 1
 343 -177 l 1
 328 -197 298 -217 250 -217 c 0
 174 -217 130 -178 130 -117 c 0
 130 -56 194 -8 264 28 c 1
 305 3 l 1
 253 -21 217 -60 217 -95 c 0
 217 -127 232 -140 260 -140 c 0
 284 -140 296 -133 310 -120 c 1
EndSplineSet
EndChar

StartChar: Ecaron
Encoding: 282 282 272
Width: 571
VWidth: 0
Flags: HMW
LayerCount: 2
Fore
SplineSet
151 0 m 1
 151 104 l 1
 504 104 l 1
 504 0 l 1
 151 0 l 1
151 596 m 1
 151 700 l 1
 504 700 l 1
 504 596 l 1
 151 596 l 1
151 324 m 1
 151 426 l 1
 484 426 l 1
 484 324 l 1
 151 324 l 1
78 700 m 1
 194 700 l 1
 194 0 l 1
 78 0 l 1
 78 700 l 1
290 874 m 1
 393 965 l 1
 466 912 l 1
 290 772 l 1
 116 912 l 1
 188 965 l 1
 290 874 l 1
EndSplineSet
EndChar

StartChar: ecaron
Encoding: 283 283 273
Width: 538
VWidth: 0
Flags: HMW
LayerCount: 2
Fore
SplineSet
98 205 m 1
 98 280 l 1
 387 280 l 1
 379 345 343 388 273 388 c 0
 201 388 146 339 146 258 c 1
 144 230 l 1
 144 129 196 79 274 79 c 0
 336 79 379 107 406 152 c 1
 500 115 l 1
 454 40 393 -10 269 -10 c 0
 126 -10 34 91 34 230 c 0
 34 247 35 263 38 279 c 0
 57 392 143 470 274 470 c 0
 416 470 504 380 504 235 c 0
 504 227 504 216 503 205 c 1
 98 205 l 1
274 631 m 1
 377 723 l 1
 449 670 l 1
 274 530 l 1
 99 670 l 1
 172 723 l 1
 274 631 l 1
EndSplineSet
EndChar

StartChar: Gcircumflex
Encoding: 284 284 274
Width: 790
VWidth: 0
Flags: HMW
LayerCount: 2
Fore
SplineSet
411 266 m 1
 411 366 l 1
 748 366 l 1
 753 161 628 -15 404 -15 c 0
 192 -15 38 136 38 350 c 0
 38 564 194 712 406 712 c 0
 543 712 645 654 707 557 c 1
 611 492 l 1
 572 558 503 603 406 603 c 0
 270 603 162 503 162 350 c 0
 162 197 268 95 406 95 c 0
 531 95 603 171 626 266 c 1
 411 266 l 1
406 864 m 1
 304 772 l 1
 231 825 l 1
 406 965 l 1
 581 825 l 1
 509 772 l 1
 406 864 l 1
EndSplineSet
EndChar

StartChar: gcircumflex
Encoding: 285 285 275
Width: 586
VWidth: 0
Flags: HMW
LayerCount: 2
Fore
SplineSet
43 -31 m 1
 151 -31 l 1
 153 -93 202 -140 280 -140 c 0
 348 -140 415 -94 415 10 c 2
 415 460 l 1
 521 460 l 1
 521 10 l 2
 521 -157 408 -234 283 -234 c 0
 133 -234 47 -151 43 -31 c 1
34 232 m 0
 34 383 138 470 258 470 c 0
 373 470 454 381 454 232 c 0
 454 83 373 -5 258 -5 c 0
 138 -5 34 81 34 232 c 0
146 232 m 0
 146 140 209 89 284 89 c 0
 346 89 415 138 415 232 c 0
 415 326 346 376 284 376 c 0
 209 376 146 324 146 232 c 0
285 621 m 1
 183 530 l 1
 111 583 l 1
 285 723 l 1
 461 583 l 1
 388 530 l 1
 285 621 l 1
EndSplineSet
EndChar

StartChar: Gbreve
Encoding: 286 286 276
Width: 790
VWidth: 0
Flags: HMW
LayerCount: 2
Fore
SplineSet
411 266 m 1
 411 366 l 1
 748 366 l 1
 753 161 628 -15 404 -15 c 0
 192 -15 38 136 38 350 c 0
 38 564 194 712 406 712 c 0
 543 712 645 654 707 557 c 1
 611 492 l 1
 572 558 503 603 406 603 c 0
 270 603 162 503 162 350 c 0
 162 197 268 95 406 95 c 0
 531 95 603 171 626 266 c 1
 411 266 l 1
246 915 m 1
 328 915 l 1
 328 885 348 846 406 846 c 0
 464 846 484 885 484 915 c 1
 567 915 l 1
 567 841 511 772 406 772 c 0
 301 772 246 841 246 915 c 1
EndSplineSet
EndChar

StartChar: gbreve
Encoding: 287 287 277
Width: 586
VWidth: 0
Flags: HMW
LayerCount: 2
Fore
SplineSet
43 -31 m 1
 151 -31 l 1
 153 -93 202 -140 280 -140 c 0
 348 -140 415 -94 415 10 c 2
 415 460 l 1
 521 460 l 1
 521 10 l 2
 521 -157 408 -234 283 -234 c 0
 133 -234 47 -151 43 -31 c 1
34 232 m 0
 34 383 138 470 258 470 c 0
 373 470 454 381 454 232 c 0
 454 83 373 -5 258 -5 c 0
 138 -5 34 81 34 232 c 0
146 232 m 0
 146 140 209 89 284 89 c 0
 346 89 415 138 415 232 c 0
 415 326 346 376 284 376 c 0
 209 376 146 324 146 232 c 0
125 673 m 1
 207 673 l 1
 207 643 227 604 285 604 c 0
 343 604 364 643 364 673 c 1
 446 673 l 1
 446 599 390 530 285 530 c 0
 180 530 125 599 125 673 c 1
EndSplineSet
EndChar

StartChar: Gdotaccent
Encoding: 288 288 278
Width: 790
VWidth: 0
Flags: HMW
LayerCount: 2
Fore
SplineSet
411 266 m 1
 411 366 l 1
 748 366 l 1
 753 161 628 -15 404 -15 c 0
 192 -15 38 136 38 350 c 0
 38 564 194 712 406 712 c 0
 543 712 645 654 707 557 c 1
 611 492 l 1
 572 558 503 603 406 603 c 0
 270 603 162 503 162 350 c 0
 162 197 268 95 406 95 c 0
 531 95 603 171 626 266 c 1
 411 266 l 1
338 838 m 0
 338 875 368 904 406 904 c 0
 444 904 474 875 474 838 c 0
 474 801 444 772 406 772 c 0
 368 772 338 801 338 838 c 0
EndSplineSet
EndChar

StartChar: gdotaccent
Encoding: 289 289 279
Width: 586
VWidth: 0
Flags: HMW
LayerCount: 2
Fore
SplineSet
43 -31 m 1
 151 -31 l 1
 153 -93 202 -140 280 -140 c 0
 348 -140 415 -94 415 10 c 2
 415 460 l 1
 521 460 l 1
 521 10 l 2
 521 -157 408 -234 283 -234 c 0
 133 -234 47 -151 43 -31 c 1
34 232 m 0
 34 383 138 470 258 470 c 0
 373 470 454 381 454 232 c 0
 454 83 373 -5 258 -5 c 0
 138 -5 34 81 34 232 c 0
146 232 m 0
 146 140 209 89 284 89 c 0
 346 89 415 138 415 232 c 0
 415 326 346 376 284 376 c 0
 209 376 146 324 146 232 c 0
225 626 m 0
 225 663 255 692 293 692 c 0
 331 692 361 663 361 626 c 0
 361 589 331 560 293 560 c 0
 255 560 225 589 225 626 c 0
EndSplineSet
EndChar

StartChar: uni0122
Encoding: 290 290 280
Width: 790
VWidth: 0
Flags: HMW
LayerCount: 2
Fore
SplineSet
411 266 m 1
 411 366 l 1
 748 366 l 1
 753 161 628 -15 404 -15 c 0
 192 -15 38 136 38 350 c 0
 38 564 194 712 406 712 c 0
 543 712 645 654 707 557 c 1
 611 492 l 1
 572 558 503 603 406 603 c 0
 270 603 162 503 162 350 c 0
 162 197 268 95 406 95 c 0
 531 95 603 171 626 266 c 1
 411 266 l 1
381 -75 m 1
 490 -106 l 1
 373 -356 l 1
 293 -334 l 1
 381 -75 l 1
EndSplineSet
EndChar

StartChar: Hcircumflex
Encoding: 292 292 281
Width: 743
VWidth: 0
Flags: HMW
LayerCount: 2
Fore
SplineSet
125 321 m 1
 125 430 l 1
 625 430 l 1
 625 321 l 1
 125 321 l 1
548 700 m 1
 666 700 l 1
 666 0 l 1
 548 0 l 1
 548 700 l 1
78 700 m 1
 196 700 l 1
 196 0 l 1
 78 0 l 1
 78 700 l 1
372 864 m 1
 270 772 l 1
 197 825 l 1
 372 965 l 1
 547 825 l 1
 475 772 l 1
 372 864 l 1
EndSplineSet
EndChar

StartChar: hcircumflex
Encoding: 293 293 282
Width: 542
VWidth: 0
Flags: HMW
LayerCount: 2
Fore
SplineSet
177 780 m 1
 177 0 l 1
 69 0 l 1
 69 780 l 1
 177 780 l 1
365 280 m 2
 365 347 339 383 280 383 c 0
 219 383 177 341 177 280 c 1
 144 280 l 1
 144 389 213 473 316 473 c 0
 419 473 474 412 474 295 c 2
 474 0 l 1
 365 0 l 1
 365 280 l 2
128 931 m 1
 26 840 l 1
 -47 892 l 1
 128 1032 l 1
 303 892 l 1
 231 840 l 1
 128 931 l 1
EndSplineSet
EndChar

StartChar: Itilde
Encoding: 296 296 283
Width: 275
VWidth: 0
Flags: HMW
LayerCount: 2
Fore
SplineSet
78 700 m 1
 197 700 l 1
 197 0 l 1
 78 0 l 1
 78 700 l 1
-40 821 m 1
 -30 870 17 908 70 908 c 0
 135 908 145 859 200 859 c 0
 221 859 240 877 260 909 c 1
 316 853 l 1
 300 816 253 776 198 776 c 0
 143 776 117 825 70 825 c 0
 30 825 21 789 21 774 c 1
 -40 821 l 1
EndSplineSet
EndChar

StartChar: itilde
Encoding: 297 297 284
Width: 266
VWidth: 0
Flags: HMW
LayerCount: 2
Fore
SplineSet
80 460 m 1
 186 460 l 1
 186 0 l 1
 80 0 l 1
 80 460 l 1
-44 579 m 1
 -34 628 13 666 66 666 c 0
 131 666 140 617 195 617 c 0
 216 617 235 635 255 667 c 1
 311 611 l 1
 295 574 248 533 193 533 c 0
 138 533 112 583 65 583 c 0
 25 583 16 547 16 532 c 1
 -44 579 l 1
EndSplineSet
EndChar

StartChar: Imacron
Encoding: 298 298 285
Width: 275
VWidth: 0
Flags: HMW
LayerCount: 2
Fore
SplineSet
78 700 m 1
 197 700 l 1
 197 0 l 1
 78 0 l 1
 78 700 l 1
-42 772 m 1
 -42 870 l 1
 317 870 l 1
 317 772 l 1
 -42 772 l 1
EndSplineSet
EndChar

StartChar: imacron
Encoding: 299 299 286
Width: 266
VWidth: 0
Flags: HMW
LayerCount: 2
Fore
SplineSet
80 460 m 1
 186 460 l 1
 186 0 l 1
 80 0 l 1
 80 460 l 1
-46 530 m 1
 -46 628 l 1
 313 628 l 1
 313 530 l 1
 -46 530 l 1
EndSplineSet
EndChar

StartChar: Ibreve
Encoding: 300 300 287
Width: 275
VWidth: 0
Flags: HMW
LayerCount: 2
Fore
SplineSet
78 700 m 1
 197 700 l 1
 197 0 l 1
 78 0 l 1
 78 700 l 1
-23 915 m 1
 60 915 l 1
 60 885 80 846 138 846 c 0
 196 846 216 885 216 915 c 1
 298 915 l 1
 298 841 243 772 138 772 c 0
 33 772 -23 841 -23 915 c 1
EndSplineSet
EndChar

StartChar: ibreve
Encoding: 301 301 288
Width: 266
VWidth: 0
Flags: HMW
LayerCount: 2
Fore
SplineSet
80 460 m 1
 186 460 l 1
 186 0 l 1
 80 0 l 1
 80 460 l 1
-28 673 m 1
 55 673 l 1
 55 643 75 604 133 604 c 0
 191 604 211 643 211 673 c 1
 294 673 l 1
 294 599 238 530 133 530 c 0
 28 530 -28 599 -28 673 c 1
EndSplineSet
EndChar

StartChar: Iogonek
Encoding: 302 302 289
Width: 275
VWidth: 0
Flags: HMW
LayerCount: 2
Fore
SplineSet
78 700 m 1
 197 700 l 1
 197 0 l 1
 78 0 l 1
 78 700 l 1
192 -122 m 1
 225 -179 l 1
 210 -199 180 -219 132 -219 c 0
 56 -219 12 -180 12 -119 c 0
 12 -58 76 -10 146 26 c 1
 187 1 l 1
 135 -23 99 -62 99 -97 c 0
 99 -129 114 -142 142 -142 c 0
 166 -142 178 -135 192 -122 c 1
EndSplineSet
EndChar

StartChar: iogonek
Encoding: 303 303 290
Width: 266
VWidth: 0
Flags: HMW
LayerCount: 2
Fore
SplineSet
65 643 m 0
 65 680 95 709 133 709 c 0
 171 709 201 680 201 643 c 0
 201 606 171 577 133 577 c 0
 95 577 65 606 65 643 c 0
80 460 m 1
 186 460 l 1
 186 0 l 1
 80 0 l 1
 80 460 l 1
181 -122 m 1
 214 -180 l 1
 199 -200 170 -220 122 -220 c 0
 46 -220 1 -181 1 -120 c 0
 1 -59 65 -11 135 25 c 1
 176 0 l 1
 124 -24 89 -63 89 -98 c 0
 89 -130 103 -142 131 -142 c 0
 155 -142 167 -135 181 -122 c 1
EndSplineSet
EndChar

StartChar: Idotaccent
Encoding: 304 304 291
Width: 275
VWidth: 0
Flags: HMW
LayerCount: 2
Fore
SplineSet
78 700 m 1
 197 700 l 1
 197 0 l 1
 78 0 l 1
 78 700 l 1
69 838 m 0
 69 875 99 904 137 904 c 0
 175 904 205 875 205 838 c 0
 205 801 175 772 137 772 c 0
 99 772 69 801 69 838 c 0
EndSplineSet
EndChar

StartChar: uni0136
Encoding: 310 310 292
Width: 619
VWidth: 0
Flags: HMW
LayerCount: 2
Fore
SplineSet
78 700 m 1
 199 700 l 1
 199 0 l 1
 78 0 l 1
 78 700 l 1
459 700 m 1
 601 700 l 1
 306 372 l 1
 616 0 l 1
 471 0 l 1
 163 369 l 1
 459 700 l 1
326 -60 m 1
 436 -91 l 1
 319 -341 l 1
 238 -319 l 1
 326 -60 l 1
EndSplineSet
EndChar

StartChar: uni0137
Encoding: 311 311 293
Width: 494
VWidth: 0
Flags: HMW
LayerCount: 2
Fore
SplineSet
65 780 m 1
 171 780 l 1
 171 0 l 1
 65 0 l 1
 65 780 l 1
340 460 m 1
 472 460 l 1
 274 270 l 1
 492 0 l 1
 361 0 l 1
 142 270 l 1
 340 460 l 1
258 -60 m 1
 367 -91 l 1
 251 -341 l 1
 170 -319 l 1
 258 -60 l 1
EndSplineSet
EndChar

StartChar: Lacute
Encoding: 313 313 294
Width: 481
VWidth: 0
Flags: HMW
LayerCount: 2
Fore
SplineSet
78 700 m 1
 196 700 l 1
 196 106 l 1
 474 106 l 1
 474 0 l 1
 78 0 l 1
 78 700 l 1
418 922 m 1
 238 772 l 1
 177 808 l 1
 327 968 l 1
 418 922 l 1
EndSplineSet
EndChar

StartChar: lacute
Encoding: 314 314 295
Width: 246
VWidth: 0
Flags: HMW
LayerCount: 2
Fore
SplineSet
69 780 m 1
 177 780 l 1
 177 0 l 1
 69 0 l 1
 69 780 l 1
266 990 m 1
 86 840 l 1
 24 875 l 1
 174 1035 l 1
 266 990 l 1
EndSplineSet
EndChar

StartChar: uni013B
Encoding: 315 315 296
Width: 481
VWidth: 0
Flags: HMW
LayerCount: 2
Fore
SplineSet
78 700 m 1
 196 700 l 1
 196 106 l 1
 474 106 l 1
 474 0 l 1
 78 0 l 1
 78 700 l 1
265 -60 m 1
 374 -91 l 1
 258 -341 l 1
 177 -319 l 1
 265 -60 l 1
EndSplineSet
EndChar

StartChar: uni013C
Encoding: 316 316 297
Width: 246
VWidth: 0
Flags: HMW
LayerCount: 2
Fore
SplineSet
69 780 m 1
 177 780 l 1
 177 0 l 1
 69 0 l 1
 69 780 l 1
113 -60 m 1
 221 -91 l 1
 105 -341 l 1
 25 -319 l 1
 113 -60 l 1
EndSplineSet
EndChar

StartChar: Lcaron
Encoding: 317 317 298
Width: 481
VWidth: 0
Flags: HMW
LayerCount: 2
Fore
SplineSet
78 700 m 1
 196 700 l 1
 196 106 l 1
 474 106 l 1
 474 0 l 1
 78 0 l 1
 78 700 l 1
362 712 m 1
 470 682 l 1
 354 432 l 1
 274 453 l 1
 362 712 l 1
EndSplineSet
EndChar

StartChar: lcaron
Encoding: 318 318 299
Width: 246
VWidth: 0
Flags: HMW
LayerCount: 2
Fore
SplineSet
69 780 m 1
 177 780 l 1
 177 0 l 1
 69 0 l 1
 69 780 l 1
315 780 m 1
 424 749 l 1
 308 499 l 1
 227 521 l 1
 315 780 l 1
EndSplineSet
EndChar

StartChar: Ldot
Encoding: 319 319 300
Width: 481
VWidth: 0
Flags: HMW
LayerCount: 2
Fore
SplineSet
78 700 m 1
 196 700 l 1
 196 106 l 1
 474 106 l 1
 474 0 l 1
 78 0 l 1
 78 700 l 1
282 421 m 0
 282 459 313 491 353 491 c 0
 393 491 424 459 424 421 c 0
 424 383 393 351 353 351 c 0
 313 351 282 383 282 421 c 0
EndSplineSet
EndChar

StartChar: ldot
Encoding: 320 320 301
Width: 412
VWidth: 0
Flags: HMW
LayerCount: 2
Fore
SplineSet
69 780 m 1
 177 780 l 1
 177 0 l 1
 69 0 l 1
 69 780 l 1
230 413 m 0
 230 451 261 482 301 482 c 0
 341 482 371 451 371 413 c 0
 371 375 341 342 301 342 c 0
 261 342 230 375 230 413 c 0
EndSplineSet
EndChar

StartChar: eth
Encoding: 240 240 302
Width: 596
VWidth: 0
Flags: HMW
LayerCount: 2
Fore
SplineSet
297 -12 m 0
 153 -12 50 91 50 236 c 0
 50 369 137 463 259 463 c 0
 329 463 397 432 463 369 c 1
 419 370 l 1
 365 478 282 573 159 675 c 1
 233 739 l 1
 448 532 546 375 546 236 c 0
 546 92 442 -12 297 -12 c 0
298 87 m 0
 378 87 435 147 435 230 c 0
 435 314 377 375 298 375 c 0
 219 375 161 314 161 230 c 0
 161 147 218 87 298 87 c 0
173 505 m 1
 156 555 l 1
 463 664 l 1
 480 614 l 1
 173 505 l 1
EndSplineSet
EndChar

StartChar: racute
Encoding: 341 341 303
Width: 370
VWidth: 0
Flags: HMW
LayerCount: 2
Fore
SplineSet
176 460 m 1
 176 0 l 1
 69 0 l 1
 69 460 l 1
 176 460 l 1
313 344 m 1
 293 360 278 369 252 369 c 0
 198 369 176 325 176 259 c 1
 140 280 l 1
 140 389 211 470 281 470 c 0
 314 470 345 460 366 436 c 1
 313 344 l 1
359 680 m 1
 179 530 l 1
 119 566 l 1
 269 726 l 1
 359 680 l 1
EndSplineSet
EndChar

StartChar: rcaron
Encoding: 345 345 304
Width: 370
VWidth: 0
Flags: HMW
LayerCount: 2
Fore
SplineSet
176 460 m 1
 176 0 l 1
 69 0 l 1
 69 460 l 1
 176 460 l 1
313 344 m 1
 293 360 278 369 252 369 c 0
 198 369 176 325 176 259 c 1
 140 280 l 1
 140 389 211 470 281 470 c 0
 314 470 345 460 366 436 c 1
 313 344 l 1
217 632 m 1
 319 723 l 1
 392 670 l 1
 217 530 l 1
 42 670 l 1
 114 723 l 1
 217 632 l 1
EndSplineSet
EndChar

StartChar: Rcaron
Encoding: 344 344 305
Width: 594
VWidth: 0
Flags: HMW
LayerCount: 2
Fore
SplineSet
223 334 m 1
 350 334 l 1
 588 0 l 1
 445 0 l 1
 223 334 l 1
78 700 m 1
 196 700 l 1
 196 0 l 1
 78 0 l 1
 78 700 l 1
148 597 m 1
 148 700 l 1
 294 700 l 2
 447 700 546 613 546 482 c 0
 546 351 447 265 294 265 c 2
 148 265 l 1
 148 363 l 1
 289 363 l 2
 370 363 424 405 424 480 c 0
 424 555 370 597 289 597 c 2
 148 597 l 1
278 874 m 1
 381 965 l 1
 453 912 l 1
 278 772 l 1
 103 912 l 1
 176 965 l 1
 278 874 l 1
EndSplineSet
EndChar

StartChar: uni0213
Encoding: 531 531 306
Width: 370
VWidth: 0
Flags: HMW
LayerCount: 2
Fore
SplineSet
176 460 m 1
 176 0 l 1
 69 0 l 1
 69 460 l 1
 176 460 l 1
313 344 m 1
 293 360 278 369 252 369 c 0
 198 369 176 325 176 259 c 1
 140 280 l 1
 140 389 211 470 281 470 c 0
 314 470 345 460 366 436 c 1
 313 344 l 1
57 530 m 1
 139 530 l 1
 139 560 159 599 217 599 c 0
 275 599 296 560 296 530 c 1
 378 530 l 1
 378 604 322 673 217 673 c 0
 112 673 57 604 57 530 c 1
EndSplineSet
EndChar

StartChar: uni0212
Encoding: 530 530 307
Width: 594
VWidth: 0
Flags: HMW
LayerCount: 2
Fore
SplineSet
223 334 m 1
 350 334 l 1
 588 0 l 1
 445 0 l 1
 223 334 l 1
78 700 m 1
 196 700 l 1
 196 0 l 1
 78 0 l 1
 78 700 l 1
148 597 m 1
 148 700 l 1
 294 700 l 2
 447 700 546 613 546 482 c 0
 546 351 447 265 294 265 c 2
 148 265 l 1
 148 363 l 1
 289 363 l 2
 370 363 424 405 424 480 c 0
 424 555 370 597 289 597 c 2
 148 597 l 1
135 772 m 1
 218 772 l 1
 218 802 238 841 296 841 c 0
 354 841 374 802 374 772 c 1
 456 772 l 1
 456 846 401 915 296 915 c 0
 191 915 135 846 135 772 c 1
EndSplineSet
EndChar

StartChar: OE
Encoding: 338 338 308
Width: 985
VWidth: 0
Flags: HMW
LayerCount: 2
Fore
SplineSet
562 324 m 1
 562 426 l 1
 909 426 l 1
 909 324 l 1
 562 324 l 1
503 670 m 1
 619 670 l 1
 619 30 l 1
 503 30 l 1
 503 670 l 1
930 104 m 1
 930 0 l 1
 390 0 l 2
 187 0 38 141 38 350 c 0
 38 559 186 700 390 700 c 2
 929 700 l 1
 929 596 l 1
 568 596 l 1
 551 592 l 1
 402 592 l 2
 252 592 159 501 159 350 c 0
 159 199 253 108 402 108 c 2
 548 108 l 1
 572 104 l 1
 930 104 l 1
EndSplineSet
EndChar

StartChar: oe
Encoding: 339 339 309
Width: 900
VWidth: 0
Flags: HMW
LayerCount: 2
Fore
SplineSet
750 250 m 2
 750 331 714 388 636 388 c 0
 566 388 508 341 508 260 c 1
 506 230 l 1
 506 132 556 77 636 77 c 0
 698 77 739 107 768 152 c 1
 861 115 l 1
 817 43 745 -10 646 -10 c 0
 521 -10 430 91 430 230 c 0
 430 247 431 263 434 279 c 0
 453 392 539 470 658 470 c 0
 768 470 865 379 865 234 c 0
 865 226 865 213 864 205 c 1
 750 230 l 1
 750 250 l 2
481 205 m 1
 481 279 l 1
 844 279 l 1
 864 205 l 1
 481 205 l 1
35 230 m 0
 35 379 138 470 263 470 c 0
 388 470 466 379 466 230 c 0
 466 81 388 -10 263 -10 c 0
 138 -10 35 81 35 230 c 0
144 230 m 0
 144 136 206 85 281 85 c 0
 346 85 402 136 402 230 c 0
 402 324 346 375 281 375 c 0
 206 375 144 324 144 230 c 0
EndSplineSet
EndChar

StartChar: a.alt
Encoding: 65536 -1 310
Width: 588
VWidth: 0
Flags: HMW
LayerCount: 2
Fore
SplineSet
419 460 m 1
 524 460 l 1
 524 0 l 1
 419 0 l 1
 419 460 l 1
34 230 m 0
 34 381 138 470 258 470 c 0
 373 470 454 379 454 230 c 0
 454 81 373 -10 258 -10 c 0
 138 -10 34 79 34 230 c 0
146 230 m 0
 146 138 209 84 284 84 c 0
 346 84 415 136 415 230 c 0
 415 324 346 376 284 376 c 0
 209 376 146 322 146 230 c 0
EndSplineSet
EndChar

StartChar: Jcircumflex
Encoding: 308 308 312
Width: 276
VWidth: 0
Flags: HMW
LayerCount: 2
Fore
SplineSet
-69 -88 m 1
 -53 -109 -23 -122 11 -122 c 0
 41 -122 78 -100 78 -36 c 2
 78 700 l 1
 199 700 l 1
 199 -58 l 2
 199 -177 121 -228 15 -228 c 0
 -48 -228 -107 -197 -132 -175 c 1
 -69 -88 l 1
138 864 m 1
 36 772 l 1
 -37 825 l 1
 138 965 l 1
 313 825 l 1
 240 772 l 1
 138 864 l 1
EndSplineSet
EndChar

StartChar: jcircumflex
Encoding: 309 309 313
Width: 258
VWidth: 0
Flags: HMW
LayerCount: 2
Fore
SplineSet
-23 -99 m 1
 -9 -120 7 -125 24 -125 c 0
 54 -125 72 -102 72 -44 c 2
 72 460 l 1
 179 460 l 1
 179 -65 l 2
 179 -172 125 -228 29 -228 c 0
 -24 -228 -57 -203 -74 -183 c 1
 -23 -99 l 1
126 621 m 1
 23 530 l 1
 -50 583 l 1
 126 723 l 1
 300 583 l 1
 228 530 l 1
 126 621 l 1
EndSplineSet
EndChar

StartChar: Nacute
Encoding: 323 323 314
Width: 782
VWidth: 0
Flags: HMW
LayerCount: 2
Fore
SplineSet
589 700 m 1
 705 700 l 1
 705 -35 l 1
 194 470 l 1
 194 0 l 1
 78 0 l 1
 78 735 l 1
 589 230 l 1
 589 700 l 1
555 907 m 1
 375 757 l 1
 314 793 l 1
 464 953 l 1
 555 907 l 1
EndSplineSet
EndChar

StartChar: nacute
Encoding: 324 324 315
Width: 545
VWidth: 0
Flags: HMW
LayerCount: 2
Fore
SplineSet
177 460 m 1
 177 0 l 1
 69 0 l 1
 69 460 l 1
 177 460 l 1
365 280 m 2
 365 347 339 383 280 383 c 0
 219 383 177 341 177 280 c 1
 151 278 l 1
 151 387 213 470 316 470 c 0
 419 470 476 409 476 292 c 2
 476 0 l 1
 365 0 l 1
 365 280 l 2
422 680 m 1
 242 530 l 1
 182 565 l 1
 332 725 l 1
 422 680 l 1
EndSplineSet
EndChar

StartChar: uni0145
Encoding: 325 325 316
Width: 782
VWidth: 0
Flags: HMW
LayerCount: 2
Fore
SplineSet
385 -43 m 1
 493 -73 l 1
 377 -323 l 1
 297 -302 l 1
 385 -43 l 1
589 700 m 1
 705 700 l 1
 705 -35 l 1
 194 470 l 1
 194 0 l 1
 78 0 l 1
 78 735 l 1
 589 230 l 1
 589 700 l 1
EndSplineSet
EndChar

StartChar: uni0146
Encoding: 326 326 317
Width: 545
VWidth: 0
Flags: HMW
LayerCount: 2
Fore
SplineSet
177 460 m 1
 177 0 l 1
 69 0 l 1
 69 460 l 1
 177 460 l 1
365 280 m 2
 365 347 339 383 280 383 c 0
 219 383 177 341 177 280 c 1
 144 278 l 1
 144 387 213 470 316 470 c 0
 419 470 476 409 476 292 c 2
 476 0 l 1
 365 0 l 1
 365 280 l 2
262 -60 m 1
 370 -91 l 1
 254 -341 l 1
 174 -319 l 1
 262 -60 l 1
EndSplineSet
EndChar

StartChar: Ncaron
Encoding: 327 327 318
Width: 782
VWidth: 0
Flags: HMW
LayerCount: 2
Fore
SplineSet
390 889 m 1
 492 980 l 1
 565 927 l 1
 390 787 l 1
 215 927 l 1
 288 980 l 1
 390 889 l 1
589 700 m 1
 705 700 l 1
 705 -35 l 1
 194 470 l 1
 194 0 l 1
 78 0 l 1
 78 735 l 1
 589 230 l 1
 589 700 l 1
EndSplineSet
EndChar

StartChar: ncaron
Encoding: 328 328 319
Width: 545
VWidth: 0
Flags: HMW
LayerCount: 2
Fore
SplineSet
177 460 m 1
 177 0 l 1
 69 0 l 1
 69 460 l 1
 177 460 l 1
365 280 m 2
 365 347 339 383 280 383 c 0
 219 383 177 341 177 280 c 1
 144 278 l 1
 144 387 213 470 316 470 c 0
 419 470 476 409 476 292 c 2
 476 0 l 1
 365 0 l 1
 365 280 l 2
272 631 m 1
 374 723 l 1
 447 670 l 1
 272 530 l 1
 97 670 l 1
 170 723 l 1
 272 631 l 1
EndSplineSet
EndChar

StartChar: Omacron
Encoding: 332 332 320
Width: 802
VWidth: 0
Flags: HMW
LayerCount: 2
Fore
SplineSet
163 350 m 0
 163 206 262 101 401 101 c 0
 540 101 639 206 639 350 c 0
 639 494 542 599 401 599 c 0
 262 599 163 494 163 350 c 0
38 350 m 0
 38 559 193 712 401 712 c 0
 610 712 765 559 765 350 c 0
 765 141 611 -15 401 -15 c 0
 191 -15 38 141 38 350 c 0
222 772 m 1
 222 870 l 1
 580 870 l 1
 580 772 l 1
 222 772 l 1
EndSplineSet
EndChar

StartChar: omacron
Encoding: 333 333 321
Width: 563
VWidth: 0
Flags: HMW
LayerCount: 2
Fore
SplineSet
34 230 m 0
 34 371 141 470 282 470 c 0
 423 470 530 371 530 230 c 0
 530 89 423 -10 282 -10 c 0
 141 -10 34 89 34 230 c 0
145 230 m 0
 145 144 204 85 282 85 c 0
 360 85 419 144 419 230 c 0
 419 316 360 375 282 375 c 0
 204 375 145 316 145 230 c 0
102 530 m 1
 102 628 l 1
 461 628 l 1
 461 530 l 1
 102 530 l 1
EndSplineSet
EndChar

StartChar: Obreve
Encoding: 334 334 322
Width: 802
VWidth: 0
Flags: HMW
LayerCount: 2
Fore
SplineSet
163 350 m 0
 163 206 262 101 401 101 c 0
 540 101 639 206 639 350 c 0
 639 494 542 599 401 599 c 0
 262 599 163 494 163 350 c 0
38 350 m 0
 38 559 193 712 401 712 c 0
 610 712 765 559 765 350 c 0
 765 141 611 -15 401 -15 c 0
 191 -15 38 141 38 350 c 0
241 915 m 1
 323 915 l 1
 323 885 343 846 401 846 c 0
 459 846 480 885 480 915 c 1
 562 915 l 1
 562 841 506 772 401 772 c 0
 296 772 241 841 241 915 c 1
EndSplineSet
EndChar

StartChar: obreve
Encoding: 335 335 323
Width: 563
VWidth: 0
Flags: HMW
LayerCount: 2
Fore
SplineSet
34 230 m 0
 34 371 141 470 282 470 c 0
 423 470 530 371 530 230 c 0
 530 89 423 -10 282 -10 c 0
 141 -10 34 89 34 230 c 0
145 230 m 0
 145 144 204 85 282 85 c 0
 360 85 419 144 419 230 c 0
 419 316 360 375 282 375 c 0
 204 375 145 316 145 230 c 0
121 673 m 1
 204 673 l 1
 204 643 224 604 282 604 c 0
 340 604 360 643 360 673 c 1
 442 673 l 1
 442 599 387 530 282 530 c 0
 177 530 121 599 121 673 c 1
EndSplineSet
EndChar

StartChar: Racute
Encoding: 340 340 324
Width: 594
VWidth: 0
Flags: HMW
LayerCount: 2
Fore
SplineSet
223 334 m 1
 350 334 l 1
 588 0 l 1
 445 0 l 1
 223 334 l 1
78 700 m 1
 196 700 l 1
 196 0 l 1
 78 0 l 1
 78 700 l 1
148 597 m 1
 148 700 l 1
 294 700 l 2
 447 700 546 613 546 482 c 0
 546 351 447 265 294 265 c 2
 148 265 l 1
 148 363 l 1
 289 363 l 2
 370 363 424 405 424 480 c 0
 424 555 370 597 289 597 c 2
 148 597 l 1
431 922 m 1
 251 772 l 1
 190 808 l 1
 340 968 l 1
 431 922 l 1
EndSplineSet
EndChar

StartChar: uni0156
Encoding: 342 342 325
Width: 594
VWidth: 0
Flags: HMW
LayerCount: 2
Fore
SplineSet
223 334 m 1
 350 334 l 1
 588 0 l 1
 445 0 l 1
 223 334 l 1
78 700 m 1
 196 700 l 1
 196 0 l 1
 78 0 l 1
 78 700 l 1
148 597 m 1
 148 700 l 1
 294 700 l 2
 447 700 546 613 546 482 c 0
 546 351 447 265 294 265 c 2
 148 265 l 1
 148 363 l 1
 289 363 l 2
 370 363 424 405 424 480 c 0
 424 555 370 597 289 597 c 2
 148 597 l 1
322 -60 m 1
 431 -91 l 1
 315 -341 l 1
 234 -319 l 1
 322 -60 l 1
EndSplineSet
EndChar

StartChar: uni0157
Encoding: 343 343 326
Width: 370
VWidth: 0
Flags: HMW
LayerCount: 2
Fore
SplineSet
176 460 m 1
 176 0 l 1
 69 0 l 1
 69 460 l 1
 176 460 l 1
313 344 m 1
 293 360 278 369 252 369 c 0
 198 369 176 325 176 259 c 1
 140 280 l 1
 140 389 211 470 281 470 c 0
 314 470 345 460 366 436 c 1
 313 344 l 1
112 -60 m 1
 221 -91 l 1
 105 -341 l 1
 24 -319 l 1
 112 -60 l 1
EndSplineSet
EndChar

StartChar: Scedilla
Encoding: 350 350 327
Width: 578
VWidth: 0
Flags: HMW
LayerCount: 2
Fore
SplineSet
128 236 m 1
 172 145 224 92 306 92 c 0
 376 92 412 127 412 187 c 0
 412 265 336 294 256 324 c 0
 186 350 75 392 75 525 c 0
 75 636 161 712 295 712 c 0
 423 712 492 640 527 561 c 1
 435 504 l 1
 405 560 359 607 291 607 c 0
 229 607 198 574 198 523 c 0
 198 463 275 434 359 403 c 0
 442 373 537 317 537 192 c 0
 537 63 443 -15 302 -15 c 0
 182 -15 82 62 38 177 c 1
 128 236 l 1
296 60 m 1
 376 58 l 1
 304 -58 l 1
 310 -57 317 -56 324 -56 c 0
 360 -56 404 -84 404 -140 c 0
 404 -205 346 -240 288 -240 c 0
 243 -240 212 -230 176 -201 c 1
 215 -150 l 1
 236 -167 256 -174 280 -174 c 0
 314 -174 332 -160 332 -136 c 0
 332 -111 311 -102 278 -102 c 0
 268 -102 237 -105 210 -119 c 1
 296 60 l 1
EndSplineSet
EndChar

StartChar: scedilla
Encoding: 351 351 328
Width: 424
VWidth: 0
Flags: HMW
LayerCount: 2
Fore
SplineSet
86 168 m 1
 136 108 187 77 224 77 c 0
 260 77 286 92 286 125 c 0
 286 168 238 186 185 206 c 0
 121 231 54 256 54 344 c 0
 54 430 128 471 212 471 c 0
 287 471 352 435 390 389 c 1
 330 326 l 1
 302 359 256 385 219 385 c 0
 182 385 156 373 156 344 c 0
 156 304 216 292 270 271 c 0
 335 245 397 210 397 131 c 0
 397 30 330 -13 233 -13 c 0
 143 -13 69 37 23 104 c 1
 86 168 l 1
224 62 m 1
 306 60 l 1
 233 -56 l 1
 239 -55 245 -54 252 -54 c 0
 288 -54 333 -82 333 -138 c 0
 333 -203 274 -238 216 -238 c 0
 171 -238 142 -228 106 -199 c 1
 143 -148 l 1
 164 -165 184 -172 208 -172 c 0
 242 -172 260 -158 260 -134 c 0
 260 -109 238 -100 205 -100 c 0
 195 -100 166 -103 139 -117 c 1
 224 62 l 1
EndSplineSet
EndChar

StartChar: Zcaron
Encoding: 381 381 329
Width: 575
VWidth: 0
Flags: HMW
LayerCount: 2
Fore
SplineSet
44 591 m 1
 44 700 l 1
 557 700 l 1
 205 106 l 1
 531 106 l 1
 531 0 l 1
 13 0 l 1
 364 591 l 1
 44 591 l 1
300 874 m 1
 403 965 l 1
 476 912 l 1
 300 772 l 1
 126 912 l 1
 198 965 l 1
 300 874 l 1
EndSplineSet
EndChar

StartChar: zcaron
Encoding: 382 382 330
Width: 482
VWidth: 0
Flags: HMW
LayerCount: 2
Fore
SplineSet
260 631 m 1
 363 722 l 1
 435 670 l 1
 260 530 l 1
 85 670 l 1
 157 722 l 1
 260 631 l 1
283 360 m 1
 50 360 l 1
 50 460 l 1
 470 460 l 1
 207 100 l 1
 445 100 l 1
 445 0 l 1
 15 0 l 1
 283 360 l 1
EndSplineSet
EndChar

StartChar: Ydieresis
Encoding: 376 376 331
Width: 600
VWidth: 0
Flags: HMW
LayerCount: 2
Fore
SplineSet
116 843 m 0
 116 880 146 908 184 908 c 0
 222 908 253 880 253 843 c 0
 253 806 222 777 184 777 c 0
 146 777 116 806 116 843 c 0
349 843 m 0
 349 880 378 908 416 908 c 0
 454 908 485 880 485 843 c 0
 485 806 454 777 416 777 c 0
 378 777 349 806 349 843 c 0
463 700 m 1
 598 700 l 1
 361 295 l 1
 361 0 l 1
 240 0 l 1
 240 294 l 1
 3 700 l 1
 138 700 l 1
 300 400 l 1
 463 700 l 1
EndSplineSet
EndChar

StartChar: Scaron
Encoding: 352 352 332
Width: 578
VWidth: 0
Flags: HMW
LayerCount: 2
Fore
SplineSet
128 236 m 1
 172 145 224 92 306 92 c 0
 376 92 412 127 412 187 c 0
 412 265 336 294 256 324 c 0
 186 350 75 403 75 529 c 0
 75 640 169 712 295 712 c 0
 423 712 499 632 527 561 c 1
 435 504 l 1
 405 560 367 607 299 607 c 0
 237 607 198 574 198 523 c 0
 198 463 275 434 359 403 c 0
 442 373 537 317 537 192 c 0
 537 63 451 -15 302 -15 c 0
 182 -15 82 62 38 177 c 1
 128 236 l 1
295 874 m 1
 398 965 l 1
 470 912 l 1
 295 772 l 1
 120 912 l 1
 193 965 l 1
 295 874 l 1
EndSplineSet
EndChar

StartChar: scaron
Encoding: 353 353 333
Width: 424
VWidth: 0
Flags: HMW
LayerCount: 2
Fore
SplineSet
88 167 m 1
 122 109 173 78 220 78 c 0
 261 78 286 92 286 125 c 0
 286 169 228 185 175 208 c 0
 113 234 49 266 49 344 c 0
 49 425 128 470 212 470 c 0
 287 470 360 435 390 389 c 1
 330 325 l 1
 302 358 253 380 216 380 c 0
 179 380 155 369 155 339 c 0
 155 307 216 288 270 267 c 0
 335 241 397 202 397 130 c 0
 397 29 329 -14 225 -14 c 0
 135 -14 55 37 23 104 c 1
 88 167 l 1
212 627 m 1
 314 718 l 1
 387 665 l 1
 212 525 l 1
 37 665 l 1
 109 718 l 1
 212 627 l 1
EndSplineSet
EndChar

StartChar: Lslash
Encoding: 321 321 334
Width: 483
VWidth: 0
Flags: HMW
LayerCount: 2
Fore
SplineSet
5 328 m 1
 -23 390 l 1
 285 590 l 1
 313 528 l 1
 5 328 l 1
78 700 m 1
 196 700 l 1
 196 106 l 1
 474 106 l 1
 474 0 l 1
 78 0 l 1
 78 700 l 1
EndSplineSet
EndChar

StartChar: lslash
Encoding: 322 322 335
Width: 246
VWidth: 0
Flags: HMW
LayerCount: 2
Fore
SplineSet
-0 328 m 1
 -27 390 l 1
 255 567 l 1
 283 505 l 1
 -0 328 l 1
69 780 m 1
 177 780 l 1
 177 0 l 1
 69 0 l 1
 69 780 l 1
EndSplineSet
EndChar

StartChar: uni0218
Encoding: 536 536 336
Width: 578
VWidth: 0
Flags: HMW
LayerCount: 2
Fore
SplineSet
128 236 m 1
 172 145 224 92 306 92 c 0
 376 92 412 127 412 187 c 0
 412 265 336 294 256 324 c 0
 186 350 75 403 75 529 c 0
 75 640 169 712 295 712 c 0
 423 712 499 632 527 561 c 1
 435 504 l 1
 405 560 367 607 299 607 c 0
 237 607 198 574 198 523 c 0
 198 463 275 434 359 403 c 0
 442 373 537 317 537 192 c 0
 537 63 451 -15 302 -15 c 0
 182 -15 82 62 38 177 c 1
 128 236 l 1
281 -70 m 1
 390 -101 l 1
 274 -351 l 1
 193 -329 l 1
 281 -70 l 1
EndSplineSet
EndChar

StartChar: uni0219
Encoding: 537 537 337
Width: 424
VWidth: 0
Flags: HMW
LayerCount: 2
Fore
SplineSet
88 167 m 1
 122 109 173 78 220 78 c 0
 261 78 286 92 286 125 c 0
 286 169 228 185 175 208 c 0
 113 234 49 266 49 344 c 0
 49 425 128 470 212 470 c 0
 287 470 360 435 390 389 c 1
 330 325 l 1
 302 358 253 380 216 380 c 0
 179 380 155 369 155 339 c 0
 155 307 216 288 270 267 c 0
 335 241 397 202 397 130 c 0
 397 29 329 -14 225 -14 c 0
 135 -14 55 37 23 104 c 1
 88 167 l 1
205 -69 m 1
 313 -100 l 1
 197 -350 l 1
 117 -328 l 1
 205 -69 l 1
EndSplineSet
EndChar

StartChar: pi
Encoding: 960 960 338
Width: 564
VWidth: 0
Flags: HMW
LayerCount: 2
Fore
SplineSet
90 430 m 1
 195 430 l 1
 195 0 l 1
 90 0 l 1
 90 430 l 1
30 460 m 1
 525 460 l 1
 525 365 l 1
 30 365 l 1
 30 460 l 1
340 430 m 1
 445 430 l 1
 445 156 l 2
 445 90 468 86 498 86 c 1
 498 -9 l 1
 396 -9 340 7 340 121 c 2
 340 430 l 1
EndSplineSet
EndChar

StartChar: trademark
Encoding: 8482 8482 339
Width: 697
VWidth: 0
Flags: HMW
LayerCount: 2
Fore
SplineSet
31 646 m 1
 31 700 l 1
 276 700 l 1
 276 646 l 1
 183 646 l 1
 183 350 l 1
 124 350 l 1
 124 646 l 1
 31 646 l 1
578 598 m 1
 620 717 l 1
 667 350 l 1
 606 350 l 1
 578 598 l 1
332 717 m 1
 374 598 l 1
 345 350 l 1
 284 350 l 1
 332 717 l 1
620 717 m 1
 620 620 l 1
 476 382 l 1
 332 620 l 1
 332 717 l 1
 476 480 l 1
 620 717 l 1
EndSplineSet
EndChar

StartChar: uni2219
Encoding: 8729 8729 340
Width: 308
VWidth: 0
Flags: HMW
LayerCount: 2
Fore
SplineSet
84 426 m 0
 84 464 114 496 154 496 c 0
 194 496 225 464 225 426 c 0
 225 388 194 356 154 356 c 0
 114 356 84 388 84 426 c 0
EndSplineSet
EndChar

StartChar: agrave.alt
Encoding: 65537 -1 341
Width: 588
VWidth: 0
Flags: HMW
LayerCount: 2
Fore
SplineSet
419 460 m 1
 524 460 l 1
 524 0 l 1
 419 0 l 1
 419 460 l 1
34 230 m 0
 34 381 138 470 258 470 c 0
 373 470 454 379 454 230 c 0
 454 81 373 -10 258 -10 c 0
 138 -10 34 79 34 230 c 0
146 230 m 0
 146 138 209 84 284 84 c 0
 346 84 415 136 415 230 c 0
 415 324 346 376 284 376 c 0
 209 376 146 322 146 230 c 0
121 680 m 1
 212 725 l 1
 362 565 l 1
 301 530 l 1
 121 680 l 1
EndSplineSet
EndChar

StartChar: aacute.alt
Encoding: 65538 -1 342
Width: 588
VWidth: 0
Flags: HMW
LayerCount: 2
Fore
SplineSet
419 460 m 1
 524 460 l 1
 524 0 l 1
 419 0 l 1
 419 460 l 1
34 230 m 0
 34 381 138 470 258 470 c 0
 373 470 454 379 454 230 c 0
 454 81 373 -10 258 -10 c 0
 138 -10 34 79 34 230 c 0
146 230 m 0
 146 138 209 84 284 84 c 0
 346 84 415 136 415 230 c 0
 415 324 346 376 284 376 c 0
 209 376 146 322 146 230 c 0
415 680 m 1
 235 530 l 1
 174 565 l 1
 324 725 l 1
 415 680 l 1
EndSplineSet
EndChar

StartChar: acircumflex.alt
Encoding: 65539 -1 343
Width: 588
VWidth: 0
Flags: HMW
LayerCount: 2
Fore
SplineSet
419 460 m 1
 524 460 l 1
 524 0 l 1
 419 0 l 1
 419 460 l 1
34 230 m 0
 34 381 138 470 258 470 c 0
 373 470 454 379 454 230 c 0
 454 81 373 -10 258 -10 c 0
 138 -10 34 79 34 230 c 0
146 230 m 0
 146 138 209 84 284 84 c 0
 346 84 415 136 415 230 c 0
 415 324 346 376 284 376 c 0
 209 376 146 322 146 230 c 0
295 621 m 1
 193 530 l 1
 121 583 l 1
 295 723 l 1
 471 583 l 1
 398 530 l 1
 295 621 l 1
EndSplineSet
EndChar

StartChar: atilde.alt
Encoding: 65540 -1 344
Width: 588
VWidth: 0
Flags: HMW
LayerCount: 2
Fore
SplineSet
419 460 m 1
 524 460 l 1
 524 0 l 1
 419 0 l 1
 419 460 l 1
34 230 m 0
 34 381 138 470 258 470 c 0
 373 470 454 379 454 230 c 0
 454 81 373 -10 258 -10 c 0
 138 -10 34 79 34 230 c 0
146 230 m 0
 146 138 209 84 284 84 c 0
 346 84 415 136 415 230 c 0
 415 324 346 376 284 376 c 0
 209 376 146 322 146 230 c 0
120 579 m 1
 130 628 178 666 231 666 c 0
 296 666 305 617 360 617 c 0
 381 617 400 635 420 667 c 1
 476 611 l 1
 460 574 413 533 358 533 c 0
 303 533 277 583 230 583 c 0
 190 583 181 547 181 532 c 1
 120 579 l 1
EndSplineSet
EndChar

StartChar: adieresis.alt
Encoding: 65541 -1 345
Width: 588
VWidth: 0
Flags: HMW
LayerCount: 2
Fore
SplineSet
419 460 m 1
 524 460 l 1
 524 0 l 1
 419 0 l 1
 419 460 l 1
34 230 m 0
 34 381 138 470 258 470 c 0
 373 470 454 379 454 230 c 0
 454 81 373 -10 258 -10 c 0
 138 -10 34 79 34 230 c 0
146 230 m 0
 146 138 209 84 284 84 c 0
 346 84 415 136 415 230 c 0
 415 324 346 376 284 376 c 0
 209 376 146 322 146 230 c 0
334 596 m 0
 334 633 364 662 402 662 c 0
 440 662 470 633 470 596 c 0
 470 559 440 530 402 530 c 0
 364 530 334 559 334 596 c 0
116 596 m 0
 116 633 146 662 184 662 c 0
 222 662 252 633 252 596 c 0
 252 559 222 530 184 530 c 0
 146 530 116 559 116 596 c 0
EndSplineSet
EndChar

StartChar: aring.alt
Encoding: 65542 -1 346
Width: 588
VWidth: 0
Flags: HMW
LayerCount: 2
Fore
SplineSet
419 460 m 1
 524 460 l 1
 524 0 l 1
 419 0 l 1
 419 460 l 1
34 230 m 0
 34 381 138 470 258 470 c 0
 373 470 454 379 454 230 c 0
 454 81 373 -10 258 -10 c 0
 138 -10 34 79 34 230 c 0
146 230 m 0
 146 138 209 84 284 84 c 0
 346 84 415 136 415 230 c 0
 415 324 346 376 284 376 c 0
 209 376 146 322 146 230 c 0
182 636 m 0
 182 700 234 743 293 743 c 0
 352 743 404 700 404 636 c 0
 404 572 352 530 293 530 c 0
 234 530 182 572 182 636 c 0
244 636 m 0
 244 604 268 586 293 586 c 0
 318 586 342 604 342 636 c 0
 342 668 318 687 293 687 c 0
 268 687 244 668 244 636 c 0
EndSplineSet
EndChar

StartChar: amacron.alt
Encoding: 65543 -1 347
Width: 588
VWidth: 0
Flags: HMW
LayerCount: 2
Fore
SplineSet
419 460 m 1
 524 460 l 1
 524 0 l 1
 419 0 l 1
 419 460 l 1
34 230 m 0
 34 381 138 470 258 470 c 0
 373 470 454 379 454 230 c 0
 454 81 373 -10 258 -10 c 0
 138 -10 34 79 34 230 c 0
146 230 m 0
 146 138 209 84 284 84 c 0
 346 84 415 136 415 230 c 0
 415 324 346 376 284 376 c 0
 209 376 146 322 146 230 c 0
109 530 m 1
 109 628 l 1
 467 628 l 1
 467 530 l 1
 109 530 l 1
EndSplineSet
EndChar

StartChar: abreve.alt
Encoding: 65544 -1 348
Width: 588
VWidth: 0
Flags: HMW
LayerCount: 2
Fore
SplineSet
419 460 m 1
 524 460 l 1
 524 0 l 1
 419 0 l 1
 419 460 l 1
34 230 m 0
 34 381 138 470 258 470 c 0
 373 470 454 379 454 230 c 0
 454 81 373 -10 258 -10 c 0
 138 -10 34 79 34 230 c 0
146 230 m 0
 146 138 209 84 284 84 c 0
 346 84 415 136 415 230 c 0
 415 324 346 376 284 376 c 0
 209 376 146 322 146 230 c 0
117 673 m 1
 200 673 l 1
 200 643 220 604 278 604 c 0
 336 604 356 643 356 673 c 1
 439 673 l 1
 439 599 383 530 278 530 c 0
 173 530 117 599 117 673 c 1
EndSplineSet
EndChar

StartChar: aogonek.alt
Encoding: 65545 -1 349
Width: 588
VWidth: 0
Flags: HMW
LayerCount: 2
Fore
SplineSet
419 460 m 1
 524 460 l 1
 524 0 l 1
 419 0 l 1
 419 460 l 1
34 230 m 0
 34 381 138 470 258 470 c 0
 373 470 454 379 454 230 c 0
 454 81 373 -10 258 -10 c 0
 138 -10 34 79 34 230 c 0
146 230 m 0
 146 138 209 84 284 84 c 0
 346 84 415 136 415 230 c 0
 415 324 346 376 284 376 c 0
 209 376 146 322 146 230 c 0
516 -122 m 1
 549 -180 l 1
 534 -200 504 -220 456 -220 c 0
 380 -220 336 -181 336 -120 c 0
 336 -59 400 -11 470 25 c 1
 511 0 l 1
 459 -24 423 -63 423 -98 c 0
 423 -130 438 -142 466 -142 c 0
 490 -142 502 -135 516 -122 c 1
EndSplineSet
EndChar

StartChar: dagger
Encoding: 8224 8224 350
Width: 594
VWidth: 0
Flags: HMW
LayerCount: 2
Fore
SplineSet
90 540 m 1
 505 540 l 1
 505 445 l 1
 90 445 l 1
 90 540 l 1
245 700 m 1
 350 700 l 1
 350 -150 l 1
 245 -150 l 1
 245 700 l 1
EndSplineSet
EndChar

StartChar: daggerdbl
Encoding: 8225 8225 351
Width: 594
VWidth: 0
Flags: HMW
LayerCount: 2
Fore
SplineSet
90 135 m 1
 505 135 l 1
 505 40 l 1
 90 40 l 1
 90 135 l 1
90 540 m 1
 505 540 l 1
 505 445 l 1
 90 445 l 1
 90 540 l 1
245 700 m 1
 350 700 l 1
 350 -150 l 1
 245 -150 l 1
 245 700 l 1
EndSplineSet
EndChar

StartChar: ellipsis
Encoding: 8230 8230 352
Width: 910
VWidth: 0
Flags: HMW
LayerCount: 2
Fore
SplineSet
84 51 m 0
 84 89 114 121 154 121 c 0
 194 121 225 89 225 51 c 0
 225 13 194 -19 154 -19 c 0
 114 -19 84 13 84 51 c 0
384 51 m 0
 384 89 414 121 454 121 c 0
 494 121 525 89 525 51 c 0
 525 13 494 -19 454 -19 c 0
 414 -19 384 13 384 51 c 0
684 51 m 0
 684 89 714 121 754 121 c 0
 794 121 825 89 825 51 c 0
 825 13 794 -19 754 -19 c 0
 714 -19 684 13 684 51 c 0
EndSplineSet
EndChar

StartChar: uniFF10
Encoding: 65296 65296 353
Width: 600
VWidth: 0
Flags: HMW
LayerCount: 2
Fore
SplineSet
143 350 m 0
 143 199 204 95 300 95 c 0
 396 95 456 199 456 350 c 0
 456 501 396 605 300 605 c 0
 204 605 143 501 143 350 c 0
27 350 m 0
 27 567 138 711 300 711 c 0
 464 711 572 567 572 350 c 0
 572 133 464 -11 300 -11 c 0
 138 -11 27 133 27 350 c 0
EndSplineSet
EndChar

StartChar: uniFF11
Encoding: 65297 65297 354
Width: 600
VWidth: 0
Flags: HMW
LayerCount: 2
Fore
SplineSet
113 536 m 1
 113 648 l 1
 391 711 l 1
 391 0 l 1
 275 0 l 1
 275 581 l 1
 113 536 l 1
EndSplineSet
EndChar

StartChar: uniFF12
Encoding: 65298 65298 355
Width: 600
VWidth: 0
Flags: HMW
LayerCount: 2
Fore
SplineSet
21 0 m 1
 344 341 l 2
 394 394 424 440 424 496 c 0
 424 551 387 606 310 606 c 0
 230 606 175 546 175 452 c 1
 58 452 l 1
 58 601 152 712 312 712 c 0
 474 712 546 595 546 495 c 0
 546 422 507 359 450 305 c 2
 250 110 l 1
 555 110 l 1
 555 0 l 1
 21 0 l 1
EndSplineSet
EndChar

StartChar: uniFF13
Encoding: 65299 65299 356
Width: 600
VWidth: 0
Flags: HMW
LayerCount: 2
Fore
SplineSet
271 343 m 1
 271 406 l 1
 356 406 407 456 407 516 c 0
 407 572 375 611 312 611 c 0
 252 611 206 570 206 514 c 1
 95 514 l 1
 95 629 183 711 312 711 c 0
 447 711 527 625 527 522 c 0
 527 414 418 343 271 343 c 1
306 -12 m 0
 157 -12 65 85 65 200 c 1
 183 200 l 1
 183 133 238 90 309 90 c 0
 380 90 427 130 427 200 c 0
 427 275 366 317 271 317 c 1
 271 385 l 1
 426 385 547 327 547 187 c 0
 547 67 450 -12 306 -12 c 0
EndSplineSet
EndChar

StartChar: uniFF14
Encoding: 65300 65300 357
Width: 600
VWidth: 0
Flags: HMW
LayerCount: 2
Fore
SplineSet
16 134 m 1
 113 227 l 1
 406 227 l 0
 423 236 l 0
 575 236 l 1
 575 134 l 1
 16 134 l 1
133 154 m 1
 16 134 l 1
 398 700 l 1
 470 700 l 1
 470 0 l 1
 348 0 l 1
 348 170 l 0
 356 181 l 0
 356 489 l 1
 133 154 l 1
EndSplineSet
EndChar

StartChar: uniFF15
Encoding: 65301 65301 358
Width: 600
VWidth: 0
Flags: HMW
LayerCount: 2
Fore
SplineSet
556 228 m 0
 556 67 430 -11 295 -11 c 0
 166 -11 88 45 34 113 c 1
 104 198 l 1
 145 143 214 99 281 99 c 0
 375 99 429 150 429 235 c 0
 429 320 362 370 281 370 c 0
 219 370 165 359 94 315 c 1
 172 388 l 1
 220 440 281 461 345 461 c 0
 461 461 556 369 556 228 c 0
278 596 m 1
 223 402 l 1
 94 315 l 1
 188 700 l 1
 548 700 l 1
 548 596 l 1
 278 596 l 1
EndSplineSet
EndChar

StartChar: uniFF16
Encoding: 65302 65302 359
Width: 600
VWidth: 0
Flags: HMW
LayerCount: 2
Fore
SplineSet
159 236 m 0
 159 150 219 91 300 91 c 0
 381 91 441 150 441 236 c 0
 441 322 381 383 300 383 c 0
 219 383 159 322 159 236 c 0
324 699 m 1
 474 699 l 1
 252 424 l 1
 235 421 l 1
 266 455 299 463 346 463 c 0
 456 463 556 370 556 236 c 0
 556 81 444 -12 300 -12 c 0
 156 -12 43 81 43 236 c 0
 43 301 67 356 102 401 c 2
 324 699 l 1
EndSplineSet
EndChar

StartChar: uniFF17
Encoding: 65303 65303 360
Width: 600
VWidth: 0
Flags: HMW
LayerCount: 2
Fore
SplineSet
50 589 m 1
 50 700 l 1
 573 700 l 1
 236 0 l 1
 110 0 l 1
 396 589 l 1
 50 589 l 1
EndSplineSet
EndChar

StartChar: uniFF18
Encoding: 65304 65304 361
Width: 600
VWidth: 0
Flags: HMW
LayerCount: 2
Fore
SplineSet
95 531 m 0
 95 638 187 712 305 712 c 0
 423 712 515 638 515 531 c 0
 515 414 420 350 305 350 c 0
 190 350 95 414 95 531 c 0
207 519 m 0
 207 461 251 420 305 420 c 0
 359 420 403 461 403 519 c 0
 403 577 362 619 305 619 c 0
 248 619 207 577 207 519 c 0
70 190 m 0
 70 327 190 392 305 392 c 0
 420 392 540 327 540 190 c 0
 540 73 435 -12 305 -12 c 0
 175 -12 70 73 70 190 c 0
185 206 m 0
 185 130 243 87 305 87 c 0
 367 87 425 130 425 206 c 0
 425 272 367 324 305 324 c 0
 243 324 185 272 185 206 c 0
EndSplineSet
EndChar

StartChar: uniFF19
Encoding: 65305 65305 362
Width: 600
VWidth: 0
Flags: HMW
LayerCount: 2
Fore
SplineSet
441 464 m 0
 441 550 381 609 300 609 c 0
 219 609 159 550 159 464 c 0
 159 378 219 317 300 317 c 0
 381 317 441 378 441 464 c 0
275 1 m 1
 125 1 l 1
 347 276 l 1
 365 279 l 1
 334 245 301 237 254 237 c 0
 144 237 43 330 43 464 c 0
 43 619 156 712 300 712 c 0
 444 712 556 619 556 464 c 0
 556 399 533 344 498 299 c 2
 275 1 l 1
EndSplineSet
EndChar

StartChar: caron
Encoding: 711 711 363
Width: 480
VWidth: 0
Flags: HMW
LayerCount: 2
Fore
SplineSet
240 663 m 1
 342 755 l 1
 415 702 l 1
 240 562 l 1
 65 702 l 1
 138 755 l 1
 240 663 l 1
EndSplineSet
EndChar

StartChar: napostrophe
Encoding: 329 329 364
Width: 679
VWidth: 0
Flags: HMW
LayerCount: 2
Fore
SplineSet
313 460 m 1
 313 0 l 1
 204 0 l 1
 204 460 l 1
 313 460 l 1
500 280 m 2
 500 347 473 383 414 383 c 0
 353 383 313 341 313 280 c 1
 279 278 l 1
 279 387 348 470 451 470 c 0
 554 470 611 409 611 292 c 2
 611 0 l 1
 500 0 l 1
 500 280 l 2
122 700 m 1
 243 700 l 1
 141 460 l 1
 65 460 l 1
 122 700 l 1
EndSplineSet
EndChar

StartChar: IJ
Encoding: 306 306 365
Width: 543
VWidth: 0
Flags: HMW
LayerCount: 2
Fore
SplineSet
199 -88 m 1
 215 -109 244 -122 278 -122 c 0
 308 -122 345 -100 345 -36 c 2
 345 700 l 1
 466 700 l 1
 466 -58 l 2
 466 -177 388 -228 282 -228 c 0
 219 -228 160 -197 135 -175 c 1
 199 -88 l 1
78 700 m 1
 197 700 l 1
 197 0 l 1
 78 0 l 1
 78 700 l 1
EndSplineSet
EndChar

StartChar: ij
Encoding: 307 307 366
Width: 524
VWidth: 0
Flags: HMW
LayerCount: 2
Fore
SplineSet
323 643 m 0
 323 680 353 709 391 709 c 0
 429 709 459 680 459 643 c 0
 459 606 429 577 391 577 c 0
 353 577 323 606 323 643 c 0
241 -99 m 1
 255 -120 273 -125 290 -125 c 0
 320 -125 338 -102 338 -44 c 2
 338 460 l 1
 444 460 l 1
 444 -65 l 2
 444 -172 391 -228 295 -228 c 0
 242 -228 208 -203 191 -183 c 1
 241 -99 l 1
65 643 m 0
 65 680 95 709 133 709 c 0
 171 709 201 680 201 643 c 0
 201 606 171 577 133 577 c 0
 95 577 65 606 65 643 c 0
80 460 m 1
 186 460 l 1
 186 0 l 1
 80 0 l 1
 80 460 l 1
EndSplineSet
EndChar

StartChar: uni0237
Encoding: 567 567 367
Width: 258
VWidth: 0
Flags: HMW
LayerCount: 2
Fore
SplineSet
-23 -99 m 1
 -9 -120 7 -125 24 -125 c 0
 54 -125 72 -102 72 -44 c 2
 72 460 l 1
 179 460 l 1
 179 -65 l 2
 179 -172 125 -228 29 -228 c 0
 -24 -228 -57 -203 -74 -183 c 1
 -23 -99 l 1
EndSplineSet
EndChar

StartChar: Sacute
Encoding: 346 346 368
Width: 578
VWidth: 0
Flags: HMW
LayerCount: 2
Fore
SplineSet
128 236 m 1
 172 145 224 92 306 92 c 0
 376 92 412 127 412 187 c 0
 412 265 336 294 256 324 c 0
 186 350 75 403 75 529 c 0
 75 640 169 712 295 712 c 0
 423 712 499 632 527 561 c 1
 435 504 l 1
 405 560 367 607 299 607 c 0
 237 607 198 574 198 523 c 0
 198 463 275 434 359 403 c 0
 442 373 537 317 537 192 c 0
 537 63 451 -15 302 -15 c 0
 182 -15 82 62 38 177 c 1
 128 236 l 1
475 922 m 1
 295 772 l 1
 234 808 l 1
 384 968 l 1
 475 922 l 1
EndSplineSet
EndChar

StartChar: sacute
Encoding: 347 347 369
Width: 424
VWidth: 0
Flags: HMW
LayerCount: 2
Fore
SplineSet
88 167 m 1
 122 109 173 78 220 78 c 0
 261 78 286 92 286 125 c 0
 286 169 228 185 175 208 c 0
 113 234 49 266 49 344 c 0
 49 425 128 470 212 470 c 0
 287 470 360 435 390 389 c 1
 330 325 l 1
 302 358 253 380 216 380 c 0
 179 380 155 369 155 339 c 0
 155 307 216 288 270 267 c 0
 335 241 397 202 397 130 c 0
 397 29 329 -14 225 -14 c 0
 135 -14 55 37 23 104 c 1
 88 167 l 1
392 680 m 1
 212 530 l 1
 150 565 l 1
 300 725 l 1
 392 680 l 1
EndSplineSet
EndChar

StartChar: Scircumflex
Encoding: 348 348 370
Width: 578
VWidth: 0
Flags: HMW
LayerCount: 2
Fore
SplineSet
128 236 m 1
 172 145 224 92 306 92 c 0
 376 92 412 127 412 187 c 0
 412 265 336 294 256 324 c 0
 186 350 75 403 75 529 c 0
 75 640 169 712 295 712 c 0
 423 712 499 632 527 561 c 1
 435 504 l 1
 405 560 367 607 299 607 c 0
 237 607 198 574 198 523 c 0
 198 463 275 434 359 403 c 0
 442 373 537 317 537 192 c 0
 537 63 451 -15 302 -15 c 0
 182 -15 82 62 38 177 c 1
 128 236 l 1
295 864 m 1
 193 772 l 1
 120 825 l 1
 295 965 l 1
 470 825 l 1
 398 772 l 1
 295 864 l 1
EndSplineSet
EndChar

StartChar: scircumflex
Encoding: 349 349 371
Width: 424
VWidth: 0
Flags: HMW
LayerCount: 2
Fore
SplineSet
88 167 m 1
 122 109 173 78 220 78 c 0
 261 78 286 92 286 125 c 0
 286 169 228 185 175 208 c 0
 113 234 49 266 49 344 c 0
 49 425 128 470 212 470 c 0
 287 470 360 435 390 389 c 1
 330 325 l 1
 302 358 253 380 216 380 c 0
 179 380 155 369 155 339 c 0
 155 307 216 288 270 267 c 0
 335 241 397 202 397 130 c 0
 397 29 329 -14 225 -14 c 0
 135 -14 55 37 23 104 c 1
 88 167 l 1
217 621 m 1
 114 530 l 1
 42 583 l 1
 217 723 l 1
 392 583 l 1
 319 530 l 1
 217 621 l 1
EndSplineSet
EndChar

StartChar: uni1E9E
Encoding: 7838 7838 372
Width: 755
VWidth: 0
Flags: HMW
LayerCount: 2
Fore
SplineSet
470 -12 m 0
 618 -12 716 65 716 179 c 0
 716 325 552 312 552 364 c 0
 552 406 660 430 660 546 c 0
 660 644 571 712 416 712 c 0
 216 712 80 599 80 380 c 2
 80 -2 l 1
 202 -2 l 1
 200 369 l 2
 200 527 287 599 407 599 c 0
 496 599 532 558 532 518 c 0
 532 446 418 445 418 359 c 0
 418 253 590 286 590 182 c 0
 590 120 526 96 456 96 c 0
 396 96 350 115 300 144 c 1
 260 46 l 1
 316 11 384 -12 470 -12 c 0
EndSplineSet
EndChar

StartChar: Zacute
Encoding: 377 377 373
Width: 575
VWidth: 0
Flags: HW
LayerCount: 2
Fore
SplineSet
44 591 m 1
 44 700 l 1
 557 700 l 1
 205 106 l 1
 531 106 l 1
 531 0 l 1
 13 0 l 1
 364 591 l 1
 44 591 l 1
466 922 m 1
 286 772 l 1
 224 808 l 1
 374 968 l 1
 466 922 l 1
EndSplineSet
EndChar

StartChar: zacute
Encoding: 378 378 374
Width: 484
VWidth: 0
Flags: HW
LayerCount: 2
Fore
SplineSet
282 360 m 1
 50 360 l 1
 50 460 l 1
 470 460 l 1
 207 100 l 1
 445 100 l 1
 445 0 l 1
 15 0 l 1
 282 360 l 1
425 695 m 1
 245 545 l 1
 184 580 l 1
 334 740 l 1
 425 695 l 1
EndSplineSet
EndChar

StartChar: Zdotaccent
Encoding: 379 379 375
Width: 575
VWidth: 0
Flags: HW
LayerCount: 2
Fore
SplineSet
44 591 m 1
 44 700 l 1
 557 700 l 1
 205 106 l 1
 531 106 l 1
 531 0 l 1
 13 0 l 1
 364 591 l 1
 44 591 l 1
232 838 m 0
 232 875 262 904 300 904 c 0
 338 904 369 875 369 838 c 0
 369 801 338 772 300 772 c 0
 262 772 232 801 232 838 c 0
EndSplineSet
EndChar

StartChar: zdotaccent
Encoding: 380 380 376
Width: 484
VWidth: 0
Flags: HW
LayerCount: 2
Fore
SplineSet
282 360 m 1
 50 360 l 1
 50 460 l 1
 470 460 l 1
 207 100 l 1
 445 100 l 1
 445 0 l 1
 15 0 l 1
 282 360 l 1
192 619 m 0
 192 656 222 684 260 684 c 0
 298 684 328 656 328 619 c 0
 328 582 298 553 260 553 c 0
 222 553 192 582 192 619 c 0
EndSplineSet
EndChar

StartChar: Tcaron
Encoding: 356 356 377
Width: 503
VWidth: 0
Flags: HW
LayerCount: 2
Fore
SplineSet
8 591 m 1
 8 700 l 1
 496 700 l 1
 496 591 l 1
 311 591 l 1
 311 0 l 1
 192 0 l 1
 192 591 l 1
 8 591 l 1
252 874 m 1
 354 965 l 1
 427 912 l 1
 252 772 l 1
 77 912 l 1
 150 965 l 1
 252 874 l 1
EndSplineSet
EndChar

StartChar: tcaron
Encoding: 357 357 378
Width: 403
VWidth: 0
Flags: HW
LayerCount: 2
Fore
SplineSet
5 460 m 1
 266 460 l 1
 266 365 l 1
 5 365 l 1
 5 460 l 1
82 620 m 1
 189 620 l 1
 189 0 l 1
 82 0 l 1
 82 620 l 1
329 800 m 1
 438 770 l 1
 322 520 l 1
 241 541 l 1
 329 800 l 1
EndSplineSet
EndChar

StartChar: Uring
Encoding: 366 366 379
Width: 656
VWidth: 0
Flags: HW
LayerCount: 2
Fore
SplineSet
73 700 m 1
 191 700 l 1
 191 235 l 2
 191 149 238 91 328 91 c 0
 418 91 465 149 465 235 c 2
 465 700 l 1
 583 700 l 1
 583 230 l 2
 583 76 478 -18 328 -18 c 0
 178 -18 73 76 73 230 c 2
 73 700 l 1
217 879 m 0
 217 943 269 985 328 985 c 0
 387 985 439 943 439 879 c 0
 439 815 387 772 328 772 c 0
 269 772 217 815 217 879 c 0
279 879 m 0
 279 847 303 828 328 828 c 0
 353 828 377 847 377 879 c 0
 377 911 353 930 328 930 c 0
 303 930 279 911 279 879 c 0
EndSplineSet
EndChar

StartChar: uring
Encoding: 367 367 380
Width: 545
VWidth: 0
Flags: HW
LayerCount: 2
Fore
SplineSet
368 0 m 1
 368 460 l 1
 476 460 l 1
 476 0 l 1
 368 0 l 1
180 180 m 2
 180 113 206 77 265 77 c 0
 326 77 368 119 368 180 c 1
 394 182 l 1
 394 73 332 -10 229 -10 c 0
 126 -10 69 51 69 168 c 2
 69 460 l 1
 180 460 l 1
 180 180 l 2
161 636 m 0
 161 700 213 743 272 743 c 0
 331 743 384 700 384 636 c 0
 384 572 331 530 272 530 c 0
 213 530 161 572 161 636 c 0
223 636 m 0
 223 604 247 586 272 586 c 0
 297 586 322 604 322 636 c 0
 322 668 297 687 272 687 c 0
 247 687 223 668 223 636 c 0
EndSplineSet
EndChar

StartChar: uni0123
Encoding: 291 291 381
Width: 570
VWidth: 0
Flags: HW
LayerCount: 2
Fore
SplineSet
43 -31 m 1
 151 -31 l 1
 153 -93 202 -140 280 -140 c 0
 348 -140 415 -94 415 10 c 2
 415 460 l 1
 521 460 l 1
 521 10 l 2
 521 -157 408 -234 283 -234 c 0
 133 -234 47 -151 43 -31 c 1
34 232 m 0
 34 383 138 470 258 470 c 0
 373 470 454 381 454 232 c 0
 454 83 373 -5 258 -5 c 0
 138 -5 34 81 34 232 c 0
146 232 m 0
 146 140 209 89 284 89 c 0
 346 89 415 138 415 232 c 0
 415 326 346 376 284 376 c 0
 209 376 146 324 146 232 c 0
293 544 m 1
 191 592 l 1
 344 821 l 1
 420 787 l 1
 293 544 l 1
EndSplineSet
EndChar

StartChar: Hbar
Encoding: 294 294 382
Width: 743
VWidth: 0
Flags: HW
LayerCount: 2
Fore
SplineSet
125 321 m 1
 125 430 l 1
 625 430 l 1
 625 321 l 1
 125 321 l 1
548 700 m 1
 666 700 l 1
 666 0 l 1
 548 0 l 1
 548 700 l 1
78 700 m 1
 196 700 l 1
 196 0 l 1
 78 0 l 1
 78 700 l 1
5 539 m 1
 5 626 l 1
 739 626 l 1
 739 539 l 1
 5 539 l 1
EndSplineSet
EndChar

StartChar: hbar
Encoding: 295 295 383
Width: 542
VWidth: 0
Flags: HW
LayerCount: 2
Fore
SplineSet
177 780 m 1
 177 0 l 1
 69 0 l 1
 69 780 l 1
 177 780 l 1
365 280 m 2
 365 347 339 383 280 383 c 0
 219 383 177 341 177 280 c 1
 151 280 l 1
 151 389 213 473 316 473 c 0
 419 473 474 412 474 295 c 2
 474 0 l 1
 365 0 l 1
 365 280 l 2
5 614 m 1
 5 711 l 1
 325 711 l 1
 325 614 l 1
 5 614 l 1
EndSplineSet
EndChar

StartChar: Utilde
Encoding: 360 360 384
Width: 656
VWidth: 0
Flags: HW
LayerCount: 2
Fore
SplineSet
73 700 m 1
 191 700 l 1
 191 235 l 2
 191 149 238 91 328 91 c 0
 418 91 465 149 465 235 c 2
 465 700 l 1
 583 700 l 1
 583 230 l 2
 583 76 478 -18 328 -18 c 0
 178 -18 73 76 73 230 c 2
 73 700 l 1
150 821 m 1
 160 870 208 908 261 908 c 0
 326 908 335 859 390 859 c 0
 411 859 430 877 450 909 c 1
 506 853 l 1
 490 816 443 776 388 776 c 0
 333 776 307 825 260 825 c 0
 220 825 211 789 211 774 c 1
 150 821 l 1
EndSplineSet
EndChar

StartChar: utilde
Encoding: 361 361 385
Width: 545
VWidth: 0
Flags: HW
LayerCount: 2
Fore
SplineSet
368 0 m 1
 368 460 l 1
 476 460 l 1
 476 0 l 1
 368 0 l 1
180 180 m 2
 180 113 206 77 265 77 c 0
 326 77 368 119 368 180 c 1
 394 182 l 1
 394 73 332 -10 229 -10 c 0
 126 -10 69 51 69 168 c 2
 69 460 l 1
 180 460 l 1
 180 180 l 2
95 579 m 1
 105 628 152 666 205 666 c 0
 270 666 279 617 334 617 c 0
 355 617 374 635 394 667 c 1
 450 611 l 1
 434 574 388 533 333 533 c 0
 278 533 251 583 204 583 c 0
 164 583 156 547 156 532 c 1
 95 579 l 1
EndSplineSet
EndChar

StartChar: Umacron
Encoding: 362 362 386
Width: 656
VWidth: 0
Flags: HW
LayerCount: 2
Fore
SplineSet
73 700 m 1
 191 700 l 1
 191 235 l 2
 191 149 238 91 328 91 c 0
 418 91 465 149 465 235 c 2
 465 700 l 1
 583 700 l 1
 583 230 l 2
 583 76 478 -18 328 -18 c 0
 178 -18 73 76 73 230 c 2
 73 700 l 1
149 772 m 1
 149 870 l 1
 508 870 l 1
 508 772 l 1
 149 772 l 1
EndSplineSet
EndChar

StartChar: umacron
Encoding: 363 363 387
Width: 545
VWidth: 0
Flags: HW
LayerCount: 2
Fore
SplineSet
368 0 m 1
 368 460 l 1
 476 460 l 1
 476 0 l 1
 368 0 l 1
180 180 m 2
 180 113 206 77 265 77 c 0
 326 77 368 119 368 180 c 1
 394 182 l 1
 394 73 332 -10 229 -10 c 0
 126 -10 69 51 69 168 c 2
 69 460 l 1
 180 460 l 1
 180 180 l 2
93 530 m 1
 93 628 l 1
 452 628 l 1
 452 530 l 1
 93 530 l 1
EndSplineSet
EndChar

StartChar: Ubreve
Encoding: 364 364 388
Width: 656
VWidth: 0
Flags: HW
LayerCount: 2
Fore
SplineSet
73 700 m 1
 191 700 l 1
 191 235 l 2
 191 149 238 91 328 91 c 0
 418 91 465 149 465 235 c 2
 465 700 l 1
 583 700 l 1
 583 230 l 2
 583 76 478 -18 328 -18 c 0
 178 -18 73 76 73 230 c 2
 73 700 l 1
167 915 m 1
 250 915 l 1
 250 885 270 846 328 846 c 0
 386 846 406 885 406 915 c 1
 489 915 l 1
 489 841 433 772 328 772 c 0
 223 772 167 841 167 915 c 1
EndSplineSet
EndChar

StartChar: ubreve
Encoding: 365 365 389
Width: 545
VWidth: 0
Flags: HW
LayerCount: 2
Fore
SplineSet
368 0 m 1
 368 460 l 1
 476 460 l 1
 476 0 l 1
 368 0 l 1
180 180 m 2
 180 113 206 77 265 77 c 0
 326 77 368 119 368 180 c 1
 394 182 l 1
 394 73 332 -10 229 -10 c 0
 126 -10 69 51 69 168 c 2
 69 460 l 1
 180 460 l 1
 180 180 l 2
112 673 m 1
 194 673 l 1
 194 643 215 604 273 604 c 0
 331 604 351 643 351 673 c 1
 433 673 l 1
 433 599 378 530 273 530 c 0
 168 530 112 599 112 673 c 1
EndSplineSet
EndChar

StartChar: Wcircumflex
Encoding: 372 372 390
Width: 1020
VWidth: 0
Flags: HW
LayerCount: 2
Fore
SplineSet
712 219 m 1
 875 700 l 1
 1012 700 l 1
 726 -37 l 1
 510 457 l 1
 294 -37 l 1
 8 700 l 1
 145 700 l 1
 308 219 l 1
 510 735 l 1
 712 219 l 1
510 886 m 1
 407 795 l 1
 335 847 l 1
 510 987 l 1
 685 847 l 1
 613 795 l 1
 510 886 l 1
EndSplineSet
EndChar

StartChar: wcircumflex
Encoding: 373 373 391
Width: 712
VWidth: 0
Flags: HW
LayerCount: 2
Fore
SplineSet
-0 460 m 1
 117 460 l 1
 225 187 l 1
 353 495 l 1
 487 185 l 1
 595 460 l 1
 713 460 l 1
 497 -33 l 1
 353 278 l 1
 215 -33 l 1
 -0 460 l 1
353 646 m 1
 250 555 l 1
 177 607 l 1
 353 747 l 1
 527 607 l 1
 455 555 l 1
 353 646 l 1
EndSplineSet
EndChar

StartChar: Ycircumflex
Encoding: 374 374 392
Width: 600
VWidth: 0
Flags: HW
LayerCount: 2
Fore
SplineSet
463 700 m 1
 598 700 l 1
 361 295 l 1
 361 0 l 1
 240 0 l 1
 240 294 l 1
 3 700 l 1
 138 700 l 1
 300 400 l 1
 463 700 l 1
300 864 m 1
 198 772 l 1
 126 825 l 1
 300 965 l 1
 476 825 l 1
 403 772 l 1
 300 864 l 1
EndSplineSet
EndChar

StartChar: ycircumflex
Encoding: 375 375 393
Width: 472
VWidth: 0
Flags: HW
LayerCount: 2
Fore
SplineSet
476 460 m 1
 176 -220 l 1
 61 -220 l 1
 182 54 l 1
 -4 460 l 1
 120 460 l 1
 267 96 l 1
 216 99 l 1
 360 460 l 1
 476 460 l 1
236 621 m 1
 134 530 l 1
 61 583 l 1
 236 723 l 1
 411 583 l 1
 339 530 l 1
 236 621 l 1
EndSplineSet
EndChar

StartChar: uni0400
Encoding: 1024 1024 394
Width: 571
VWidth: 0
Flags: HW
LayerCount: 2
Fore
SplineSet
151 0 m 1
 151 104 l 1
 504 104 l 1
 504 0 l 1
 151 0 l 1
151 596 m 1
 151 700 l 1
 504 700 l 1
 504 596 l 1
 151 596 l 1
151 324 m 1
 151 426 l 1
 484 426 l 1
 484 324 l 1
 151 324 l 1
78 700 m 1
 194 700 l 1
 194 0 l 1
 78 0 l 1
 78 700 l 1
111 922 m 1
 202 968 l 1
 352 808 l 1
 291 772 l 1
 111 922 l 1
EndSplineSet
EndChar

StartChar: uni0401
Encoding: 1025 1025 395
Width: 571
VWidth: 0
Flags: HW
LayerCount: 2
Fore
SplineSet
151 0 m 1
 151 104 l 1
 504 104 l 1
 504 0 l 1
 151 0 l 1
151 596 m 1
 151 700 l 1
 504 700 l 1
 504 596 l 1
 151 596 l 1
151 324 m 1
 151 426 l 1
 484 426 l 1
 484 324 l 1
 151 324 l 1
78 700 m 1
 194 700 l 1
 194 0 l 1
 78 0 l 1
 78 700 l 1
331 838 m 0
 331 875 361 904 399 904 c 0
 437 904 468 875 468 838 c 0
 468 801 437 772 399 772 c 0
 361 772 331 801 331 838 c 0
114 838 m 0
 114 875 144 904 182 904 c 0
 220 904 250 875 250 838 c 0
 250 801 220 772 182 772 c 0
 144 772 114 801 114 838 c 0
EndSplineSet
EndChar

StartChar: uni0403
Encoding: 1027 1027 396
Width: 463
VWidth: 0
Flags: HW
LayerCount: 2
Fore
SplineSet
80 700 m 1
 454 700 l 1
 454 591 l 1
 199 591 l 1
 199 0 l 1
 80 0 l 1
 80 700 l 1
447 922 m 1
 267 772 l 1
 206 808 l 1
 356 968 l 1
 447 922 l 1
EndSplineSet
EndChar

StartChar: uni040C
Encoding: 1036 1036 397
Width: 619
VWidth: 0
Flags: HW
LayerCount: 2
Fore
SplineSet
78 700 m 1
 199 700 l 1
 199 0 l 1
 78 0 l 1
 78 700 l 1
459 700 m 1
 601 700 l 1
 306 372 l 1
 616 0 l 1
 471 0 l 1
 163 369 l 1
 459 700 l 1
520 922 m 1
 340 772 l 1
 278 808 l 1
 428 968 l 1
 520 922 l 1
EndSplineSet
EndChar

StartChar: uni040D
Encoding: 1037 1037 398
Width: 782
VWidth: 0
Flags: HW
LayerCount: 2
Fore
SplineSet
700 573 m 1
 78 -35 l 1
 83 127 l 1
 705 735 l 1
 700 573 l 1
194 700 m 1
 194 97 l 1
 78 -35 l 1
 78 700 l 1
 194 700 l 1
705 735 m 1
 705 0 l 1
 589 0 l 1
 589 600 l 1
 705 735 l 1
253 900 m 1
 344 945 l 1
 494 785 l 1
 433 750 l 1
 253 900 l 1
EndSplineSet
EndChar

StartChar: uni040E
Encoding: 1038 1038 399
Width: 581
VWidth: 0
Flags: HW
LayerCount: 2
Fore
SplineSet
585 700 m 1
 256 0 l 1
 132 0 l 1
 224 209 l 1
 -4 700 l 1
 133 700 l 1
 319 251 l 1
 258 254 l 1
 460 700 l 1
 585 700 l 1
132 915 m 1
 214 915 l 1
 214 885 235 846 293 846 c 0
 351 846 371 885 371 915 c 1
 453 915 l 1
 453 841 398 772 293 772 c 0
 188 772 132 841 132 915 c 1
EndSplineSet
EndChar

StartChar: uni0410
Encoding: 1040 1040 400
Width: 690
VWidth: 0
Flags: HW
LayerCount: 2
Fore
SplineSet
162 180 m 1
 185 280 l 1
 509 280 l 1
 532 180 l 1
 162 180 l 1
345 502 m 1
 235 245 l 1
 233 219 l 1
 136 0 l 1
 3 0 l 1
 345 739 l 1
 687 0 l 1
 554 0 l 1
 459 213 l 1
 456 242 l 1
 345 502 l 1
EndSplineSet
EndChar

StartChar: uni0411
Encoding: 1041 1041 401
Width: 598
VWidth: 0
Flags: HW
LayerCount: 2
Fore
SplineSet
127 324 m 1
 127 426 l 1
 320 426 l 2
 455 426 558 343 558 214 c 0
 558 85 455 0 320 0 c 2
 127 0 l 1
 127 104 l 1
 305 104 l 2
 385 104 438 140 438 214 c 0
 438 288 385 324 305 324 c 2
 127 324 l 1
80 700 m 1
 505 700 l 1
 505 596 l 1
 200 596 l 1
 200 0 l 1
 80 0 l 1
 80 700 l 1
EndSplineSet
EndChar

StartChar: uni0412
Encoding: 1042 1042 402
Width: 600
VWidth: 0
Flags: HW
LayerCount: 2
Fore
SplineSet
168 361 m 1
 168 419 l 1
 281 419 l 2
 346 419 392 453 392 511 c 0
 392 569 346 603 281 603 c 2
 196 603 l 1
 196 97 l 1
 294 97 l 2
 374 97 432 136 432 214 c 0
 432 290 374 327 294 327 c 2
 168 327 l 1
 168 392 l 1
 301 392 l 2
 436 392 553 336 553 202 c 0
 553 63 448 0 301 0 c 2
 78 0 l 1
 78 700 l 1
 289 700 l 2
 422 700 513 643 513 524 c 0
 513 420 422 361 289 361 c 2
 168 361 l 1
EndSplineSet
EndChar

StartChar: uni0413
Encoding: 1043 1043 403
Width: 463
VWidth: 0
Flags: HW
LayerCount: 2
Fore
SplineSet
80 700 m 1
 454 700 l 1
 454 591 l 1
 199 591 l 1
 199 0 l 1
 80 0 l 1
 80 700 l 1
EndSplineSet
EndChar

StartChar: uni0414
Encoding: 1044 1044 404
Width: 829
VWidth: 0
Flags: HW
LayerCount: 2
Fore
SplineSet
413 497 m 1
 238 30 l 1
 105 30 l 1
 413 735 l 1
 720 30 l 1
 588 30 l 1
 413 497 l 1
673 0 m 1
 153 0 l 1
 153 -110 l 1
 40 -110 l 1
 40 106 l 1
 785 106 l 1
 785 -110 l 1
 673 -110 l 1
 673 0 l 1
EndSplineSet
EndChar

StartChar: uni0415
Encoding: 1045 1045 405
Width: 571
VWidth: 0
Flags: HW
LayerCount: 2
Fore
SplineSet
151 0 m 1
 151 104 l 1
 504 104 l 1
 504 0 l 1
 151 0 l 1
151 596 m 1
 151 700 l 1
 504 700 l 1
 504 596 l 1
 151 596 l 1
151 324 m 1
 151 426 l 1
 484 426 l 1
 484 324 l 1
 151 324 l 1
78 700 m 1
 194 700 l 1
 194 0 l 1
 78 0 l 1
 78 700 l 1
EndSplineSet
EndChar

StartChar: uni0416
Encoding: 1046 1046 406
Width: 971
VWidth: 0
Flags: HW
LayerCount: 2
Fore
SplineSet
160 700 m 1
 456 370 l 1
 145 0 l 1
 3 0 l 1
 315 372 l 1
 18 700 l 1
 160 700 l 1
429 700 m 1
 550 700 l 1
 550 0 l 1
 429 0 l 1
 429 700 l 1
809 700 m 1
 954 700 l 1
 656 372 l 1
 969 0 l 1
 824 0 l 1
 523 370 l 1
 809 700 l 1
EndSplineSet
EndChar

StartChar: uni0417
Encoding: 1047 1047 407
Width: 630
VWidth: 0
Flags: HW
LayerCount: 2
Fore
SplineSet
292 343 m 1
 292 406 l 1
 397 406 453 453 453 513 c 0
 453 570 411 611 330 611 c 0
 250 611 196 570 196 514 c 1
 85 514 l 1
 85 629 179 711 330 711 c 0
 485 711 572 625 572 522 c 0
 572 414 455 343 292 343 c 1
329 -12 m 0
 145 -12 55 85 55 200 c 1
 174 200 l 1
 179 133 231 90 327 90 c 0
 423 90 473 130 473 200 c 0
 473 275 404 317 292 317 c 1
 292 385 l 1
 462 385 592 327 592 187 c 0
 592 67 498 -12 329 -12 c 0
EndSplineSet
EndChar

StartChar: uni0418
Encoding: 1048 1048 408
Width: 782
VWidth: 0
Flags: HW
LayerCount: 2
Fore
SplineSet
700 573 m 1
 78 -35 l 1
 83 127 l 1
 705 735 l 1
 700 573 l 1
194 700 m 1
 194 97 l 1
 78 -35 l 1
 78 700 l 1
 194 700 l 1
705 735 m 1
 705 0 l 1
 589 0 l 1
 589 600 l 1
 705 735 l 1
EndSplineSet
EndChar

StartChar: uni0419
Encoding: 1049 1049 409
Width: 782
VWidth: 0
Flags: HW
LayerCount: 2
Fore
SplineSet
700 573 m 1
 78 -35 l 1
 83 127 l 1
 705 735 l 1
 700 573 l 1
194 700 m 1
 194 97 l 1
 78 -35 l 1
 78 700 l 1
 194 700 l 1
705 735 m 1
 705 0 l 1
 589 0 l 1
 589 600 l 1
 705 735 l 1
257 910 m 1
 339 910 l 1
 339 880 359 841 417 841 c 0
 475 841 496 880 496 910 c 1
 578 910 l 1
 578 836 522 767 417 767 c 0
 312 767 257 836 257 910 c 1
EndSplineSet
EndChar

StartChar: uni041A
Encoding: 1050 1050 410
Width: 619
VWidth: 0
Flags: HW
LayerCount: 2
Fore
SplineSet
78 700 m 1
 199 700 l 1
 199 0 l 1
 78 0 l 1
 78 700 l 1
459 700 m 1
 601 700 l 1
 306 372 l 1
 616 0 l 1
 471 0 l 1
 163 369 l 1
 459 700 l 1
EndSplineSet
EndChar

StartChar: uni041B
Encoding: 1051 1051 411
Width: 702
VWidth: 0
Flags: HW
LayerCount: 2
Fore
SplineSet
623 700 m 25
 623 0 l 1
 503 0 l 1
 503 591 l 1
 224 591 l 25
 224 262 l 2
 224 105 156 0 10 0 c 1
 10 101 l 1
 72 101 108 172 108 270 c 2
 108 700 l 25
 623 700 l 25
EndSplineSet
EndChar

StartChar: uni041C
Encoding: 1052 1052 412
Width: 842
VWidth: 0
Flags: HW
LayerCount: 2
Fore
SplineSet
208 426 m 1
 160 0 l 1
 38 0 l 1
 134 735 l 1
 421 260 l 1
 709 735 l 1
 805 0 l 1
 683 0 l 1
 635 426 l 1
 421 65 l 1
 208 426 l 1
EndSplineSet
EndChar

StartChar: uni041D
Encoding: 1053 1053 413
Width: 743
VWidth: 0
Flags: HW
LayerCount: 2
Fore
SplineSet
125 321 m 1
 125 430 l 1
 625 430 l 1
 625 321 l 1
 125 321 l 1
548 700 m 1
 666 700 l 1
 666 0 l 1
 548 0 l 1
 548 700 l 1
78 700 m 1
 196 700 l 1
 196 0 l 1
 78 0 l 1
 78 700 l 1
EndSplineSet
EndChar

StartChar: uni041E
Encoding: 1054 1054 414
Width: 802
VWidth: 0
Flags: HW
LayerCount: 2
Fore
SplineSet
163 350 m 0
 163 206 262 101 401 101 c 0
 540 101 639 206 639 350 c 0
 639 494 542 599 401 599 c 0
 262 599 163 494 163 350 c 0
38 350 m 0
 38 559 193 712 401 712 c 0
 610 712 765 559 765 350 c 0
 765 141 611 -15 401 -15 c 0
 191 -15 38 141 38 350 c 0
EndSplineSet
EndChar

StartChar: uni041F
Encoding: 1055 1055 415
Width: 737
VWidth: 0
Flags: HW
LayerCount: 2
Fore
SplineSet
538 591 m 1
 200 591 l 1
 200 0 l 1
 80 0 l 1
 80 700 l 1
 657 700 l 1
 657 0 l 1
 538 0 l 1
 538 591 l 1
EndSplineSet
EndChar

StartChar: uni0420
Encoding: 1056 1056 416
Width: 578
VWidth: 0
Flags: HW
LayerCount: 2
Fore
SplineSet
78 700 m 1
 196 700 l 1
 196 0 l 1
 78 0 l 1
 78 700 l 1
148 596 m 1
 148 700 l 1
 289 700 l 2
 442 700 540 616 540 482 c 0
 540 348 442 265 289 265 c 2
 148 265 l 1
 148 369 l 1
 289 369 l 2
 370 369 424 407 424 482 c 0
 424 557 370 596 289 596 c 2
 148 596 l 1
EndSplineSet
EndChar

StartChar: uni0421
Encoding: 1057 1057 417
Width: 691
VWidth: 0
Flags: HW
LayerCount: 2
Fore
SplineSet
166 350 m 0
 166 201 277 103 405 103 c 0
 504 103 576 146 624 203 c 1
 624 62 l 1
 566 14 503 -12 401 -12 c 0
 195 -12 38 137 38 350 c 0
 38 563 195 712 401 712 c 0
 503 712 566 686 624 638 c 1
 624 497 l 1
 576 554 504 597 405 597 c 0
 277 597 166 499 166 350 c 0
EndSplineSet
EndChar

StartChar: uni0422
Encoding: 1058 1058 418
Width: 503
VWidth: 0
Flags: HW
LayerCount: 2
Fore
SplineSet
8 591 m 1
 8 700 l 1
 496 700 l 1
 496 591 l 1
 311 591 l 1
 311 0 l 1
 192 0 l 1
 192 591 l 1
 8 591 l 1
EndSplineSet
EndChar

StartChar: uni0423
Encoding: 1059 1059 419
Width: 586
VWidth: 0
Flags: HW
LayerCount: 2
Fore
SplineSet
590 700 m 1
 261 0 l 1
 135 0 l 1
 227 209 l 1
 -4 700 l 1
 135 700 l 1
 322 251 l 1
 261 254 l 1
 462 700 l 1
 590 700 l 1
EndSplineSet
EndChar

StartChar: uni0424
Encoding: 1060 1060 420
Width: 843
VWidth: 0
Flags: HW
LayerCount: 2
Fore
SplineSet
361 700 m 1
 482 700 l 1
 482 0 l 1
 361 0 l 1
 361 700 l 1
683 350 m 0
 683 461 596 510 468 510 c 2
 375 510 l 2
 247 510 160 461 160 350 c 0
 160 239 247 190 375 190 c 2
 468 190 l 2
 596 190 683 239 683 350 c 0
803 350 m 0
 803 181 665 80 481 80 c 2
 362 80 l 2
 178 80 40 181 40 350 c 0
 40 519 178 620 362 620 c 2
 481 620 l 2
 665 620 803 519 803 350 c 0
EndSplineSet
EndChar

StartChar: uni0425
Encoding: 1061 1061 421
Width: 607
VWidth: 0
Flags: HW
LayerCount: 2
Fore
SplineSet
441 700 m 1
 585 700 l 1
 373 364 l 1
 600 0 l 1
 456 0 l 1
 306 269 l 1
 151 0 l 1
 8 0 l 1
 240 364 l 1
 33 700 l 1
 176 700 l 1
 307 463 l 1
 441 700 l 1
EndSplineSet
EndChar

StartChar: uni0426
Encoding: 1062 1062 422
Width: 800
VWidth: 0
Flags: HW
LayerCount: 2
Fore
SplineSet
197 109 m 1
 548 109 l 1
 548 700 l 1
 667 700 l 1
 667 109 l 1
 762 109 l 1
 762 -120 l 1
 653 -120 l 1
 653 0 l 1
 78 0 l 1
 78 700 l 1
 197 700 l 1
 197 109 l 1
EndSplineSet
EndChar

StartChar: uni0427
Encoding: 1063 1063 423
Width: 656
VWidth: 0
Flags: HW
LayerCount: 2
Fore
SplineSet
298 256 m 1
 318 361 l 1
 515 361 l 1
 515 256 l 1
 298 256 l 1
455 700 m 1
 576 700 l 1
 576 0 l 1
 455 0 l 1
 455 700 l 1
194 700 m 1
 194 507 l 2
 194 422 240 361 318 361 c 1
 298 256 l 1
 154 256 78 363 78 498 c 2
 78 700 l 1
 194 700 l 1
EndSplineSet
EndChar

StartChar: uni0428
Encoding: 1064 1064 424
Width: 1023
VWidth: 0
Flags: HW
LayerCount: 2
Fore
SplineSet
825 109 m 1
 825 700 l 1
 944 700 l 1
 944 0 l 1
 80 0 l 1
 80 700 l 1
 199 700 l 1
 199 109 l 1
 454 109 l 1
 454 700 l 1
 570 700 l 1
 570 109 l 1
 825 109 l 1
EndSplineSet
EndChar

StartChar: uni0429
Encoding: 1065 1065 425
Width: 1078
VWidth: 0
Flags: HW
LayerCount: 2
Fore
SplineSet
825 109 m 1
 825 700 l 1
 944 700 l 1
 944 109 l 1
 1039 109 l 1
 1039 -120 l 1
 929 -120 l 1
 929 0 l 1
 80 0 l 1
 80 700 l 1
 199 700 l 1
 199 109 l 1
 454 109 l 1
 454 700 l 1
 570 700 l 1
 570 109 l 1
 825 109 l 1
EndSplineSet
EndChar

StartChar: uni042A
Encoding: 1066 1066 426
Width: 689
VWidth: 0
Flags: HW
LayerCount: 2
Fore
SplineSet
259 331 m 1
 259 435 l 1
 400 435 l 2
 553 435 652 352 652 218 c 0
 652 84 553 0 400 0 c 2
 259 0 l 1
 259 104 l 1
 400 104 l 2
 481 104 535 143 535 218 c 0
 535 293 481 331 400 331 c 2
 259 331 l 1
190 592 m 1
 10 592 l 1
 10 700 l 1
 309 700 l 1
 309 0 l 1
 190 0 l 1
 190 592 l 1
EndSplineSet
EndChar

StartChar: uni042B
Encoding: 1067 1067 427
Width: 822
VWidth: 0
Flags: HW
LayerCount: 2
Fore
SplineSet
625 700 m 1
 745 700 l 1
 745 0 l 1
 625 0 l 1
 625 700 l 1
78 700 m 1
 196 700 l 1
 196 0 l 1
 78 0 l 1
 78 700 l 1
148 331 m 1
 148 435 l 1
 289 435 l 2
 442 435 540 352 540 218 c 0
 540 84 442 0 289 0 c 2
 148 0 l 1
 148 104 l 1
 289 104 l 2
 370 104 424 143 424 218 c 0
 424 293 370 331 289 331 c 2
 148 331 l 1
EndSplineSet
EndChar

StartChar: uni042C
Encoding: 1068 1068 428
Width: 578
VWidth: 0
Flags: HW
LayerCount: 2
Fore
SplineSet
78 700 m 1
 196 700 l 1
 196 0 l 1
 78 0 l 1
 78 700 l 1
148 331 m 1
 148 435 l 1
 289 435 l 2
 442 435 540 352 540 218 c 0
 540 84 442 0 289 0 c 2
 148 0 l 1
 148 104 l 1
 289 104 l 2
 370 104 424 143 424 218 c 0
 424 293 370 331 289 331 c 2
 148 331 l 1
EndSplineSet
EndChar

StartChar: uni042D
Encoding: 1069 1069 429
Width: 691
VWidth: 0
Flags: HW
LayerCount: 2
Fore
SplineSet
134 299 m 1
 134 401 l 1
 537 401 l 1
 537 299 l 1
 134 299 l 1
533 350 m 0
 533 499 414 599 286 599 c 0
 187 599 113 557 68 505 c 1
 68 638 l 1
 126 686 188 712 290 712 c 0
 496 712 654 563 654 350 c 0
 654 137 496 -12 290 -12 c 0
 188 -12 126 14 68 62 c 1
 68 195 l 1
 113 143 187 101 286 101 c 0
 414 101 533 201 533 350 c 0
EndSplineSet
EndChar

StartChar: uni042E
Encoding: 1070 1070 430
Width: 1074
VWidth: 0
Flags: HW
LayerCount: 2
Fore
SplineSet
125 321 m 1
 125 430 l 1
 392 430 l 1
 392 321 l 1
 125 321 l 1
78 700 m 1
 196 700 l 1
 196 0 l 1
 78 0 l 1
 78 700 l 1
436 350 m 0
 436 206 535 101 674 101 c 0
 813 101 912 206 912 350 c 0
 912 494 815 599 674 599 c 0
 535 599 436 494 436 350 c 0
310 350 m 0
 310 559 466 712 674 712 c 0
 883 712 1038 559 1038 350 c 0
 1038 141 884 -15 674 -15 c 0
 464 -15 310 141 310 350 c 0
EndSplineSet
EndChar

StartChar: uni042F
Encoding: 1071 1071 431
Width: 594
VWidth: 0
Flags: HW
LayerCount: 2
Fore
SplineSet
373 334 m 1
 150 0 l 1
 8 0 l 1
 245 334 l 1
 373 334 l 1
518 700 m 1
 518 0 l 1
 399 0 l 1
 399 700 l 1
 518 700 l 1
447 597 m 1
 306 597 l 2
 225 597 171 555 171 480 c 0
 171 405 225 363 306 363 c 2
 447 363 l 1
 447 265 l 1
 301 265 l 2
 148 265 50 351 50 482 c 0
 50 613 148 700 301 700 c 2
 447 700 l 1
 447 597 l 1
EndSplineSet
EndChar

StartChar: uni0430
Encoding: 1072 1072 432
Width: 508
VWidth: 0
Flags: HW
LayerCount: 2
Fore
SplineSet
137 136 m 0
 137 93 175 72 222 72 c 0
 292 72 345 101 345 182 c 1
 361 130 l 1
 361 41 284 -10 189 -10 c 0
 98 -10 28 39 28 132 c 0
 28 227 104 283 225 283 c 0
 305 283 362 246 378 227 c 1
 378 170 l 1
 337 200 297 214 241 214 c 0
 172 214 137 184 137 136 c 0
113 338 m 1
 70 416 l 1
 112 441 176 471 259 471 c 0
 372 471 451 419 451 328 c 2
 451 0 l 1
 345 0 l 1
 345 316 l 2
 345 359 304 383 254 383 c 0
 188 383 135 353 113 338 c 1
EndSplineSet
Substitution2: "alt a" a.alt
EndChar

StartChar: uni0431
Encoding: 1073 1073 433
Width: 570
VWidth: 0
Flags: HW
LayerCount: 2
Fore
SplineSet
288 375 m 1
 293 470 l 1
 433 470 536 369 536 230 c 0
 536 91 433 -10 288 -10 c 0
 143 -10 35 91 35 290 c 1
 150 230 l 1
 150 144 210 85 288 85 c 0
 366 85 425 144 425 230 c 0
 425 316 366 375 288 375 c 1
101 230 m 1
 101 379 178 470 293 470 c 1
 288 375 l 1
 224 375 150 324 150 230 c 1
 101 230 l 1
35 290 m 1
 35 477 79 599 238 658 c 0
 329 691 372 732 382 780 c 1
 488 780 l 1
 478 691 396 621 287 583 c 0
 163 540 130 440 130 340 c 2
 140 235 l 1
 35 290 l 1
EndSplineSet
EndChar

StartChar: uni0432
Encoding: 1074 1074 434
Width: 481
VWidth: 0
Flags: HW
LayerCount: 2
Fore
SplineSet
138 240 m 1
 284 240 l 2
 379 240 452 214 452 125 c 0
 452 56 409 0 304 0 c 2
 138 0 l 1
 138 80 l 1
 271 80 l 2
 323 80 347 106 347 137 c 0
 347 168 323 193 271 193 c 2
 138 193 l 1
 138 240 l 1
138 220 m 1
 138 272 l 1
 261 272 l 2
 301 272 327 296 327 327 c 0
 327 358 301 380 261 380 c 2
 138 380 l 1
 138 460 l 1
 274 460 l 2
 359 460 432 424 432 335 c 0
 432 256 359 220 274 220 c 2
 138 220 l 1
75 460 m 1
 181 460 l 1
 181 0 l 1
 75 0 l 1
 75 460 l 1
EndSplineSet
EndChar

StartChar: uni0433
Encoding: 1075 1075 435
Width: 341
VWidth: 0
Flags: HW
LayerCount: 2
Fore
SplineSet
72 460 m 1
 337 460 l 1
 337 365 l 1
 180 365 l 1
 180 0 l 1
 72 0 l 1
 72 460 l 1
EndSplineSet
EndChar

StartChar: uni0434
Encoding: 1076 1076 436
Width: 675
VWidth: 0
Flags: HW
LayerCount: 2
Fore
SplineSet
335 304 m 1
 210 30 l 1
 98 42 l 1
 335 495 l 1
 572 42 l 1
 460 30 l 1
 335 304 l 1
525 0 m 1
 150 0 l 1
 150 -90 l 1
 40 -90 l 1
 40 93 l 1
 630 93 l 1
 630 -90 l 1
 525 -90 l 1
 525 0 l 1
EndSplineSet
EndChar

StartChar: uni0435
Encoding: 1077 1077 437
Width: 539
VWidth: 0
Flags: HW
LayerCount: 2
Fore
SplineSet
98 205 m 1
 98 280 l 1
 387 280 l 1
 379 345 343 388 273 388 c 0
 201 388 146 339 146 258 c 1
 144 230 l 1
 144 129 196 79 274 79 c 0
 336 79 379 107 406 152 c 1
 500 115 l 1
 454 40 393 -10 269 -10 c 0
 126 -10 34 91 34 230 c 0
 34 247 35 263 38 279 c 0
 57 392 143 470 274 470 c 0
 416 470 504 380 504 235 c 0
 504 227 504 216 503 205 c 1
 98 205 l 1
EndSplineSet
EndChar

StartChar: uni0436
Encoding: 1078 1078 438
Width: 757
VWidth: 0
Flags: HW
LayerCount: 2
Fore
SplineSet
607 460 m 1
 737 460 l 1
 533 262 l 1
 757 0 l 1
 627 0 l 1
 407 270 l 1
 607 460 l 1
430 460 m 1
 430 0 l 1
 328 0 l 1
 328 460 l 1
 430 460 l 1
150 460 m 1
 350 270 l 1
 130 0 l 1
 0 0 l 1
 225 262 l 1
 20 460 l 1
 150 460 l 1
EndSplineSet
EndChar

StartChar: uni0437
Encoding: 1079 1079 439
Width: 497
VWidth: 0
Flags: HW
LayerCount: 2
Fore
SplineSet
252 230 m 1
 252 278 l 1
 305 278 328 302 328 332 c 0
 328 364 303 383 262 383 c 0
 211 383 186 349 186 318 c 1
 82 318 l 1
 82 404 156 470 261 470 c 0
 359 470 432 414 432 343 c 0
 432 276 369 228 252 230 c 1
259 -10 m 0
 141 -10 70 56 60 150 c 1
 166 150 l 1
 175 108 201 75 259 75 c 0
 314 75 348 100 348 140 c 0
 348 182 314 207 252 207 c 1
 252 260 l 1
 376 262 452 219 452 135 c 0
 452 46 367 -10 259 -10 c 0
EndSplineSet
EndChar

StartChar: uni0438
Encoding: 1080 1080 440
Width: 563
VWidth: 0
Flags: HW
LayerCount: 2
Fore
SplineSet
486 360 m 1
 72 -35 l 1
 77 100 l 1
 491 495 l 1
 486 360 l 1
179 460 m 1
 179 87 l 1
 72 -35 l 1
 72 460 l 1
 179 460 l 1
491 495 m 1
 491 0 l 1
 385 0 l 1
 385 373 l 1
 491 495 l 1
EndSplineSet
EndChar

StartChar: uni0439
Encoding: 1081 1081 441
Width: 563
VWidth: 0
Flags: HW
LayerCount: 2
Fore
SplineSet
486 360 m 1
 72 -35 l 1
 77 100 l 1
 491 495 l 1
 486 360 l 1
179 460 m 1
 179 87 l 1
 72 -35 l 1
 72 460 l 1
 179 460 l 1
491 495 m 1
 491 0 l 1
 385 0 l 1
 385 373 l 1
 491 495 l 1
126 695 m 1
 208 695 l 1
 208 665 228 626 286 626 c 0
 344 626 364 665 364 695 c 1
 447 695 l 1
 447 621 391 553 286 553 c 0
 181 553 126 621 126 695 c 1
EndSplineSet
EndChar

StartChar: uni043A
Encoding: 1082 1082 442
Width: 494
VWidth: 0
Flags: HW
LayerCount: 2
Fore
SplineSet
65 460 m 1
 171 460 l 1
 171 0 l 1
 65 0 l 1
 65 460 l 1
340 460 m 1
 472 460 l 1
 274 270 l 1
 492 0 l 1
 361 0 l 1
 142 270 l 1
 340 460 l 1
EndSplineSet
EndChar

StartChar: uni043B
Encoding: 1083 1083 443
Width: 584
VWidth: 0
Flags: HW
LayerCount: 2
Fore
SplineSet
504 460 m 25
 504 0 l 1
 398 0 l 1
 398 360 l 1
 189 360 l 25
 189 160 l 2
 189 51 139 0 10 0 c 1
 10 98 l 1
 50 98 83 114 83 175 c 2
 83 460 l 25
 504 460 l 25
EndSplineSet
EndChar

StartChar: uni043C
Encoding: 1084 1084 444
Width: 627
VWidth: 0
Flags: HW
LayerCount: 2
Fore
SplineSet
507 0 m 1
 437 345 l 1
 494 495 l 1
 622 0 l 1
 507 0 l 1
282 94 m 1
 494 495 l 1
 504 317 l 1
 312 -31 l 1
 282 94 l 1
312 -31 m 1
 123 317 l 1
 133 495 l 1
 342 94 l 1
 312 -31 l 1
5 0 m 1
 133 495 l 1
 190 345 l 1
 120 0 l 1
 5 0 l 1
EndSplineSet
EndChar

StartChar: uni043D
Encoding: 1085 1085 445
Width: 585
VWidth: 0
Flags: HW
LayerCount: 2
Fore
SplineSet
116 197 m 1
 116 288 l 1
 468 288 l 1
 468 197 l 1
 116 197 l 1
410 460 m 1
 516 460 l 1
 516 0 l 1
 410 0 l 1
 410 460 l 1
69 460 m 1
 175 460 l 1
 175 0 l 1
 69 0 l 1
 69 460 l 1
EndSplineSet
EndChar

StartChar: uni043E
Encoding: 1086 1086 446
Width: 563
VWidth: 0
Flags: HW
LayerCount: 2
Fore
SplineSet
34 230 m 0
 34 371 141 470 282 470 c 0
 423 470 530 371 530 230 c 0
 530 89 423 -10 282 -10 c 0
 141 -10 34 89 34 230 c 0
145 230 m 0
 145 144 204 85 282 85 c 0
 360 85 419 144 419 230 c 0
 419 316 360 375 282 375 c 0
 204 375 145 316 145 230 c 0
EndSplineSet
EndChar

StartChar: uni043F
Encoding: 1087 1087 447
Width: 545
VWidth: 0
Flags: HW
LayerCount: 2
Fore
SplineSet
476 460 m 1
 476 0 l 1
 370 0 l 1
 370 363 l 1
 175 363 l 1
 175 0 l 1
 69 0 l 1
 69 460 l 1
 476 460 l 1
EndSplineSet
EndChar

StartChar: uni0440
Encoding: 1088 1088 448
Width: 588
VWidth: 0
Flags: HW
LayerCount: 2
Fore
SplineSet
174 -220 m 1
 65 -220 l 1
 65 460 l 1
 174 460 l 1
 174 -220 l 1
555 230 m 0
 555 76 451 -12 331 -12 c 0
 214 -12 138 81 138 230 c 0
 138 379 214 472 331 472 c 0
 451 472 555 384 555 230 c 0
443 230 m 0
 443 322 380 374 305 374 c 0
 243 374 174 324 174 230 c 0
 174 136 243 86 305 86 c 0
 380 86 443 138 443 230 c 0
EndSplineSet
EndChar

StartChar: uni0441
Encoding: 1089 1089 449
Width: 484
VWidth: 0
Flags: HW
LayerCount: 2
Fore
SplineSet
141 230 m 0
 141 143 203 83 284 83 c 0
 350 83 411 116 434 161 c 1
 434 42 l 1
 402 9 344 -10 279 -10 c 0
 136 -10 30 89 30 230 c 0
 30 371 136 470 279 470 c 0
 344 470 402 450 434 419 c 1
 434 299 l 1
 411 344 348 377 284 377 c 0
 203 377 141 315 141 230 c 0
EndSplineSet
EndChar

StartChar: uni0442
Encoding: 1090 1090 450
Width: 301
VWidth: 0
Flags: HW
LayerCount: 2
Fore
SplineSet
5 460 m 1
 296 460 l 1
 296 365 l 1
 5 365 l 1
 5 460 l 1
98 440 m 1
 204 440 l 1
 204 0 l 1
 98 0 l 1
 98 440 l 1
EndSplineSet
EndChar

StartChar: uni0443
Encoding: 1091 1091 451
Width: 472
VWidth: 0
Flags: HW
LayerCount: 2
Fore
SplineSet
476 460 m 1
 176 -220 l 1
 61 -220 l 1
 182 54 l 1
 -4 460 l 1
 120 460 l 1
 267 96 l 1
 216 99 l 1
 360 460 l 1
 476 460 l 1
EndSplineSet
EndChar

StartChar: uni0444
Encoding: 1092 1092 452
Width: 618
VWidth: 0
Flags: HW
LayerCount: 2
Fore
SplineSet
257 560 m 1
 362 560 l 1
 362 -100 l 1
 257 -100 l 1
 257 560 l 1
34 230 m 0
 34 371 140 470 309 470 c 0
 478 470 585 371 585 230 c 0
 585 89 478 -10 309 -10 c 0
 140 -10 34 89 34 230 c 0
137 230 m 0
 137 144 197 85 309 85 c 0
 421 85 481 144 481 230 c 0
 481 316 421 375 309 375 c 0
 197 375 137 316 137 230 c 0
EndSplineSet
EndChar

StartChar: uni0445
Encoding: 1093 1093 453
Width: 464
VWidth: 0
Flags: HW
LayerCount: 2
Fore
SplineSet
334 460 m 1
 455 460 l 1
 290 237 l 1
 465 0 l 1
 344 0 l 1
 234 158 l 1
 124 0 l 1
 0 0 l 1
 176 237 l 1
 10 460 l 1
 134 460 l 1
 234 316 l 1
 334 460 l 1
EndSplineSet
EndChar

StartChar: uni0446
Encoding: 1094 1094 454
Width: 587
VWidth: 0
Flags: HW
LayerCount: 2
Fore
SplineSet
479 95 m 1
 559 95 l 1
 559 -95 l 1
 460 -95 l 1
 460 0 l 1
 69 0 l 1
 69 460 l 1
 177 460 l 1
 177 95 l 1
 370 95 l 1
 370 460 l 1
 479 460 l 1
 479 95 l 1
EndSplineSet
EndChar

StartChar: uni0447
Encoding: 1095 1095 455
Width: 509
VWidth: 0
Flags: HW
LayerCount: 2
Fore
SplineSet
230 130 m 1
 248 225 l 1
 387 225 l 1
 387 130 l 1
 230 130 l 1
330 460 m 1
 439 460 l 1
 439 0 l 1
 330 0 l 1
 330 460 l 1
159 460 m 1
 159 323 l 2
 159 253 182 225 248 225 c 1
 230 130 l 1
 91 130 50 193 50 328 c 2
 50 460 l 1
 159 460 l 1
EndSplineSet
EndChar

StartChar: uni0448
Encoding: 1096 1096 456
Width: 802
VWidth: 0
Flags: HW
LayerCount: 2
Fore
SplineSet
454 95 m 1
 628 95 l 1
 628 460 l 1
 734 460 l 1
 734 0 l 1
 69 0 l 1
 69 460 l 1
 175 460 l 1
 175 95 l 1
 348 95 l 1
 348 460 l 1
 454 460 l 1
 454 95 l 1
EndSplineSet
EndChar

StartChar: uni0449
Encoding: 1097 1097 457
Width: 842
VWidth: 0
Flags: HW
LayerCount: 2
Fore
SplineSet
454 95 m 1
 627 95 l 1
 627 460 l 1
 734 460 l 1
 734 95 l 1
 814 95 l 1
 814 -95 l 1
 715 -95 l 1
 715 0 l 1
 69 0 l 1
 69 460 l 1
 175 460 l 1
 175 95 l 1
 348 95 l 1
 348 460 l 1
 454 460 l 1
 454 95 l 1
EndSplineSet
EndChar

StartChar: uni044A
Encoding: 1098 1098 458
Width: 591
VWidth: 0
Flags: HW
LayerCount: 2
Fore
SplineSet
232 212 m 1
 232 294 l 1
 375 294 l 2
 470 294 543 250 543 151 c 0
 543 52 470 0 375 0 c 2
 232 0 l 1
 232 89 l 1
 364 89 l 2
 412 89 438 113 438 151 c 0
 438 189 412 212 364 212 c 2
 232 212 l 1
160 365 m 1
 5 365 l 1
 5 460 l 1
 264 460 l 1
 264 0 l 1
 160 0 l 1
 160 365 l 1
EndSplineSet
EndChar

StartChar: uni044B
Encoding: 1099 1099 459
Width: 692
VWidth: 0
Flags: HW
LayerCount: 2
Fore
SplineSet
515 460 m 1
 624 460 l 1
 624 0 l 1
 515 0 l 1
 515 460 l 1
69 460 m 1
 177 460 l 1
 177 0 l 1
 69 0 l 1
 69 460 l 1
144 212 m 1
 144 294 l 1
 287 294 l 2
 382 294 455 250 455 151 c 0
 455 52 382 0 287 0 c 2
 144 0 l 1
 144 89 l 1
 277 89 l 2
 325 89 351 113 351 151 c 0
 351 189 325 212 277 212 c 2
 144 212 l 1
EndSplineSet
EndChar

StartChar: uni044C
Encoding: 1100 1100 460
Width: 507
VWidth: 0
Flags: HW
LayerCount: 2
Fore
SplineSet
71 460 m 1
 180 460 l 1
 180 0 l 1
 71 0 l 1
 71 460 l 1
147 212 m 1
 147 294 l 1
 290 294 l 2
 385 294 458 250 458 151 c 0
 458 52 385 0 290 0 c 2
 147 0 l 1
 147 89 l 1
 279 89 l 2
 327 89 353 113 353 151 c 0
 353 189 327 212 279 212 c 2
 147 212 l 1
EndSplineSet
EndChar

StartChar: uni044D
Encoding: 1101 1101 461
Width: 484
VWidth: 0
Flags: HW
LayerCount: 2
Fore
SplineSet
127 272 m 1
 425 272 l 1
 372 188 l 1
 127 188 l 1
 127 272 l 1
343 230 m 0
 343 322 281 384 200 384 c 0
 136 384 73 352 50 307 c 1
 50 419 l 1
 82 450 140 470 205 470 c 0
 348 470 454 371 454 230 c 0
 454 89 348 -10 205 -10 c 0
 140 -10 82 9 50 42 c 1
 50 153 l 1
 73 108 134 76 200 76 c 0
 281 76 343 135 343 230 c 0
EndSplineSet
EndChar

StartChar: uni044E
Encoding: 1102 1102 462
Width: 776
VWidth: 0
Flags: HW
LayerCount: 2
Fore
SplineSet
116 197 m 1
 116 288 l 1
 326 288 l 1
 326 197 l 1
 116 197 l 1
69 460 m 1
 175 460 l 1
 175 0 l 1
 69 0 l 1
 69 460 l 1
246 230 m 0
 246 371 353 470 494 470 c 0
 635 470 742 371 742 230 c 0
 742 89 635 -10 494 -10 c 0
 353 -10 246 89 246 230 c 0
357 230 m 0
 357 144 416 85 494 85 c 0
 572 85 631 144 631 230 c 0
 631 316 572 375 494 375 c 0
 416 375 357 316 357 230 c 0
EndSplineSet
EndChar

StartChar: uni044F
Encoding: 1103 1103 463
Width: 507
VWidth: 0
Flags: HW
LayerCount: 2
Fore
SplineSet
163 0 m 1
 48 0 l 1
 205 228 l 1
 316 228 l 1
 163 0 l 1
462 0 m 1
 353 0 l 1
 353 460 l 1
 462 460 l 1
 462 0 l 1
394 259 m 1
 394 176 l 1
 251 176 l 2
 156 176 75 219 75 320 c 0
 75 421 156 460 251 460 c 2
 394 460 l 1
 394 370 l 1
 259 370 l 2
 209 370 183 352 183 314 c 0
 183 276 209 259 259 259 c 2
 394 259 l 1
EndSplineSet
EndChar

StartChar: uni0450
Encoding: 1104 1104 464
Width: 539
VWidth: 0
Flags: HW
LayerCount: 2
Fore
SplineSet
98 205 m 1
 98 280 l 1
 387 280 l 1
 379 345 343 388 273 388 c 0
 201 388 146 339 146 258 c 1
 144 230 l 1
 144 129 196 79 274 79 c 0
 336 79 379 107 406 152 c 1
 500 115 l 1
 454 40 393 -10 269 -10 c 0
 126 -10 34 91 34 230 c 0
 34 247 35 263 38 279 c 0
 57 392 143 470 274 470 c 0
 416 470 504 380 504 235 c 0
 504 227 504 216 503 205 c 1
 98 205 l 1
117 680 m 1
 208 725 l 1
 358 565 l 1
 297 530 l 1
 117 680 l 1
EndSplineSet
EndChar

StartChar: uni0451
Encoding: 1105 1105 465
Width: 539
VWidth: 0
Flags: HW
LayerCount: 2
Fore
SplineSet
98 205 m 1
 98 280 l 1
 387 280 l 1
 379 345 343 388 273 388 c 0
 201 388 146 339 146 258 c 1
 144 230 l 1
 144 129 196 79 274 79 c 0
 336 79 379 107 406 152 c 1
 500 115 l 1
 454 40 393 -10 269 -10 c 0
 126 -10 34 91 34 230 c 0
 34 247 35 263 38 279 c 0
 57 392 143 470 274 470 c 0
 416 470 504 380 504 235 c 0
 504 227 504 216 503 205 c 1
 98 205 l 1
315 596 m 0
 315 633 345 662 383 662 c 0
 421 662 451 633 451 596 c 0
 451 559 421 530 383 530 c 0
 345 530 315 559 315 596 c 0
97 596 m 0
 97 633 127 662 165 662 c 0
 203 662 234 633 234 596 c 0
 234 559 203 530 165 530 c 0
 127 530 97 559 97 596 c 0
EndSplineSet
EndChar

